STARTFONT 2.1
FONT -JDECW-Gothic-Medium-R-Normal--34-240-100-100-M-340-JISX0208.1983-1
SIZE 24 100 100
FONTBOUNDINGBOX 34 34 0 -5

STARTPROPERTIES 26
FONTNAME_REGISTRY ""
FAMILY_NAME "Gothic"
FOUNDRY "JDECW"
WEIGHT_NAME "Medium"
SLANT "R"
SETWIDTH_NAME "Normal"
ADD_STYLE_NAME ""
PIXEL_SIZE 34
POINT_SIZE 240
RESOLUTION_X 100
RESOLUTION_Y 100
SPACING "M"
AVERAGE_WIDTH 340
CHARSET_REGISTRY "JISX0208.1983"
CHARSET_ENCODING "1"
DEVICE_FONT_NAME "Gothic-JISX0208.1983-1"
CHARSET_COLLECTIONS "JISX0208.1983 1"
FULL_NAME "Gothic-JISX0208.1983-1"
COPYRIGHT "Copyright (c) 1990 1991 TYPEBANK, Digital Equipment Corporation Japan"
CAP_HEIGHT 24
X_HEIGHT 17
WEIGHT 10
QUAD_WIDTH 34
DEFAULT_CHAR 41634
FONT_DESCENT 5
FONT_ASCENT 29
ENDPROPERTIES

CHARS 6968

STARTCHAR Ca1a1
ENCODING 41377
SWIDTH 1000 0
DWIDTH 34 0
BBX 34 34 0 -5
BITMAP
0000000000
0000000000
0000000000
0000000000
0000000000
0000000000
0000000000
0000000000
0000000000
0000000000
0000000000
0000000000
0000000000
0000000000
0000000000
0000000000
0000000000
0000000000
0000000000
0000000000
0000000000
0000000000
0000000000
0000000000
0000000000
0000000000
0000000000
0000000000
0000000000
0000000000
0000000000
0000000000
0000000000
0000000000
ENDCHAR

STARTCHAR Ca1a2
ENCODING 41378
SWIDTH 1000 0
DWIDTH 34 0
BBX 34 34 0 -5
BITMAP
0000000000
0000000000
0000000000
0000000000
0000000000
0000000000
0000000000
0000000000
0000000000
0000000000
0000000000
0000000000
0000000000
0000000000
0000000000
0000000000
0000000000
0000000000
0000000000
0000000000
0000000000
0400000000
0E00000000
3F00000000
1F80000000
0FC0000000
07E0000000
03F0000000
01F8000000
01F0000000
00E0000000
00C0000000
0000000000
0000000000
ENDCHAR

STARTCHAR Ca1a3
ENCODING 41379
SWIDTH 1000 0
DWIDTH 34 0
BBX 34 34 0 -5
BITMAP
0000000000
0000000000
0000000000
0000000000
0000000000
0000000000
0000000000
0000000000
0000000000
0000000000
0000000000
0000000000
0000000000
0000000000
0000000000
0000000000
0000000000
0000000000
0000000000
0000000000
0000000000
0000000000
07E0000000
0FF0000000
1E78000000
1C38000000
181C000000
181C000000
1C38000000
1E78000000
0FF0000000
07E0000000
0000000000
0000000000
ENDCHAR

STARTCHAR Ca1a4
ENCODING 41380
SWIDTH 1000 0
DWIDTH 34 0
BBX 34 34 0 -5
BITMAP
0000000000
0000000000
0000000000
0000000000
0000000000
0000000000
0000000000
0000000000
0000000000
0000000000
0000000000
0000000000
0000000000
0000000000
0000000000
0000000000
0000000000
0000000000
0000000000
0000000000
0000000000
0000000000
0000000000
0F80000000
0F80000000
0F80000000
0F80000000
0F80000000
0380000000
0380000000
0700000000
0600000000
0C00000000
0000000000
ENDCHAR

STARTCHAR Ca1a5
ENCODING 41381
SWIDTH 1000 0
DWIDTH 34 0
BBX 34 34 0 -5
BITMAP
0000000000
0000000000
0000000000
0000000000
0000000000
0000000000
0000000000
0000000000
0000000000
0000000000
0000000000
0000000000
0000000000
0000000000
0000000000
0000000000
0000000000
0000000000
0000000000
0000000000
0000000000
0000000000
0000000000
0F80000000
0F80000000
0F80000000
0F80000000
0F80000000
0000000000
0000000000
0000000000
0000000000
0000000000
0000000000
ENDCHAR

STARTCHAR Ca1a6
ENCODING 41382
SWIDTH 1000 0
DWIDTH 34 0
BBX 34 34 0 -5
BITMAP
0000000000
0000000000
0000000000
0000000000
0000000000
0000000000
0000000000
0000000000
0000000000
0000000000
0000000000
0000000000
0000000000
0000000000
0000000000
0001F00000
0001F00000
0001F00000
0001F00000
0001F00000
0000000000
0000000000
0000000000
0000000000
0000000000
0000000000
0000000000
0000000000
0000000000
0000000000
0000000000
0000000000
0000000000
0000000000
ENDCHAR

STARTCHAR Ca1a7
ENCODING 41383
SWIDTH 1000 0
DWIDTH 34 0
BBX 34 34 0 -5
BITMAP
0000000000
0000000000
0000000000
0000000000
0000000000
0000000000
0000000000
0000000000
0000000000
0000000000
0000000000
0000000000
0001F00000
0001F00000
0001F00000
0001F00000
0001F00000
0000000000
0000000000
0000000000
0000000000
0000000000
0000000000
0000000000
0001F00000
0001F00000
0001F00000
0001F00000
0001F00000
0000000000
0000000000
0000000000
0000000000
0000000000
ENDCHAR

STARTCHAR Ca1a8
ENCODING 41384
SWIDTH 1000 0
DWIDTH 34 0
BBX 34 34 0 -5
BITMAP
0000000000
0000000000
0000000000
0000000000
0000000000
0000000000
0000000000
0000000000
0000000000
0000000000
0000000000
0000000000
0001F00000
0001F00000
0001F00000
0001F00000
0001F00000
0000000000
0000000000
0000000000
0000000000
0000000000
0000000000
0000000000
0001F00000
0001F00000
0001F00000
0001F00000
0001F00000
0000600000
0000E00000
0001C00000
0003800000
0000000000
ENDCHAR

STARTCHAR Ca1a9
ENCODING 41385
SWIDTH 1000 0
DWIDTH 34 0
BBX 34 34 0 -5
BITMAP
0000000000
0000000000
0000000000
0000F00000
0007FE0000
000FFF0000
001FFF8000
001F0FC000
003E07C000
003C03C000
003C03C000
003C07C000
003C07C000
00000FC000
00001F8000
00003F8000
00007E0000
0000FC0000
0000F80000
0000F00000
0000F00000
0000F00000
0000F00000
0000000000
0000000000
0000000000
0001F00000
0001F00000
0001F00000
0001F00000
0001F00000
0000000000
0000000000
0000000000
ENDCHAR

STARTCHAR Ca1aa
ENCODING 41386
SWIDTH 1000 0
DWIDTH 34 0
BBX 34 34 0 -5
BITMAP
0000000000
0000000000
0000000000
0001F00000
0001F00000
0001F00000
0001F00000
0001F00000
0001F00000
0001F00000
0001F00000
0001F00000
0001F00000
0001F00000
0001F00000
0001F00000
0001F00000
0001F00000
0001F00000
0001F00000
0001F00000
0001F00000
0000000000
0000000000
0000000000
0000000000
0001F00000
0001F00000
0001F00000
0001F00000
0001F00000
0000000000
0000000000
0000000000
ENDCHAR

STARTCHAR Ca1ab
ENCODING 41387
SWIDTH 1000 0
DWIDTH 34 0
BBX 34 34 0 -5
BITMAP
0000000000
0000000000
0000000000
0180000000
03C0000000
11E0000000
3CC0000000
3C40000000
1E00000000
0800000000
0000000000
0000000000
0000000000
0000000000
0000000000
0000000000
0000000000
0000000000
0000000000
0000000000
0000000000
0000000000
0000000000
0000000000
0000000000
0000000000
0000000000
0000000000
0000000000
0000000000
0000000000
0000000000
0000000000
0000000000
ENDCHAR

STARTCHAR Ca1ac
ENCODING 41388
SWIDTH 1000 0
DWIDTH 34 0
BBX 34 34 0 -5
BITMAP
0000000000
0000000000
0000000000
0F80000000
1DC0000000
18C0000000
10C0000000
18C0000000
1F80000000
0F00000000
0000000000
0000000000
0000000000
0000000000
0000000000
0000000000
0000000000
0000000000
0000000000
0000000000
0000000000
0000000000
0000000000
0000000000
0000000000
0000000000
0000000000
0000000000
0000000000
0000000000
0000000000
0000000000
0000000000
0000000000
ENDCHAR

STARTCHAR Ca1ad
ENCODING 41389
SWIDTH 1000 0
DWIDTH 34 0
BBX 34 34 0 -5
BITMAP
0000000000
0000700000
0000E00000
0001C00000
0000000000
0000000000
0000000000
0000000000
0000000000
0000000000
0000000000
0000000000
0000000000
0000000000
0000000000
0000000000
0000000000
0000000000
0000000000
0000000000
0000000000
0000000000
0000000000
0000000000
0000000000
0000000000
0000000000
0000000000
0000000000
0000000000
0000000000
0000000000
0000000000
0000000000
ENDCHAR

STARTCHAR Ca1ae
ENCODING 41390
SWIDTH 1000 0
DWIDTH 34 0
BBX 34 34 0 -5
BITMAP
0000000000
0001C00000
0000E00000
0000700000
0000000000
0000000000
0000000000
0000000000
0000000000
0000000000
0000000000
0000000000
0000000000
0000000000
0000000000
0000000000
0000000000
0000000000
0000000000
0000000000
0000000000
0000000000
0000000000
0000000000
0000000000
0000000000
0000000000
0000000000
0000000000
0000000000
0000000000
0000000000
0000000000
0000000000
ENDCHAR

STARTCHAR Ca1af
ENCODING 41391
SWIDTH 1000 0
DWIDTH 34 0
BBX 34 34 0 -5
BITMAP
0000000000
000E0E0000
000E0E0000
000E0E0000
0000000000
0000000000
0000000000
0000000000
0000000000
0000000000
0000000000
0000000000
0000000000
0000000000
0000000000
0000000000
0000000000
0000000000
0000000000
0000000000
0000000000
0000000000
0000000000
0000000000
0000000000
0000000000
0000000000
0000000000
0000000000
0000000000
0000000000
0000000000
0000000000
0000000000
ENDCHAR

STARTCHAR Ca1b0
ENCODING 41392
SWIDTH 1000 0
DWIDTH 34 0
BBX 34 34 0 -5
BITMAP
0000000000
0001F00000
0003B80000
000E0E0000
0000000000
0000000000
0000000000
0000000000
0000000000
0000000000
0000000000
0000000000
0000000000
0000000000
0000000000
0000000000
0000000000
0000000000
0000000000
0000000000
0000000000
0000000000
0000000000
0000000000
0000000000
0000000000
0000000000
0000000000
0000000000
0000000000
0000000000
0000000000
0000000000
0000000000
ENDCHAR

STARTCHAR Ca1b1
ENCODING 41393
SWIDTH 1000 0
DWIDTH 34 0
BBX 34 34 0 -5
BITMAP
0000000000
7FFFFFFF40
0000000000
0000000000
0000000000
0000000000
0000000000
0000000000
0000000000
0000000000
0000000000
0000000000
0000000000
0000000000
0000000000
0000000000
0000000000
0000000000
0000000000
0000000000
0000000000
0000000000
0000000000
0000000000
0000000000
0000000000
0000000000
0000000000
0000000000
0000000000
0000000000
0000000000
0000000000
0000000000
ENDCHAR

STARTCHAR Ca1b2
ENCODING 41394
SWIDTH 1000 0
DWIDTH 34 0
BBX 34 34 0 -5
BITMAP
0000000000
0000000000
0000000000
0000000000
0000000000
0000000000
0000000000
0000000000
0000000000
0000000000
0000000000
0000000000
0000000000
0000000000
0000000000
0000000000
0000000000
0000000000
0000000000
0000000000
0000000000
0000000000
0000000000
0000000000
0000000000
0000000000
0000000000
0000000000
0000000000
0000000000
0000000000
0000000000
0000000000
7FFFFFFF40
ENDCHAR

STARTCHAR Ca1b3
ENCODING 41395
SWIDTH 1000 0
DWIDTH 34 0
BBX 34 34 0 -5
BITMAP
0000000000
0000000000
0000000000
0000000000
0000000000
0000000000
0000000000
0000000000
0018000000
003C000000
007F000000
003F800000
000FC00000
0007E00000
0003F00000
0001F80000
0000FC0000
00007E0000
00003F0000
00001F8000
00000FC000
000007E000
000007E000
000003C000
0000018000
0000008000
0000000000
0000000000
0000000000
0000000000
0000000000
0000000000
0000000000
0000000000
ENDCHAR

STARTCHAR Ca1b4
ENCODING 41396
SWIDTH 1000 0
DWIDTH 34 0
BBX 34 34 0 -5
BITMAP
0000000000
0000000000
0000000000
0000004000
000001E000
000000F000
0000027800
0000073000
00180F9000
003C07C000
007F038000
003F810000
000FC00000
0007E00000
0003F00000
0001F80000
0000FC0000
00007E0000
00003F0000
00001F8000
00000FC000
000007E000
000007E000
000003C000
0000018000
0000008000
0000000000
0000000000
0000000000
0000000000
0000000000
0000000000
0000000000
0000000000
ENDCHAR

STARTCHAR Ca1b5
ENCODING 41397
SWIDTH 1000 0
DWIDTH 34 0
BBX 34 34 0 -5
BITMAP
0000000000
0000000000
0000000000
0000000000
0000000000
0000000000
0000000000
0000000000
0008000000
003E000000
007F000000
003F800000
000FE00000
0007F00000
0001F80000
0000FC0000
00007E0000
00003F0000
00001F0000
00000F8000
00000F8000
00001F8000
0000FF0000
000FFE0000
0007FC0000
0003F00000
0001800000
0000000000
0000000000
0000000000
0000000000
0000000000
0000000000
0000000000
ENDCHAR

STARTCHAR Ca1b6
ENCODING 41398
SWIDTH 1000 0
DWIDTH 34 0
BBX 34 34 0 -5
BITMAP
0000000000
0000000000
0000000000
000000C000
000001E000
000000F000
0000067800
00000F3000
000807C000
003E038000
007F010000
003F800000
000FE00000
0007F00000
0001F80000
0000FC0000
00007E0000
00003F0000
00001F0000
00000F8000
00000F8000
00001F8000
0000FF0000
000FFE0000
0007FC0000
0003F00000
0001800000
0000000000
0000000000
0000000000
0000000000
0000000000
0000000000
0000000000
ENDCHAR

STARTCHAR Ca1b7
ENCODING 41399
SWIDTH 1000 0
DWIDTH 34 0
BBX 34 34 0 -5
BITMAP
0000000000
0000000000
0000000000
0000000000
0000000000
0000000000
0000000000
0000000000
0000000000
0000000000
0007878000
000F878000
000F8F8000
000F0F8000
000F0F0000
001F1F0000
001E1F0000
001E1E0000
003E1E0000
003C3C0000
003C3C0000
00783C0000
0078780000
0078780000
00F0F00000
00F0F00000
0000000000
0000000000
0000000000
0000000000
0000000000
0000000000
0000000000
0000000000
ENDCHAR

STARTCHAR Ca1b8
ENCODING 41400
SWIDTH 1000 0
DWIDTH 34 0
BBX 34 34 0 -5
BITMAP
0000000000
0000000000
0000000000
0001F00000
0001F00000
0003F80000
0007FC0000
000FBE0000
001F1F0000
003E0F8000
007C07E000
01F803F000
03F001FC00
0FE000FF00
3FC0003F00
1FFFFFFF00
0EFFFFE600
04FFFFE000
0000E00000
0000E00000
0000E00000
0000E00000
0000E00000
0000E00000
0000E00000
0000E00000
0000E00000
1FFFFFFF00
1FFFFFFF00
1FFFFFFF00
1FFFFFFF00
0000000000
0000000000
0000000000
ENDCHAR

STARTCHAR Ca1b9
ENCODING 41401
SWIDTH 1000 0
DWIDTH 34 0
BBX 34 34 0 -5
BITMAP
0000000000
0000000000
0000000000
0000000000
0000000000
0007C00000
0007800000
0007800000
000F800000
000F000000
001FFFE000
001FFFF800
003FFFF000
003C01F000
007C01E000
00F803E000
01F003C000
03E0078000
0FC18F8000
0783DF0000
0307FE0000
0103FC0000
0000FC0000
00007C0000
00003E0000
00001F0000
00001F0000
00000E0000
0000040000
0000000000
0000000000
0000000000
0000000000
0000000000
ENDCHAR

STARTCHAR Ca1ba
ENCODING 41402
SWIDTH 1000 0
DWIDTH 34 0
BBX 34 34 0 -5
BITMAP
0000000000
0000000000
0000000000
0000000C00
0000001E00
0000003F00
0000007E00
000000FC00
000001F800
000003F000
003E07E000
00FF87C000
01FFCF8000
01FFFF0000
03E3FE0000
03C0FC0000
0380FE0000
0781FF0000
0703FF8000
0707CFC000
0707C7F000
0F0F83E000
0F1F01C000
0E3E008000
0E7C000000
0EF8000000
0EF0000000
1FE0000000
1FC0000000
1F80000000
1F00000000
0E00000000
0000000000
0000000000
ENDCHAR

STARTCHAR Ca1bb
ENCODING 41403
SWIDTH 1000 0
DWIDTH 34 0
BBX 34 34 0 -5
BITMAP
0000000000
0000000000
0000000000
0000000000
0003F80000
001FFF0000
003FFF8000
00FF1FE000
01F803F000
01E000F000
03C0007800
0780003C00
0780003C00
0700001C00
0F00001E00
0F00001E00
0E00000E00
0E00000E00
0E00000E00
0F00001E00
0F00001E00
0700001C00
0780003C00
0780003C00
03C0007800
01E000F000
01F803F000
00FF1FE000
003FFF8000
001FFF0000
0007FC0000
0000000000
0000000000
0000000000
ENDCHAR

STARTCHAR Ca1bc
ENCODING 41404
SWIDTH 1000 0
DWIDTH 34 0
BBX 34 34 0 -5
BITMAP
0000000000
0000000000
0000000000
0000000000
0000000000
0000000000
0000000000
0000000000
0000000000
0000000000
0000000000
0000000000
0000000000
0000000000
0000000000
1FFFFFFF00
1FFFFFFF00
1FFFFFFF00
1FFFFFFF00
1FFFFFFF00
0000000000
0000000000
0000000000
0000000000
0000000000
0000000000
0000000000
0000000000
0000000000
0000000000
0000000000
0000000000
0000000000
0000000000
ENDCHAR

STARTCHAR Ca1bd
ENCODING 41405
SWIDTH 1000 0
DWIDTH 34 0
BBX 34 34 0 -5
BITMAP
0000000000
0000000000
0000000000
0000000000
0000000000
0000000000
0000000000
0000000000
0000000000
0000000000
0000000000
0000000000
0000000000
0000000000
0000000000
1FFFFFFF00
1FFFFFFF00
1FFFFFFF00
1FFFFFFF00
1FFFFFFF00
0000000000
0000000000
0000000000
0000000000
0000000000
0000000000
0000000000
0000000000
0000000000
0000000000
0000000000
0000000000
0000000000
0000000000
ENDCHAR

STARTCHAR Ca1be
ENCODING 41406
SWIDTH 1000 0
DWIDTH 34 0
BBX 34 34 0 -5
BITMAP
0000000000
0000000000
0000000000
0000000000
0000000000
0000000000
0000000000
0000000000
0000000000
0000000000
0000000000
0000000000
0000000000
0000000000
0000000000
000FFE0000
000FFE0000
000FFE0000
000FFE0000
000FFE0000
0000000000
0000000000
0000000000
0000000000
0000000000
0000000000
0000000000
0000000000
0000000000
0000000000
0000000000
0000000000
0000000000
0000000000
ENDCHAR

STARTCHAR Ca1bf
ENCODING 41407
SWIDTH 1000 0
DWIDTH 34 0
BBX 34 34 0 -5
BITMAP
0000000000
0000000000
0000000000
0000000300
0000000700
0000000E00
0000001C00
0000003800
0000007000
000000E000
000001C000
0000038000
0000070000
00000E0000
00001C0000
0000380000
0000700000
0000E00000
0001C00000
0003800000
0007000000
000E000000
001C000000
0038000000
0070000000
00E0000000
01C0000000
0380000000
0700000000
0E00000000
1C00000000
1800000000
0000000000
0000000000
ENDCHAR

STARTCHAR Ca1c0
ENCODING 41408
SWIDTH 1000 0
DWIDTH 34 0
BBX 34 34 0 -5
BITMAP
0000000000
0000000000
0000000000
1800000000
1C00000000
0E00000000
0700000000
0380000000
01C0000000
00E0000000
0070000000
0038000000
001C000000
000E000000
0007000000
0003800000
0001C00000
0000E00000
0000700000
0000380000
00001C0000
00000E0000
0000070000
0000038000
000001C000
000000E000
0000007000
0000003800
0000001C00
0000000E00
0000000700
0000000300
0000000000
0000000000
ENDCHAR

STARTCHAR Ca1c1
ENCODING 41409
SWIDTH 1000 0
DWIDTH 34 0
BBX 34 34 0 -5
BITMAP
0000000000
0000000000
0000000000
0000000000
0000000000
0000000000
0000000000
0000000000
0000000000
0000000000
0000000000
0000000000
0000000000
00FC000000
01FF000000
07FFC00200
0F8FE00600
0E01F80E00
0C00FE3E00
08003FFC00
00001FF800
000007E000
0000000000
0000000000
0000000000
0000000000
0000000000
0000000000
0000000000
0000000000
0000000000
0000000000
0000000000
0000000000
ENDCHAR

STARTCHAR Ca1c2
ENCODING 41410
SWIDTH 1000 0
DWIDTH 34 0
BBX 34 34 0 -5
BITMAP
0000000000
000E0E0000
000E0E0000
000E0E0000
000E0E0000
000E0E0000
000E0E0000
000E0E0000
000E0E0000
000E0E0000
000E0E0000
000E0E0000
000E0E0000
000E0E0000
000E0E0000
000E0E0000
000E0E0000
000E0E0000
000E0E0000
000E0E0000
000E0E0000
000E0E0000
000E0E0000
000E0E0000
000E0E0000
000E0E0000
000E0E0000
000E0E0000
000E0E0000
000E0E0000
000E0E0000
000E0E0000
000E0E0000
000E0E0000
ENDCHAR

STARTCHAR Ca1c3
ENCODING 41411
SWIDTH 1000 0
DWIDTH 34 0
BBX 34 34 0 -5
BITMAP
0000000000
0000E00000
0000E00000
0000E00000
0000E00000
0000E00000
0000E00000
0000E00000
0000E00000
0000E00000
0000E00000
0000E00000
0000E00000
0000E00000
0000E00000
0000E00000
0000E00000
0000E00000
0000E00000
0000E00000
0000E00000
0000E00000
0000E00000
0000E00000
0000E00000
0000E00000
0000E00000
0000E00000
0000E00000
0000E00000
0000E00000
0000E00000
0000E00000
0000E00000
ENDCHAR

STARTCHAR Ca1c4
ENCODING 41412
SWIDTH 1000 0
DWIDTH 34 0
BBX 34 34 0 -5
BITMAP
0000000000
0000000000
0000000000
0000000000
0000000000
0000000000
0000000000
0000000000
0000000000
0000000000
0000000000
0000000000
0000000000
0000000000
0000000000
0F01F03E00
0F01F03E00
0F01F03E00
0F01F03E00
0F01F03E00
0000000000
0000000000
0000000000
0000000000
0000000000
0000000000
0000000000
0000000000
0000000000
0000000000
0000000000
0000000000
0000000000
0000000000
ENDCHAR

STARTCHAR Ca1c5
ENCODING 41413
SWIDTH 1000 0
DWIDTH 34 0
BBX 34 34 0 -5
BITMAP
0000000000
0000000000
0000000000
0000000000
0000000000
0000000000
0000000000
0000000000
0000000000
0000000000
0000000000
0000000000
0000000000
0000000000
0000000000
01E000F000
01E000F000
01E000F000
01E000F000
01E000F000
0000000000
0000000000
0000000000
0000000000
0000000000
0000000000
0000000000
0000000000
0000000000
0000000000
0000000000
0000000000
0000000000
0000000000
ENDCHAR

STARTCHAR Ca1c6
ENCODING 41414
SWIDTH 1000 0
DWIDTH 34 0
BBX 34 34 0 -5
BITMAP
0000000000
0000000000
0000000000
0000000700
0000000E00
0000001C00
0000001C00
0000001C00
0000001F00
0000003F00
0000003F00
0000003F00
0000003F00
0000000000
0000000000
0000000000
0000000000
0000000000
0000000000
0000000000
0000000000
0000000000
0000000000
0000000000
0000000000
0000000000
0000000000
0000000000
0000000000
0000000000
0000000000
0000000000
0000000000
0000000000
ENDCHAR

STARTCHAR Ca1c7
ENCODING 41415
SWIDTH 1000 0
DWIDTH 34 0
BBX 34 34 0 -5
BITMAP
0000000000
0000000000
0000000000
1F00000000
1F00000000
1F00000000
1F00000000
1F00000000
0700000000
0600000000
0E00000000
1C00000000
3800000000
0000000000
0000000000
0000000000
0000000000
0000000000
0000000000
0000000000
0000000000
0000000000
0000000000
0000000000
0000000000
0000000000
0000000000
0000000000
0000000000
0000000000
0000000000
0000000000
0000000000
0000000000
ENDCHAR

STARTCHAR Ca1c8
ENCODING 41416
SWIDTH 1000 0
DWIDTH 34 0
BBX 34 34 0 -5
BITMAP
0000000000
0000000000
0000000200
00000E1C00
00001C3800
0000383800
0000387000
0000387000
00007C7C00
00007C7C00
00007C7C00
00007C7C00
00007C7C00
0000000000
0000000000
0000000000
0000000000
0000000000
0000000000
0000000000
0000000000
0000000000
0000000000
0000000000
0000000000
0000000000
0000000000
0000000000
0000000000
0000000000
0000000000
0000000000
0000000000
0000000000
ENDCHAR

STARTCHAR Ca1c9
ENCODING 41417
SWIDTH 1000 0
DWIDTH 34 0
BBX 34 34 0 -5
BITMAP
0000000000
0000000000
0000000000
07CFC00000
07CFC00000
07CFC00000
07CFC00000
07CF800000
01C3800000
0383800000
0387000000
0706000000
0E0E000000
0000000000
0000000000
0000000000
0000000000
0000000000
0000000000
0000000000
0000000000
0000000000
0000000000
0000000000
0000000000
0000000000
0000000000
0000000000
0000000000
0000000000
0000000000
0000000000
0000000000
0000000000
ENDCHAR

STARTCHAR Ca1ca
ENCODING 41418
SWIDTH 1000 0
DWIDTH 34 0
BBX 34 34 0 -5
BITMAP
0000000000
0000000000
0000000200
0000001C00
0000003800
0000003800
0000007000
0000007000
000000E000
000000E000
000001E000
000001C000
000001C000
000001C000
000001C000
000003C000
000003C000
000003C000
000003C000
000003C000
000003C000
000001C000
000001C000
000001C000
000001E000
000000E000
000000E000
000000F000
0000007000
0000003800
0000003800
0000001E00
0000000000
0000000000
ENDCHAR

STARTCHAR Ca1cb
ENCODING 41419
SWIDTH 1000 0
DWIDTH 34 0
BBX 34 34 0 -5
BITMAP
0000000000
0000000000
0800000000
0700000000
0380000000
0380000000
01C0000000
01C0000000
00E0000000
00E0000000
00F0000000
0070000000
0070000000
0070000000
0070000000
0078000000
0078000000
0078000000
0078000000
0078000000
0070000000
0070000000
0070000000
0070000000
00F0000000
00E0000000
00E0000000
01E0000000
01C0000000
0380000000
0380000000
0F00000000
0000000000
0000000000
ENDCHAR

STARTCHAR Ca1cc
ENCODING 41420
SWIDTH 1000 0
DWIDTH 34 0
BBX 34 34 0 -5
BITMAP
0000000000
0000000000
0000000700
0000007F00
000003FF00
000003FC00
000003C000
0000038000
0000038000
0000038000
0000038000
0000038000
0000038000
0000038000
0000038000
0000038000
0000038000
0000038000
0000038000
0000038000
0000038000
0000038000
0000038000
0000038000
0000038000
0000038000
0000038000
0000038000
000003E000
000003FC00
000003FF00
0000007F00
0000000700
0000000000
ENDCHAR

STARTCHAR Ca1cd
ENCODING 41421
SWIDTH 1000 0
DWIDTH 34 0
BBX 34 34 0 -5
BITMAP
0000000000
0000000000
1C00000000
1FC0000000
1FF8000000
07F8000000
0078000000
0038000000
0038000000
0038000000
0038000000
0038000000
0038000000
0038000000
0038000000
0038000000
0038000000
0038000000
0038000000
0038000000
0038000000
0038000000
0038000000
0038000000
0038000000
0038000000
0038000000
0038000000
00F8000000
07F8000000
1FF8000000
1FC0000000
1C00000000
0000000000
ENDCHAR

STARTCHAR Ca1ce
ENCODING 41422
SWIDTH 1000 0
DWIDTH 34 0
BBX 34 34 0 -5
BITMAP
0000000000
0000000000
0000000000
000003FF00
000003FF00
000003FF00
0000038000
0000038000
0000038000
0000038000
0000038000
0000038000
0000038000
0000038000
0000038000
0000038000
0000038000
0000038000
0000038000
0000038000
0000038000
0000038000
0000038000
0000038000
0000038000
0000038000
0000038000
0000038000
0000038000
000003FF00
000003FF00
000003FF00
0000000000
0000000000
ENDCHAR

STARTCHAR Ca1cf
ENCODING 41423
SWIDTH 1000 0
DWIDTH 34 0
BBX 34 34 0 -5
BITMAP
0000000000
0000000000
0000000000
1FF8000000
1FF8000000
1FF8000000
0038000000
0038000000
0038000000
0038000000
0038000000
0038000000
0038000000
0038000000
0038000000
0038000000
0038000000
0038000000
0038000000
0038000000
0038000000
0038000000
0038000000
0038000000
0038000000
0038000000
0038000000
0038000000
0038000000
1FF8000000
1FF8000000
1FF8000000
0000000000
0000000000
ENDCHAR

STARTCHAR Ca1d0
ENCODING 41424
SWIDTH 1000 0
DWIDTH 34 0
BBX 34 34 0 -5
BITMAP
0000000000
0000000000
0000000000
0000003E00
0000007E00
0000007E00
000000F800
000000F000
000000E000
000000E000
000000E000
000000E000
000000E000
000000E000
000000E000
000001E000
000007C000
0000078000
000007C000
000001E000
000000E000
000000E000
000000E000
000000E000
000000E000
000000E000
000000E000
000000F000
000000F000
000000FE00
0000007E00
0000003E00
0000000000
0000000000
ENDCHAR

STARTCHAR Ca1d1
ENCODING 41425
SWIDTH 1000 0
DWIDTH 34 0
BBX 34 34 0 -5
BITMAP
0000000000
0000000000
0000000000
0F00000000
0FC0000000
0FC0000000
03E0000000
01E0000000
01E0000000
00E0000000
00E0000000
00E0000000
00E0000000
00E0000000
00E0000000
00F0000000
007C000000
003C000000
007C000000
00F0000000
00E0000000
00E0000000
00E0000000
00E0000000
00E0000000
00E0000000
00E0000000
01E0000000
01E0000000
0FC0000000
0FC0000000
0F80000000
0000000000
0000000000
ENDCHAR

STARTCHAR Ca1d2
ENCODING 41426
SWIDTH 1000 0
DWIDTH 34 0
BBX 34 34 0 -5
BITMAP
0000000000
0000000000
0000000100
0000000E00
0000001C00
0000003800
0000007000
000000E000
000001C000
0000038000
0000070000
00000E0000
00001C0000
0000380000
0000700000
0000E00000
0001C00000
0003800000
0001C00000
0000E00000
0000700000
0000380000
00001C0000
00000E0000
0000070000
0000038000
000001C000
000000E000
0000007000
0000003800
0000001C00
0000000F00
0000000000
0000000000
ENDCHAR

STARTCHAR Ca1d3
ENCODING 41427
SWIDTH 1000 0
DWIDTH 34 0
BBX 34 34 0 -5
BITMAP
0000000000
0000000000
1000000000
0E00000000
0700000000
0380000000
01C0000000
00E0000000
0070000000
0038000000
001C000000
000E000000
0007000000
0003800000
0001C00000
0000E00000
0000700000
0000380000
0000700000
0000E00000
0001C00000
0003800000
0007000000
000E000000
001C000000
0038000000
0070000000
00E0000000
01C0000000
0380000000
0700000000
1E00000000
0000000000
0000000000
ENDCHAR

STARTCHAR Ca1d4
ENCODING 41428
SWIDTH 1000 0
DWIDTH 34 0
BBX 34 34 0 -5
BITMAP
0000000000
0000000000
0000004000
0000038F00
0000071E00
00000E3C00
00001C7800
000038F000
000070E000
0000E1C000
0001C38000
0003870000
00078E0000
000F1C0000
001E380000
003C700000
0078E00000
00F1C00000
0078E00000
003C700000
001E380000
000F1C0000
00078E0000
0003870000
0001C38000
0000E1C000
000071E000
000038F000
00001C7800
00000E3C00
0000071E00
000003CF00
0000000000
0000000000
ENDCHAR

STARTCHAR Ca1d5
ENCODING 41429
SWIDTH 1000 0
DWIDTH 34 0
BBX 34 34 0 -5
BITMAP
0000000000
0000000000
0040000000
1E38000000
0F1C000000
078E000000
03C7000000
01E3800000
00E1C00000
0070E00000
0038700000
001C380000
000E3C0000
00071E0000
00038F0000
0001C78000
0000E3C000
000071E000
0000E3C000
0001C78000
00038F0000
00071E0000
000E3C0000
001C780000
0038700000
0070E00000
00E1C00000
01E3800000
03C7000000
078E000000
0F1C000000
1E78000000
0000000000
0000000000
ENDCHAR

STARTCHAR Ca1d6
ENCODING 41430
SWIDTH 1000 0
DWIDTH 34 0
BBX 34 34 0 -5
BITMAP
0000000000
0000000000
0000000000
000007FF00
000007FF00
000007FF00
0000070000
0000070000
0000070000
0000070000
0000070000
0000070000
0000070000
0000070000
0000070000
0000070000
0000070000
0000070000
0000070000
0000070000
0000070000
0000070000
0000070000
0000070000
0000070000
0000070000
0000070000
0000000000
0000000000
0000000000
0000000000
0000000000
0000000000
0000000000
ENDCHAR

STARTCHAR Ca1d7
ENCODING 41431
SWIDTH 1000 0
DWIDTH 34 0
BBX 34 34 0 -5
BITMAP
0000000000
0000000000
0000000000
0000000000
0000000000
0000000000
0000000000
0000000000
001C000000
001C000000
001C000000
001C000000
001C000000
001C000000
001C000000
001C000000
001C000000
001C000000
001C000000
001C000000
001C000000
001C000000
001C000000
001C000000
001C000000
001C000000
001C000000
001C000000
001C000000
1FFC000000
1FFC000000
1FFC000000
0000000000
0000000000
ENDCHAR

STARTCHAR Ca1d8
ENCODING 41432
SWIDTH 1000 0
DWIDTH 34 0
BBX 34 34 0 -5
BITMAP
0000000000
0000000000
0000000000
00003FFF00
00003FFF00
0000380300
0000380300
0000380300
000039FF00
000039FF00
000039C000
000039C000
000039C000
000039C000
000039C000
000039C000
000039C000
000039C000
000039C000
000039C000
000039C000
000039C000
000039C000
000039C000
00003FC000
00003FC000
00003FC000
0000000000
0000000000
0000000000
0000000000
0000000000
0000000000
0000000000
ENDCHAR

STARTCHAR Ca1d9
ENCODING 41433
SWIDTH 1000 0
DWIDTH 34 0
BBX 34 34 0 -5
BITMAP
0000000000
0000000000
0000000000
0000000000
0000000000
0000000000
0000000000
0000000000
007F800000
007F800000
007F800000
0073800000
0073800000
0073800000
0073800000
0073800000
0073800000
0073800000
0073800000
0073800000
0073800000
0073800000
0073800000
0073800000
0073800000
1FF3800000
1FF3800000
1803800000
1803800000
1803800000
1FFF800000
1FFF800000
0000000000
0000000000
ENDCHAR

STARTCHAR Ca1da
ENCODING 41434
SWIDTH 1000 0
DWIDTH 34 0
BBX 34 34 0 -5
BITMAP
0000000000
0000000000
0000000100
000001FE00
000001FC00
000001F800
000001F800
000001F000
000001F000
000001E000
000001E000
000001E000
000001C000
000001C000
000001C000
000001C000
000001C000
000001C000
000001C000
000001C000
000001C000
000001C000
000001C000
000001E000
000001E000
000001E000
000001F000
000001F000
000001F800
000001F800
000001FC00
000001FF00
0000000000
0000000000
ENDCHAR

STARTCHAR Ca1db
ENCODING 41435
SWIDTH 1000 0
DWIDTH 34 0
BBX 34 34 0 -5
BITMAP
0000000000
0000000000
1000000000
0FF0000000
07F0000000
03F0000000
03F0000000
01F0000000
01F0000000
00F0000000
00F0000000
00F0000000
0070000000
0070000000
0070000000
0070000000
0070000000
0070000000
0070000000
0070000000
0070000000
0070000000
0070000000
00F0000000
00F0000000
00F0000000
01F0000000
01F0000000
03F0000000
03F0000000
07F0000000
1FF0000000
0000000000
0000000000
ENDCHAR

STARTCHAR Ca1dc
ENCODING 41436
SWIDTH 1000 0
DWIDTH 34 0
BBX 34 34 0 -5
BITMAP
0000000000
0000000000
0000000000
0000000000
0000000000
0000000000
0000E00000
0000E00000
0000E00000
0000E00000
0000E00000
0000E00000
0000E00000
0000E00000
0000E00000
0000E00000
03FFFFF800
03FFFFF800
03FFFFF800
0000E00000
0000E00000
0000E00000
0000E00000
0000E00000
0000E00000
0000E00000
0000E00000
0000E00000
0000E00000
0000000000
0000000000
0000000000
0000000000
0000000000
ENDCHAR

STARTCHAR Ca1dd
ENCODING 41437
SWIDTH 1000 0
DWIDTH 34 0
BBX 34 34 0 -5
BITMAP
0000000000
0000000000
0000000000
0000000000
0000000000
0000000000
0000000000
0000000000
0000000000
0000000000
0000000000
0000000000
0000000000
0000000000
0000000000
0000000000
03FFFFF800
03FFFFF800
03FFFFF800
0000000000
0000000000
0000000000
0000000000
0000000000
0000000000
0000000000
0000000000
0000000000
0000000000
0000000000
0000000000
0000000000
0000000000
0000000000
ENDCHAR

STARTCHAR Ca1de
ENCODING 41438
SWIDTH 1000 0
DWIDTH 34 0
BBX 34 34 0 -5
BITMAP
0000000000
0000000000
0000000000
0000000000
0000000000
0000E00000
0000E00000
0000E00000
0000E00000
0000E00000
0000E00000
0000E00000
03FFFFF800
03FFFFF800
03FFFFF800
0000E00000
0000E00000
0000E00000
0000E00000
0000E00000
0000E00000
0000E00000
0000E00000
0000000000
0000000000
0000000000
03FFFFF800
03FFFFF800
03FFFFF800
0000000000
0000000000
0000000000
0000000000
0000000000
ENDCHAR

STARTCHAR Ca1df
ENCODING 41439
SWIDTH 1000 0
DWIDTH 34 0
BBX 34 34 0 -5
BITMAP
0000000000
0000000000
0000000000
0000000000
0000000000
0000000000
0000002000
00C0006000
01E000F800
01F001F000
00F803E000
007C07C000
003E0F8000
001F1F0000
000FBE0000
0007FC0000
0003F80000
0001F00000
0003F80000
0007FC0000
000FBE0000
001F1F0000
003E0F8000
007C07C000
00F803E000
01F001F800
03E000F000
01C0006000
0080002000
0000000000
0000000000
0000000000
0000000000
0000000000
ENDCHAR

STARTCHAR Ca1e0
ENCODING 41440
SWIDTH 1000 0
DWIDTH 34 0
BBX 34 34 0 -5
BITMAP
0000000000
0000000000
0000000000
0000000000
0000000000
0000000000
0000000000
0000000000
0000E00000
0001F00000
0001F00000
0000E00000
0000400000
0000000000
0000000000
0000000000
03FFFFF800
03FFFFF800
03FFFFF800
0000000000
0000000000
0000000000
0000000000
0000E00000
0001F00000
0001E00000
0000E00000
0000000000
0000000000
0000000000
0000000000
0000000000
0000000000
0000000000
ENDCHAR

STARTCHAR Ca1e1
ENCODING 41441
SWIDTH 1000 0
DWIDTH 34 0
BBX 34 34 0 -5
BITMAP
0000000000
0000000000
0000000000
0000000000
0000000000
0000000000
0000000000
0000000000
0000000000
0000000000
0000000000
0000000000
03FFFFF800
03FFFFF800
03FFFFF800
0000000000
0000000000
0000000000
0000000000
0000000000
03FFFFF800
03FFFFF800
03FFFFF800
0000000000
0000000000
0000000000
0000000000
0000000000
0000000000
0000000000
0000000000
0000000000
0000000000
0000000000
ENDCHAR

STARTCHAR Ca1e2
ENCODING 41442
SWIDTH 1000 0
DWIDTH 34 0
BBX 34 34 0 -5
BITMAP
0000000000
0000000000
0000000000
0000000000
0000000000
0000070000
0000070000
00000E0000
00000E0000
00001C0000
00001C0000
0000380000
03FFFFF800
03FFFFF800
03FFFFF800
0000700000
0000E00000
0000E00000
0000E00000
0001C00000
03FFFFF800
03FFFFF800
03FFFFF800
0007000000
0007000000
0007000000
000E000000
000E000000
001C000000
001C000000
0000000000
0000000000
0000000000
0000000000
ENDCHAR

STARTCHAR Ca1e3
ENCODING 41443
SWIDTH 1000 0
DWIDTH 34 0
BBX 34 34 0 -5
BITMAP
0000000000
0000000000
0000000000
0000000100
0000000700
0000001F00
0000007C00
000001F000
000007C000
00001F0000
00007C0000
0001F00000
0007C00000
001F000000
007C000000
01F0000000
07C0000000
1F00000000
07C0000000
01F0000000
007C000000
001F000000
0007C00000
0001F00000
00007C0000
00001F0000
000007C000
000001F000
0000007C00
0000001F00
0000000700
0000000100
0000000000
0000000000
ENDCHAR

STARTCHAR Ca1e4
ENCODING 41444
SWIDTH 1000 0
DWIDTH 34 0
BBX 34 34 0 -5
BITMAP
0000000000
0000000000
0000000000
1000000000
1C00000000
1F00000000
07C0000000
01F0000000
007C000000
001F000000
0007C00000
0001F00000
00007C0000
00001F0000
000007C000
000001F000
0000007C00
0000001F00
0000007C00
000001F000
000007C000
00001F0000
00007C0000
0001F00000
0007C00000
001F000000
007C000000
01F0000000
07C0000000
1F00000000
1C00000000
1000000000
0000000000
0000000000
ENDCHAR

STARTCHAR Ca1e5
ENCODING 41445
SWIDTH 1000 0
DWIDTH 34 0
BBX 34 34 0 -5
BITMAP
0000000000
0000000000
0000000000
0000000400
0000003800
000001F800
000007F000
00003F8000
0001FC0000
000FE00000
003F000000
05F8000000
03F0000000
007E000000
000FC00000
0003F80000
00007F0000
00000FE000
000001F800
0000003800
0000000800
0000000000
03FFFFF800
03FFFFF800
03FFFFF800
0000000000
0000000000
0000000000
03FFFFF800
03FFFFF800
03FFFFF800
0000000000
0000000000
0000000000
ENDCHAR

STARTCHAR Ca1e6
ENCODING 41446
SWIDTH 1000 0
DWIDTH 34 0
BBX 34 34 0 -5
BITMAP
0000000000
0000000000
0000000000
0200000000
0380000000
03F0000000
01FC000000
003F800000
0007F00000
0000FE0000
00001F8000
000003F400
000001F800
00000FC000
00007E0000
0003F80000
001FC00000
00FE000000
03F0000000
0380000000
0200000000
0000000000
03FFFFF800
03FFFFF800
03FFFFF800
0000000000
0000000000
0000000000
03FFFFF800
03FFFFF800
03FFFFF800
0000000000
0000000000
0000000000
ENDCHAR

STARTCHAR Ca1e7
ENCODING 41447
SWIDTH 1000 0
DWIDTH 34 0
BBX 34 34 0 -5
BITMAP
0000000000
0000000000
0000000000
0000000000
0000000000
0000000000
0000000000
0000000000
0000000000
0000000000
0000000000
01FC03F000
03FE0FF800
079F1F3C00
0E03BC0E00
0E01F00600
0C01F00700
1C00E00700
0C01F00700
0E01F80E00
0F07BC0E00
07FF1FFC00
03FE0FF800
01F803F000
0000000000
0000000000
0000000000
0000000000
0000000000
0000000000
0000000000
0000000000
0000000000
0000000000
ENDCHAR

STARTCHAR Ca1e8
ENCODING 41448
SWIDTH 1000 0
DWIDTH 34 0
BBX 34 34 0 -5
BITMAP
0000000000
0000000000
0000000000
0000000000
0000000000
0000000000
0000000000
0000E00000
0001F00000
0001F00000
0000F00000
0000400000
0000000000
0000000000
0000000000
0000000000
0000000000
0000000000
0000000000
0000000000
0000000000
0000000000
0000000000
0000000000
01E000F000
01E000F000
01E000F000
00E000E000
0000000000
0000000000
0000000000
0000000000
0000000000
0000000000
ENDCHAR

STARTCHAR Ca1e9
ENCODING 41449
SWIDTH 1000 0
DWIDTH 34 0
BBX 34 34 0 -5
BITMAP
0000000000
0000000000
0000000000
0000000000
00000FFE00
00000FFE00
00000FFE00
0000003E00
0000007E00
000000EE00
000001CE00
0000038E00
0000070E00
00000E0E00
00001C0E00
0000380000
00FE700000
01FFE00000
03E7C00000
0781C00000
0700E00000
0E00E00000
0E00E00000
0E00600000
0E00E00000
0600E00000
0701C00000
0383C00000
03FF800000
00FF000000
003C000000
0000000000
0000000000
0000000000
ENDCHAR

STARTCHAR Ca1ea
ENCODING 41450
SWIDTH 1000 0
DWIDTH 34 0
BBX 34 34 0 -5
BITMAP
0000000000
0000000000
0000000000
0003F80000
0007FC0000
000F1E0000
001C070000
0038038000
0038038000
0038038000
0038038000
0038038000
0038038000
001C070000
001E0F0000
000FFE0000
0007FC0000
0000E00000
0000E00000
0000E00000
0000E00000
00FFFFE000
00FFFFE000
0000E00000
0000E00000
0000E00000
0000E00000
0000E00000
0000E00000
0000E00000
0000E00000
0000E00000
0000000000
0000000000
ENDCHAR

STARTCHAR Ca1eb
ENCODING 41451
SWIDTH 1000 0
DWIDTH 34 0
BBX 34 34 0 -5
BITMAP
0000000000
0000000000
0200000000
0F80000000
1DC0000000
18C0000000
1040000000
18C0000000
1FC0000000
0F80000000
0000000000
0000000000
0000000000
0000000000
0000000000
0000000000
0000000000
0000000000
0000000000
0000000000
0000000000
0000000000
0000000000
0000000000
0000000000
0000000000
0000000000
0000000000
0000000000
0000000000
0000000000
0000000000
0000000000
0000000000
ENDCHAR

STARTCHAR Ca1ec
ENCODING 41452
SWIDTH 1000 0
DWIDTH 34 0
BBX 34 34 0 -5
BITMAP
0000000000
0000000000
0000000000
0F00000000
0E00000000
0E00000000
1E00000000
1C00000000
1C00000000
1C00000000
1800000000
3800000000
0000000000
0000000000
0000000000
0000000000
0000000000
0000000000
0000000000
0000000000
0000000000
0000000000
0000000000
0000000000
0000000000
0000000000
0000000000
0000000000
0000000000
0000000000
0000000000
0000000000
0000000000
0000000000
ENDCHAR

STARTCHAR Ca1ed
ENCODING 41453
SWIDTH 1000 0
DWIDTH 34 0
BBX 34 34 0 -5
BITMAP
0000000000
0000000000
0000000000
0F3C000000
0E38000000
0E38000000
1E38000000
1C78000000
1C70000000
1C70000000
1870000000
3860000000
0000000000
0000000000
0000000000
0000000000
0000000000
0000000000
0000000000
0000000000
0000000000
0000000000
0000000000
0000000000
0000000000
0000000000
0000000000
0000000000
0000000000
0000000000
0000000000
0000000000
0000000000
0000000000
ENDCHAR

STARTCHAR Ca1ee
ENCODING 41454
SWIDTH 1000 0
DWIDTH 34 0
BBX 34 34 0 -5
BITMAP
0000000000
0000000000
0000000000
0000000000
07801E0000
0DC0FF8000
18C3FFE000
1847FFF000
08CFC1F800
0F9F007800
031E003C00
003C003C00
003C003E00
003C001E00
0078000000
0078000000
0078000000
0078000000
0078000000
0078000000
003C001E00
003C003E00
003E003C00
001F007C00
001F80F800
000FFFF800
0007FFF000
0001FFC000
00007F0000
0000000000
0000000000
0000000000
0000000000
0000000000
ENDCHAR

STARTCHAR Ca1ef
ENCODING 41455
SWIDTH 1000 0
DWIDTH 34 0
BBX 34 34 0 -5
BITMAP
0000000000
0000000000
0000000000
0000000000
0100001000
00F803E000
007803C000
007C07C000
003E078000
001E0F0000
000F1E0000
000F9E0000
0007BC0000
00FFFFE000
00FFFFE000
00FFFFE000
0000E00000
0000E00000
0000E00000
0000E00000
00FFFFE000
00FFFFE000
00FFFFE000
0000E00000
0000E00000
0000E00000
0000E00000
0000E00000
0000E00000
0000000000
0000000000
0000000000
0000000000
0000000000
ENDCHAR

STARTCHAR Ca1f0
ENCODING 41456
SWIDTH 1000 0
DWIDTH 34 0
BBX 34 34 0 -5
BITMAP
0000000000
0000000000
0000000000
0000E00000
0000E00000
0007FC0000
000FFE0000
001FFF0000
003CEF8000
0038E78000
0078E78000
0078E00000
0078E00000
003EE00000
003FE00000
001FF80000
000FFE0000
0003FF0000
0000FF8000
0000E7C000
0000E3C000
0000E3C000
0078E3C000
0078E3C000
007CE3C000
003EE78000
001FFF8000
000FFF0000
0007FC0000
0000E00000
0000E00000
0000E00000
0000000000
0000000000
ENDCHAR

STARTCHAR Ca1f1
ENCODING 41457
SWIDTH 1000 0
DWIDTH 34 0
BBX 34 34 0 -5
BITMAP
0000000000
0000000000
0000000000
0000000000
00000E0000
00001E0000
00001C0000
0000FC0000
0007FC0000
000FFE0000
001F3F0000
003C7F8000
0078778000
0078638000
0070E00000
00F0E00000
00F0C00000
00F1C00000
0071C00000
0071838000
007B878000
003F8F8000
003F1F0000
001FFE0000
000FFC0000
000FF00000
000E000000
001C000000
001C000000
0000000000
0000000000
0000000000
0000000000
0000000000
ENDCHAR

STARTCHAR Ca1f2
ENCODING 41458
SWIDTH 1000 0
DWIDTH 34 0
BBX 34 34 0 -5
BITMAP
0000000000
0000000000
0000000000
0000000000
0000700000
0001FE0000
0003FF0000
0007FF0000
000F8F8000
000F078000
000F078000
000F000000
000F000000
000F800000
00FFFE0000
00FFFE0000
00FFFE0000
0003C00000
0003C00000
0001C00000
0071C00000
01FFC00000
03FFC02000
03CFC07000
0383F0F800
0387FFF000
03FFFFE000
01FF7FC000
00FC1F0000
0000000000
0000000000
0000000000
0000000000
0000000000
ENDCHAR

STARTCHAR Ca1f3
ENCODING 41459
SWIDTH 1000 0
DWIDTH 34 0
BBX 34 34 0 -5
BITMAP
0000000000
0000000000
0000000000
0000007000
01F000E000
03F800E000
07FC01C000
0F1E038000
0E0E038000
1E0F070000
1E0F060000
1E0F0E0000
1E0F1C0000
1E0F1C0000
0E0E380000
0F1E700000
07FC73F000
07FCE7FC00
01F1CFFC00
0001CE1E00
00039E0E00
00071E0E00
00071C0F00
000E1E0F00
000E1E0E00
001C1E0E00
00380E1E00
00380F3E00
007007FC00
00E003F800
00E000E000
01C0000000
0000000000
0000000000
ENDCHAR

STARTCHAR Ca1f4
ENCODING 41460
SWIDTH 1000 0
DWIDTH 34 0
BBX 34 34 0 -5
BITMAP
0000000000
0000000000
0000000000
000783C000
000783C000
0007038000
0007038000
0007038000
0007038000
00FFFFF800
00FFFFF800
00FFFFF800
00FFFFF800
000E070000
000E070000
000E070000
001E0F0000
001E0F0000
001E0F0000
001C0E0000
001C0E0000
001C0E0000
03FFFFE000
03FFFFE000
03FFFFE000
003C1E0000
00381C0000
00381C0000
00381C0000
00781C0000
00783C0000
00783C0000
0000000000
0000000000
ENDCHAR

STARTCHAR Ca1f5
ENCODING 41461
SWIDTH 1000 0
DWIDTH 34 0
BBX 34 34 0 -5
BITMAP
0000000000
0000000000
0000000000
0001800000
000FF80000
001FFC0000
003FFE0000
007C1E0000
00780E0000
00780E0000
00780E0000
00781E0000
007C3E0000
003C7C0000
003FF80000
001FF00000
001FC00000
007FC0F000
00FFE0F000
01F3F0F000
01E1F8F000
03C0F9E000
03C07DE000
03C03FE000
03C01FC000
03C00FC000
03E00FC000
01F03FE000
01FFFFF000
00FFFCF800
003FF87C00
0007800000
0000000000
0000000000
ENDCHAR

STARTCHAR Ca1f6
ENCODING 41462
SWIDTH 1000 0
DWIDTH 34 0
BBX 34 34 0 -5
BITMAP
0000000000
0000000000
0000000000
0000000000
0000000000
0000000000
0000E00000
0001F00000
0001F00000
0001F00000
0040F00000
00F0E0E000
01F8E3F000
01FCE7F000
00FEEFE000
003F5F8000
0007FC0000
0000E00000
0007FC0000
003F5F8000
00FEEFE000
01FCE7F000
01F8E3F000
00F0E0E000
0001F00000
0001F00000
0001F00000
0001F00000
0000E00000
0000000000
0000000000
0000000000
0000000000
0000000000
ENDCHAR

STARTCHAR Ca1f7
ENCODING 41463
SWIDTH 1000 0
DWIDTH 34 0
BBX 34 34 0 -5
BITMAP
0000000000
0000000000
0000000000
0000000000
0000F00000
000FFF0000
003FFF8000
007C07E000
00F000F000
01E0007800
03C1F03800
0387FB9C00
070FFF1C00
071E0F0E00
061C0F0E00
0E3C0F0E00
0E380E0E00
0E380E0E00
0E380E0E00
0E381E0C00
06381E1C00
073C3E3800
071FF7F000
038FE7E000
0387C1C800
01C0001C00
00F0007C00
007C01F000
003FFFE000
000FFF8000
0001FC0000
0000000000
0000000000
0000000000
ENDCHAR

STARTCHAR Ca1f8
ENCODING 41464
SWIDTH 1000 0
DWIDTH 34 0
BBX 34 34 0 -5
BITMAP
0000000000
0000000000
0000000000
0003F80000
0007FC0000
000FFE0000
001E1F0000
001E0F0000
001E0F0000
001E000000
001F000000
000FC00000
0007E00000
000FF80000
001EFE0000
003C3F0000
00381F0000
003C078000
003C078000
001F078000
000FC70000
0007FF0000
0001FE0000
00007E0000
00001F0000
00000F0000
003C0F0000
003C0F0000
001E0F0000
001FFE0000
000FFE0000
0007FC0000
0000C00000
0000000000
ENDCHAR

STARTCHAR Ca1f9
ENCODING 41465
SWIDTH 1000 0
DWIDTH 34 0
BBX 34 34 0 -5
BITMAP
0000000000
0000000000
0000000000
0000400000
0000400000
0000400000
0000E00000
0000E00000
0000E00000
0001B00000
0001B00000
0001B00000
0003B80000
0003180000
1FFF1FFF00
07FF1FFC00
0380003800
01E000F000
00F001E000
003C078000
001C070000
001C070000
0018430000
0018E30000
0031F30000
0037B98000
003F1D8000
007E0F8000
007803C000
007001C000
00C000C000
0080002000
0000000000
0000000000
ENDCHAR

STARTCHAR Ca1fa
ENCODING 41466
SWIDTH 1000 0
DWIDTH 34 0
BBX 34 34 0 -5
BITMAP
0000000000
0000000000
0000000000
0000400000
0000400000
0000400000
0000E00000
0000E00000
0000E00000
0001F00000
0001F00000
0001F00000
0003F80000
0003F80000
1FFFFFFF00
07FFFFFC00
03FFFFF800
01FFFFF000
00FFFFE000
003FFF8000
001FFF0000
001FFF0000
001FFF0000
001FFF0000
003FFF0000
003FBF8000
003F1F8000
007E0F8000
007803C000
007001C000
00C000C000
0080002000
0000000000
0000000000
ENDCHAR

STARTCHAR Ca1fb
ENCODING 41467
SWIDTH 1000 0
DWIDTH 34 0
BBX 34 34 0 -5
BITMAP
0000000000
0000000000
0000000000
0000000000
0007FC0000
001FFF0000
007FBFC000
00F803E000
01E000F000
03C0007800
0380003800
0700001C00
0700001C00
0E00000E00
0E00000E00
0E00000E00
0E00000E00
0C00000600
0E00000E00
0E00000E00
0E00000E00
0E00000E00
0700001C00
0700001C00
0380003800
03C0007800
01E000F000
00F803E000
007FBFC000
001FFF0000
0007FC0000
0000000000
0000000000
0000000000
ENDCHAR

STARTCHAR Ca1fc
ENCODING 41468
SWIDTH 1000 0
DWIDTH 34 0
BBX 34 34 0 -5
BITMAP
0000000000
0000000000
0000000000
0000000000
0007FC0000
001FFF0000
007FFFC000
00FFFFE000
01FFFFF000
03FFFFF800
03FFFFF800
07FFFFFC00
07FFFFFC00
0FFFFFFE00
0FFFFFFE00
0FFFFFFE00
0FFFFFFE00
0FFFFFFE00
0FFFFFFE00
0FFFFFFE00
0FFFFFFE00
0FFFFFFE00
07FFFFFC00
07FFFFFC00
03FFFFF800
03FFFFF800
01FFFFF000
00FFFFE000
007FFFC000
001FFF0000
0007FC0000
0000000000
0000000000
0000000000
ENDCHAR

STARTCHAR Ca1fd
ENCODING 41469
SWIDTH 1000 0
DWIDTH 34 0
BBX 34 34 0 -5
BITMAP
0000000000
0000000000
0000000000
0000000000
0007FC0000
001FFF0000
007E0FC000
00F803E000
01E000F000
03C0007800
0383F83800
0707FC1C00
070F1E1C00
0E1C070E00
0E38038E00
0C38038600
0C30018600
0C30018600
0C30018600
0C38038600
0E38038E00
0E1C070E00
070F1E1C00
0707FC1C00
0383F83800
03C0007800
01E000F000
00F803E000
007E0FC000
001FFF0000
0007FC0000
0000000000
0000000000
0000000000
ENDCHAR

STARTCHAR Ca1fe
ENCODING 41470
SWIDTH 1000 0
DWIDTH 34 0
BBX 34 34 0 -5
BITMAP
0000000000
0000000000
0000000000
0000400000
0000E00000
0001F00000
0003B80000
00071C0000
000E0E0000
001C070000
0038038000
007001C000
00E000E000
01C0007000
0380003800
0700001C00
0E00000E00
1C00000700
0E00000E00
0700001C00
0380003800
01C0007000
00E000E000
007001C000
0038038000
001C070000
000E0E0000
00071C0000
0003B80000
0001F00000
0000E00000
0000400000
0000000000
0000000000
ENDCHAR

STARTCHAR Ca2a1
ENCODING 41633
SWIDTH 1000 0
DWIDTH 34 0
BBX 34 34 0 -5
BITMAP
0000000000
0000000000
0000000000
0000400000
0000E00000
0001F00000
0003F80000
0007FC0000
000FFE0000
001FFF0000
003FFF8000
007FFFC000
00FFFFE000
01FFFFF000
03FFFFF800
07FFFFFC00
0FFFFFFE00
1FFFFFFF00
0FFFFFFE00
07FFFFFC00
03FFFFF800
01FFFFF000
00FFFFE000
007FFFC000
003FFF8000
001FFF0000
000FFE0000
0007FC0000
0003F80000
0001F00000
0000E00000
0000400000
0000000000
0000000000
ENDCHAR

STARTCHAR Ca2a2
ENCODING 41634
SWIDTH 1000 0
DWIDTH 34 0
BBX 34 34 0 -5
BITMAP
0000000000
0000000000
0000000000
0000000000
0000000000
07FFFFFC00
07FFFFFC00
07FFFFFC00
0700001C00
0700001C00
0700001C00
0700001C00
0700001C00
0700001C00
0700001C00
0700001C00
0700001C00
0700001C00
0700001C00
0700001C00
0700001C00
0700001C00
0700001C00
0700001C00
0700001C00
0700001C00
0700001C00
07FFFFFC00
07FFFFFC00
07FFFFFC00
0000000000
0000000000
0000000000
0000000000
ENDCHAR

STARTCHAR Ca2a3
ENCODING 41635
SWIDTH 1000 0
DWIDTH 34 0
BBX 34 34 0 -5
BITMAP
0000000000
0000000000
0000000000
0000000000
0000000000
07FFFFFC00
07FFFFFC00
07FFFFFC00
07FFFFFC00
07FFFFFC00
07FFFFFC00
07FFFFFC00
07FFFFFC00
07FFFFFC00
07FFFFFC00
07FFFFFC00
07FFFFFC00
07FFFFFC00
07FFFFFC00
07FFFFFC00
07FFFFFC00
07FFFFFC00
07FFFFFC00
07FFFFFC00
07FFFFFC00
07FFFFFC00
07FFFFFC00
07FFFFFC00
07FFFFFC00
07FFFFFC00
0000000000
0000000000
0000000000
0000000000
ENDCHAR

STARTCHAR Ca2a4
ENCODING 41636
SWIDTH 1000 0
DWIDTH 34 0
BBX 34 34 0 -5
BITMAP
0000000000
0000000000
0000000000
0000000000
0000400000
0000400000
0000E00000
0000E00000
0001F00000
0001F00000
0003B80000
0003B80000
00071C0000
00071C0000
000E0E0000
000E0E0000
001C070000
0018070000
0038038000
0030038000
007001C000
006000C000
00E000E000
00C0006000
01C0007000
0180003000
0380003800
03FFFFF800
07FFFFFC00
0FFFFFFE00
0000000000
0000000000
0000000000
0000000000
ENDCHAR

STARTCHAR Ca2a5
ENCODING 41637
SWIDTH 1000 0
DWIDTH 34 0
BBX 34 34 0 -5
BITMAP
0000000000
0000000000
0000000000
0000000000
0000400000
0000400000
0000E00000
0000E00000
0001F00000
0001F00000
0003F80000
0003F80000
0007FC0000
0007FC0000
000FFE0000
000FFE0000
001FFF0000
001FFF0000
003FFF8000
003FFF8000
007FFFC000
007FFFC000
00FFFFE000
00FFFFE000
01FFFFF000
01FFFFF000
03FFFFF800
03FFFFF800
07FFFFFC00
0FFFFFFE00
0000000000
0000000000
0000000000
0000000000
ENDCHAR

STARTCHAR Ca2a6
ENCODING 41638
SWIDTH 1000 0
DWIDTH 34 0
BBX 34 34 0 -5
BITMAP
0000000000
0000000000
0000000000
0000000000
0000000000
0FFFFFFE00
07FFFFFC00
07FFFFF800
0380003800
0180003000
01C0007000
00C0006000
00E000E000
006000C000
007001C000
0030018000
0038038000
0018070000
001C070000
000C0E0000
000E0E0000
00061C0000
00071C0000
0003380000
0003B80000
0001F00000
0001F00000
0000E00000
0000E00000
0000400000
0000400000
0000000000
0000000000
0000000000
ENDCHAR

STARTCHAR Ca2a7
ENCODING 41639
SWIDTH 1000 0
DWIDTH 34 0
BBX 34 34 0 -5
BITMAP
0000000000
0000000000
0000000000
0000000000
0000000000
0FFFFFFE00
07FFFFFC00
07FFFFF800
03FFFFF800
01FFFFF000
01FFFFF000
00FFFFE000
00FFFFE000
007FFFC000
007FFFC000
003FFF8000
003FFF8000
001FFF0000
001FFF0000
000FFE0000
000FFE0000
0007FC0000
0007FC0000
0003F80000
0003F80000
0001F00000
0001F00000
0000E00000
0000E00000
0000400000
0000400000
0000000000
0000000000
0000000000
ENDCHAR

STARTCHAR Ca2a8
ENCODING 41640
SWIDTH 1000 0
DWIDTH 34 0
BBX 34 34 0 -5
BITMAP
0000000000
0000000000
0000000000
0400000200
1C00400700
0E01F00E00
0701F01C00
0381F03800
01C0E07000
00E000E000
007001C000
0038038000
001C070000
000E0E0000
00071C0000
0703B81C00
0781F03E00
0F80E03E00
0F81F03E00
0703B81C00
00071C0000
000E0E0000
001C070000
0038038000
007001C000
00E000E000
01C0E07000
0381F03800
0701F01C00
1E01F00F00
0C00E00600
0400000200
0000000000
0000000000
ENDCHAR

STARTCHAR Ca2a9
ENCODING 41641
SWIDTH 1000 0
DWIDTH 34 0
BBX 34 34 0 -5
BITMAP
0000000000
0000000000
0000000000
0000000000
0000000000
03FFFFF800
03FFFFF800
03FFFFF800
0000000000
0000000000
0000000000
0000000000
0000000000
03FFFFF800
03FFFFF800
03FFFFF800
03FFFFF800
0000E00000
0000E00000
0000E00000
0000E00000
0000E00000
0000E00000
0000E00000
0000E00000
0000E00000
0000E00000
0000E00000
0000E00000
0000E00000
0000E00000
0000E00000
0000000000
0000000000
ENDCHAR

STARTCHAR Ca2aa
ENCODING 41642
SWIDTH 1000 0
DWIDTH 34 0
BBX 34 34 0 -5
BITMAP
0000000000
0000000000
0000000000
0000000000
0000000000
0000000000
0000000000
0000000000
0000000000
00001F0000
00000F8000
000007C000
000003E000
000001F000
000000F800
1FFFFFFC00
1FFFFFFE00
1FFFFFFF00
1FFFFFFE00
1FFFFFFC00
000000F800
000001F000
000003E000
000007C000
00000F8000
00001F0000
0000000000
0000000000
0000000000
0000000000
0000000000
0000000000
0000000000
0000000000
ENDCHAR

STARTCHAR Ca2ab
ENCODING 41643
SWIDTH 1000 0
DWIDTH 34 0
BBX 34 34 0 -5
BITMAP
0000000000
0000000000
0000000000
0000000000
0000000000
0000000000
0000000000
0000000000
0000000000
001F000000
003E000000
007C000000
00F8000000
01F0000000
03E0000000
07FFFFFF00
0FFFFFFF00
1FFFFFFF00
0FFFFFFF00
07FFFFFF00
03E0000000
01F0000000
00F8000000
007C000000
003E000000
001F000000
0000000000
0000000000
0000000000
0000000000
0000000000
0000000000
0000000000
0000000000
ENDCHAR

STARTCHAR Ca2ac
ENCODING 41644
SWIDTH 1000 0
DWIDTH 34 0
BBX 34 34 0 -5
BITMAP
0000000000
0000000000
0000000000
0000400000
0000E00000
0001F00000
0003F80000
0007FC0000
000FFE0000
001FFF0000
003FFF8000
007DF7C000
0079F3C000
0071F1C000
0061F0C000
0041F04000
0001F00000
0001F00000
0001F00000
0001F00000
0001F00000
0001F00000
0001F00000
0001F00000
0001F00000
0001F00000
0001F00000
0001F00000
0001F00000
0001F00000
0001F00000
0001F00000
0000000000
0000000000
ENDCHAR

STARTCHAR Ca2ad
ENCODING 41645
SWIDTH 1000 0
DWIDTH 34 0
BBX 34 34 0 -5
BITMAP
0000000000
0000000000
0000000000
0001F00000
0001F00000
0001F00000
0001F00000
0001F00000
0001F00000
0001F00000
0001F00000
0001F00000
0001F00000
0001F00000
0001F00000
0001F00000
0001F00000
0001F00000
0001F00000
0041F04000
0061F0C000
0071F1C000
0079F3C000
007DF7C000
003FFF8000
001FFF0000
000FFE0000
0007FC0000
0003F80000
0001F00000
0000E00000
0000400000
0000000000
0000000000
ENDCHAR

STARTCHAR Ca2ae
ENCODING 41646
SWIDTH 1000 0
DWIDTH 34 0
BBX 34 34 0 -5
BITMAP
0000000000
0000000000
0000000000
0000000000
0000000000
0000000000
0000000000
0000000000
0000000000
0000000000
03FFFFF800
03FFFFF800
03FFFFF800
03FFFFF800
03FFFFF800
0000000000
0000000000
0000000000
0000000000
0000000000
03FFFFF800
03FFFFF800
03FFFFF800
03FFFFF800
03FFFFF800
0000000000
0000000000
0000000000
0000000000
0000000000
0000000000
0000000000
0000000000
0000000000
ENDCHAR

STARTCHAR Ca2af
ENCODING 41647
SWIDTH 1000 0
DWIDTH 34 0
BBX 34 34 0 -5
BITMAP
0000000000
0000000000
0000000000
0000000000
0000000000
0000000000
0000000000
0000000000
0000000000
0000000000
0000000000
0000000000
0000000000
0000000000
0000000000
0000000000
0000000000
0000000000
0000000000
0000000000
0000000000
0000000000
0000000000
0000000000
0000000000
0000000000
0000000000
0000000000
0000000000
0000000000
0000000000
0000000000
0000000000
0000000000
ENDCHAR

STARTCHAR Ca2b0
ENCODING 41648
SWIDTH 1000 0
DWIDTH 34 0
BBX 34 34 0 -5
BITMAP
0000000000
0000000000
0000000000
0000000000
0000000000
0000000000
0000000000
0000000000
0000000000
0000000000
0000000000
0000000000
0000000000
0000000000
0000000000
0000000000
0000000000
0000000000
0000000000
0000000000
0000000000
0000000000
0000000000
0000000000
0000000000
0000000000
0000000000
0000000000
0000000000
0000000000
0000000000
0000000000
0000000000
0000000000
ENDCHAR

STARTCHAR Ca2b1
ENCODING 41649
SWIDTH 1000 0
DWIDTH 34 0
BBX 34 34 0 -5
BITMAP
0000000000
0000000000
0000000000
0000000000
0000000000
0000000000
0000000000
0000000000
0000000000
0000000000
0000000000
0000000000
0000000000
0000000000
0000000000
0000000000
0000000000
0000000000
0000000000
0000000000
0000000000
0000000000
0000000000
0000000000
0000000000
0000000000
0000000000
0000000000
0000000000
0000000000
0000000000
0000000000
0000000000
0000000000
ENDCHAR

STARTCHAR Ca2b2
ENCODING 41650
SWIDTH 1000 0
DWIDTH 34 0
BBX 34 34 0 -5
BITMAP
0000000000
0000000000
0000000000
0000000000
0000000000
0000000000
0000000000
0000000000
0000000000
0000000000
0000000000
0000000000
0000000000
0000000000
0000000000
0000000000
0000000000
0000000000
0000000000
0000000000
0000000000
0000000000
0000000000
0000000000
0000000000
0000000000
0000000000
0000000000
0000000000
0000000000
0000000000
0000000000
0000000000
0000000000
ENDCHAR

STARTCHAR Ca2b3
ENCODING 41651
SWIDTH 1000 0
DWIDTH 34 0
BBX 34 34 0 -5
BITMAP
0000000000
0000000000
0000000000
0000000000
0000000000
0000000000
0000000000
0000000000
0000000000
0000000000
0000000000
0000000000
0000000000
0000000000
0000000000
0000000000
0000000000
0000000000
0000000000
0000000000
0000000000
0000000000
0000000000
0000000000
0000000000
0000000000
0000000000
0000000000
0000000000
0000000000
0000000000
0000000000
0000000000
0000000000
ENDCHAR

STARTCHAR Ca2b4
ENCODING 41652
SWIDTH 1000 0
DWIDTH 34 0
BBX 34 34 0 -5
BITMAP
0000000000
0000000000
0000000000
0000000000
0000000000
0000000000
0000000000
0000000000
0000000000
0000000000
0000000000
0000000000
0000000000
0000000000
0000000000
0000000000
0000000000
0000000000
0000000000
0000000000
0000000000
0000000000
0000000000
0000000000
0000000000
0000000000
0000000000
0000000000
0000000000
0000000000
0000000000
0000000000
0000000000
0000000000
ENDCHAR

STARTCHAR Ca2b5
ENCODING 41653
SWIDTH 1000 0
DWIDTH 34 0
BBX 34 34 0 -5
BITMAP
0000000000
0000000000
0000000000
0000000000
0000000000
0000000000
0000000000
0000000000
0000000000
0000000000
0000000000
0000000000
0000000000
0000000000
0000000000
0000000000
0000000000
0000000000
0000000000
0000000000
0000000000
0000000000
0000000000
0000000000
0000000000
0000000000
0000000000
0000000000
0000000000
0000000000
0000000000
0000000000
0000000000
0000000000
ENDCHAR

STARTCHAR Ca2b6
ENCODING 41654
SWIDTH 1000 0
DWIDTH 34 0
BBX 34 34 0 -5
BITMAP
0000000000
0000000000
0000000000
0000000000
0000000000
0000000000
0000000000
0000000000
0000000000
0000000000
0000000000
0000000000
0000000000
0000000000
0000000000
0000000000
0000000000
0000000000
0000000000
0000000000
0000000000
0000000000
0000000000
0000000000
0000000000
0000000000
0000000000
0000000000
0000000000
0000000000
0000000000
0000000000
0000000000
0000000000
ENDCHAR

STARTCHAR Ca2b7
ENCODING 41655
SWIDTH 1000 0
DWIDTH 34 0
BBX 34 34 0 -5
BITMAP
0000000000
0000000000
0000000000
0000000000
0000000000
0000000000
0000000000
0000000000
0000000000
0000000000
0000000000
0000000000
0000000000
0000000000
0000000000
0000000000
0000000000
0000000000
0000000000
0000000000
0000000000
0000000000
0000000000
0000000000
0000000000
0000000000
0000000000
0000000000
0000000000
0000000000
0000000000
0000000000
0000000000
0000000000
ENDCHAR

STARTCHAR Ca2b8
ENCODING 41656
SWIDTH 1000 0
DWIDTH 34 0
BBX 34 34 0 -5
BITMAP
0000000000
0000000000
0000000000
0000000000
0000000000
0000000000
0000000000
0000000000
0000000000
0000000000
0000000000
0000000000
0000000000
0000000000
0000000000
0000000000
0000000000
0000000000
0000000000
0000000000
0000000000
0000000000
0000000000
0000000000
0000000000
0000000000
0000000000
0000000000
0000000000
0000000000
0000000000
0000000000
0000000000
0000000000
ENDCHAR

STARTCHAR Ca2b9
ENCODING 41657
SWIDTH 1000 0
DWIDTH 34 0
BBX 34 34 0 -5
BITMAP
0000000000
0000000000
0000000000
0000000000
0000000000
0000000000
0000000000
0000000000
0000000000
0000000000
0000000000
0000000000
0000000000
0000000000
0000000000
0000000000
0000000000
0000000000
0000000000
0000000000
0000000000
0000000000
0000000000
0000000000
0000000000
0000000000
0000000000
0000000000
0000000000
0000000000
0000000000
0000000000
0000000000
0000000000
ENDCHAR

STARTCHAR Ca2ba
ENCODING 41658
SWIDTH 1000 0
DWIDTH 34 0
BBX 34 34 0 -5
BITMAP
0000000000
0000000000
0000000000
0000000000
0000000000
0003FFFE00
001FFFFE00
007FFFFE00
00F8000000
01E0000000
03C0000000
0380000000
0700000000
0700000000
0600000000
0E00000000
0FFFFFFE00
0FFFFFFE00
0FFFFFFE00
0E00000000
0600000000
0700000000
0700000000
0380000000
03C0000000
01E0000000
00F8000000
007FFFFE00
001FFFFE00
0003FFFE00
0000000000
0000000000
0000000000
0000000000
ENDCHAR

STARTCHAR Ca2bb
ENCODING 41659
SWIDTH 1000 0
DWIDTH 34 0
BBX 34 34 0 -5
BITMAP
0000000000
0000000000
0000000000
0000000000
0000000000
0FFFF80000
0FFFFF0000
0FFFFF8000
000003E000
000000F000
0000007800
0000003800
0000001C00
0000001C00
0000000C00
0000000E00
0FFFFFFE00
0FFFFFFE00
0FFFFFFE00
0000000E00
0000000C00
0000001C00
0000001C00
0000003800
0000007800
000000F000
000003E000
0FFFFFC000
0FFFFF0000
0FFFF80000
0000000000
0000000000
0000000000
0000000000
ENDCHAR

STARTCHAR Ca2bc
ENCODING 41660
SWIDTH 1000 0
DWIDTH 34 0
BBX 34 34 0 -5
BITMAP
0000000000
0000000000
0000000000
0000000000
0000000000
001FFFFE00
007FFFFE00
01FFFFFE00
03C0000000
0780000000
0700000000
0600000000
0E00000000
0E00000000
0E00000000
0E00000000
0700000000
0700000000
0380000000
01E0000000
00FFFFFE00
007FFFFE00
0007FFFE00
0000000000
0000000000
0000000000
0000000000
0FFFFFFE00
0FFFFFFE00
0FFFFFFE00
0000000000
0000000000
0000000000
0000000000
ENDCHAR

STARTCHAR Ca2bd
ENCODING 41661
SWIDTH 1000 0
DWIDTH 34 0
BBX 34 34 0 -5
BITMAP
0000000000
0000000000
0000000000
0000000000
0000000000
0FFFFF0000
0FFFFFC000
0FFFFFF000
000000F800
0000003C00
0000001C00
0000000C00
0000000E00
0000000E00
0000000E00
0000000C00
0000001C00
0000001C00
0000003800
000000F000
0FFFFFE000
0FFFFFC000
0FFFFC0000
0000000000
0000000000
0000000000
0000000000
0FFFFFFE00
0FFFFFFE00
0FFFFFFE00
0000000000
0000000000
0000000000
0000000000
ENDCHAR

STARTCHAR Ca2be
ENCODING 41662
SWIDTH 1000 0
DWIDTH 34 0
BBX 34 34 0 -5
BITMAP
0000000000
0000000000
0000000000
0000000000
0000000000
0001FFFE00
001FFFFE00
003FFFFE00
00F8000000
01E0000000
03C0000000
0380000000
0700000000
0700000000
0600000000
0E00000000
0E00000000
0E00000000
0E00000000
0E00000000
0E00000000
0700000000
0700000000
0380000000
03C0000000
01E0000000
00F8000000
007FFFFE00
001FFFFE00
0003FFFE00
0000000000
0000000000
0000000000
0000000000
ENDCHAR

STARTCHAR Ca2bf
ENCODING 41663
SWIDTH 1000 0
DWIDTH 34 0
BBX 34 34 0 -5
BITMAP
0000000000
0000000000
0000000000
0000000000
0000000000
0FFFF00000
0FFFFF0000
0FFFFF8000
000003E000
000000F000
0000007000
0000003800
0000001C00
0000001C00
0000000C00
0000000E00
0000000E00
0000000E00
0000000E00
0000000E00
0000000E00
0000001C00
0000001C00
0000003800
0000007800
000000F000
000003E000
0FFFFFC000
0FFFFF0000
0FFFF80000
0000000000
0000000000
0000000000
0000000000
ENDCHAR

STARTCHAR Ca2c0
ENCODING 41664
SWIDTH 1000 0
DWIDTH 34 0
BBX 34 34 0 -5
BITMAP
0000000000
0000000000
0000000000
0000000000
0700001C00
0700001C00
0700001C00
0700001C00
0700001C00
0700001C00
0700001C00
0700001C00
0700001C00
0700001C00
0700001C00
0700001C00
0700001C00
0700001C00
0700001C00
0700001C00
0700001800
0300001800
0380003800
0380003000
01C0007000
01E000E000
00F001E000
007C07C000
003FFF0000
000FFE0000
0003F00000
0000000000
0000000000
0000000000
ENDCHAR

STARTCHAR Ca2c1
ENCODING 41665
SWIDTH 1000 0
DWIDTH 34 0
BBX 34 34 0 -5
BITMAP
0000000000
0000000000
0000000000
0000000000
0001F80000
000FFE0000
003FFF8000
007C07C000
00F001E000
00E000F000
01C0007000
0380003800
0380003800
0300001800
0300001C00
0700001C00
0700001C00
0700001C00
0700001C00
0700001C00
0700001C00
0700001C00
0700001C00
0700001C00
0700001C00
0700001C00
0700001C00
0700001C00
0700001C00
0700001C00
0700001C00
0000000000
0000000000
0000000000
ENDCHAR

STARTCHAR Ca2c2
ENCODING 41666
SWIDTH 1000 0
DWIDTH 34 0
BBX 34 34 0 -5
BITMAP
0000000000
0000000000
0000000000
0000000000
0000000000
0000000000
0000000000
0000000000
0000000000
0000000000
0000000000
0000000000
0000000000
0000000000
0000000000
0000000000
0000000000
0000000000
0000000000
0000000000
0000000000
0000000000
0000000000
0000000000
0000000000
0000000000
0000000000
0000000000
0000000000
0000000000
0000000000
0000000000
0000000000
0000000000
ENDCHAR

STARTCHAR Ca2c3
ENCODING 41667
SWIDTH 1000 0
DWIDTH 34 0
BBX 34 34 0 -5
BITMAP
0000000000
0000000000
0000000000
0000000000
0000000000
0000000000
0000000000
0000000000
0000000000
0000000000
0000000000
0000000000
0000000000
0000000000
0000000000
0000000000
0000000000
0000000000
0000000000
0000000000
0000000000
0000000000
0000000000
0000000000
0000000000
0000000000
0000000000
0000000000
0000000000
0000000000
0000000000
0000000000
0000000000
0000000000
ENDCHAR

STARTCHAR Ca2c4
ENCODING 41668
SWIDTH 1000 0
DWIDTH 34 0
BBX 34 34 0 -5
BITMAP
0000000000
0000000000
0000000000
0000000000
0000000000
0000000000
0000000000
0000000000
0000000000
0000000000
0000000000
0000000000
0000000000
0000000000
0000000000
0000000000
0000000000
0000000000
0000000000
0000000000
0000000000
0000000000
0000000000
0000000000
0000000000
0000000000
0000000000
0000000000
0000000000
0000000000
0000000000
0000000000
0000000000
0000000000
ENDCHAR

STARTCHAR Ca2c5
ENCODING 41669
SWIDTH 1000 0
DWIDTH 34 0
BBX 34 34 0 -5
BITMAP
0000000000
0000000000
0000000000
0000000000
0000000000
0000000000
0000000000
0000000000
0000000000
0000000000
0000000000
0000000000
0000000000
0000000000
0000000000
0000000000
0000000000
0000000000
0000000000
0000000000
0000000000
0000000000
0000000000
0000000000
0000000000
0000000000
0000000000
0000000000
0000000000
0000000000
0000000000
0000000000
0000000000
0000000000
ENDCHAR

STARTCHAR Ca2c6
ENCODING 41670
SWIDTH 1000 0
DWIDTH 34 0
BBX 34 34 0 -5
BITMAP
0000000000
0000000000
0000000000
0000000000
0000000000
0000000000
0000000000
0000000000
0000000000
0000000000
0000000000
0000000000
0000000000
0000000000
0000000000
0000000000
0000000000
0000000000
0000000000
0000000000
0000000000
0000000000
0000000000
0000000000
0000000000
0000000000
0000000000
0000000000
0000000000
0000000000
0000000000
0000000000
0000000000
0000000000
ENDCHAR

STARTCHAR Ca2c7
ENCODING 41671
SWIDTH 1000 0
DWIDTH 34 0
BBX 34 34 0 -5
BITMAP
0000000000
0000000000
0000000000
0000000000
0000000000
0000000000
0000000000
0000000000
0000000000
0000000000
0000000000
0000000000
0000000000
0000000000
0000000000
0000000000
0000000000
0000000000
0000000000
0000000000
0000000000
0000000000
0000000000
0000000000
0000000000
0000000000
0000000000
0000000000
0000000000
0000000000
0000000000
0000000000
0000000000
0000000000
ENDCHAR

STARTCHAR Ca2c8
ENCODING 41672
SWIDTH 1000 0
DWIDTH 34 0
BBX 34 34 0 -5
BITMAP
0000000000
0000000000
0000000000
0000000000
0000000000
0000000000
0000000000
0000000000
0000000000
0000000000
0000000000
0000000000
0000000000
0000000000
0000000000
0000000000
0000000000
0000000000
0000000000
0000000000
0000000000
0000000000
0000000000
0000000000
0000000000
0000000000
0000000000
0000000000
0000000000
0000000000
0000000000
0000000000
0000000000
0000000000
ENDCHAR

STARTCHAR Ca2c9
ENCODING 41673
SWIDTH 1000 0
DWIDTH 34 0
BBX 34 34 0 -5
BITMAP
0000000000
0000000000
0000000000
0000000000
0000000000
0000000000
0000000000
0000000000
0000000000
0000000000
0000000000
0000000000
0000000000
0000000000
0000000000
0000000000
0000000000
0000000000
0000000000
0000000000
0000000000
0000000000
0000000000
0000000000
0000000000
0000000000
0000000000
0000000000
0000000000
0000000000
0000000000
0000000000
0000000000
0000000000
ENDCHAR

STARTCHAR Ca2ca
ENCODING 41674
SWIDTH 1000 0
DWIDTH 34 0
BBX 34 34 0 -5
BITMAP
0000000000
0000000000
0000000000
0000400000
0000400000
0000E00000
0000E00000
0001F00000
0001B00000
0003B80000
00071C0000
00071C0000
000E0E0000
000E0E0000
001C070000
001C070000
0038038000
0038038000
007001C000
007001C000
00E000E000
00E000E000
01C0007000
01C0007000
0380003800
0380003800
0700001C00
0700001C00
0E00000E00
0E00000E00
1C00000700
1C00000700
0000000000
0000000000
ENDCHAR

STARTCHAR Ca2cb
ENCODING 41675
SWIDTH 1000 0
DWIDTH 34 0
BBX 34 34 0 -5
BITMAP
0000000000
0000000000
0000000000
1800000700
1C00000700
0C00000E00
0E00000E00
0600001C00
0700001C00
0300003800
0380003800
01C0007000
01C0007000
00E000E000
00E000E000
007001C000
007001C000
0038038000
0038038000
001C070000
001C070000
000E0E0000
000E0E0000
00071C0000
0007180000
0003B80000
0003B00000
0001F00000
0001E00000
0000E00000
0000C00000
0000400000
0000000000
0000000000
ENDCHAR

STARTCHAR Ca2cc
ENCODING 41676
SWIDTH 1000 0
DWIDTH 34 0
BBX 34 34 0 -5
BITMAP
0000000000
0000000000
0000000000
0000000000
0000000000
0000000000
0000000000
0000000000
0000000000
0000000000
0000000000
1FFFFFFF00
1FFFFFFF00
0000000700
0000000700
0000000700
0000000700
0000000700
0000000700
0000000700
0000000700
0000000700
0000000700
0000000700
0000000700
0000000000
0000000000
0000000000
0000000000
0000000000
0000000000
0000000000
0000000000
0000000000
ENDCHAR

STARTCHAR Ca2cd
ENCODING 41677
SWIDTH 1000 0
DWIDTH 34 0
BBX 34 34 0 -5
BITMAP
0000000000
0000000000
0000000000
0000000000
0000000000
0000000000
0000000000
0000000000
0000010000
0000070000
0000038000
000001C000
000000E000
1FFFFFF000
1FFFFFF800
0000001C00
0000000E00
0000000700
0000000E00
0000001C00
1FFFFFF800
1FFFFFF000
000000E000
000001C000
0000038000
0000070000
0000010000
0000000000
0000000000
0000000000
0000000000
0000000000
0000000000
0000000000
ENDCHAR

STARTCHAR Ca2ce
ENCODING 41678
SWIDTH 1000 0
DWIDTH 34 0
BBX 34 34 0 -5
BITMAP
0000000000
0000000000
0000000000
0000000000
0000000000
0000000000
0000000000
0000000000
0010008000
0038038000
007001C000
00E000E000
01C0007000
03FFFFF800
07FFFFFC00
0E00000E00
1C00000700
3800000300
1C00000700
0E00000E00
07FFFFFC00
03FFFFF800
01C0007000
00E000E000
007001C000
0038038000
0010008000
0000000000
0000000000
0000000000
0000000000
0000000000
0000000000
0000000000
ENDCHAR

STARTCHAR Ca2cf
ENCODING 41679
SWIDTH 1000 0
DWIDTH 34 0
BBX 34 34 0 -5
BITMAP
0000000000
0000000000
0000000000
1800000700
1C00000700
0C00000E00
0E00000E00
0600001C00
0700001C00
0300003800
0380003800
01C0007000
01C0007000
00FFFFE000
00FFFFE000
007FFFC000
007001C000
0038038000
0038038000
001C070000
001C070000
000E0E0000
000E0E0000
00071C0000
0007180000
0003B80000
0003B00000
0001F00000
0001E00000
0000E00000
0000C00000
0000400000
0000000000
0000000000
ENDCHAR

STARTCHAR Ca2d0
ENCODING 41680
SWIDTH 1000 0
DWIDTH 34 0
BBX 34 34 0 -5
BITMAP
0000000000
0000000000
0000000000
0000000000
0000000000
07FFFFF800
07FFFFF800
07FFFFF800
0000001800
0000001800
0000001800
0000001800
0000001800
0000001800
0000001800
0000001800
07FFFFF800
07FFFFF800
07FFFFF800
0000001800
0000001800
0000001800
0000001800
0000001800
0000001800
0000001800
0000001800
07FFFFF800
07FFFFF800
07FFFFF800
0000000000
0000000000
0000000000
0000000000
ENDCHAR

STARTCHAR Ca2d1
ENCODING 41681
SWIDTH 1000 0
DWIDTH 34 0
BBX 34 34 0 -5
BITMAP
0000000000
0000000000
0000000000
0000000000
0000000000
0000000000
0000000000
0000000000
0000000000
0000000000
0000000000
0000000000
0000000000
0000000000
0000000000
0000000000
0000000000
0000000000
0000000000
0000000000
0000000000
0000000000
0000000000
0000000000
0000000000
0000000000
0000000000
0000000000
0000000000
0000000000
0000000000
0000000000
0000000000
0000000000
ENDCHAR

STARTCHAR Ca2d2
ENCODING 41682
SWIDTH 1000 0
DWIDTH 34 0
BBX 34 34 0 -5
BITMAP
0000000000
0000000000
0000000000
0000000000
0000000000
0000000000
0000000000
0000000000
0000000000
0000000000
0000000000
0000000000
0000000000
0000000000
0000000000
0000000000
0000000000
0000000000
0000000000
0000000000
0000000000
0000000000
0000000000
0000000000
0000000000
0000000000
0000000000
0000000000
0000000000
0000000000
0000000000
0000000000
0000000000
0000000000
ENDCHAR

STARTCHAR Ca2d3
ENCODING 41683
SWIDTH 1000 0
DWIDTH 34 0
BBX 34 34 0 -5
BITMAP
0000000000
0000000000
0000000000
0000000000
0000000000
0000000000
0000000000
0000000000
0000000000
0000000000
0000000000
0000000000
0000000000
0000000000
0000000000
0000000000
0000000000
0000000000
0000000000
0000000000
0000000000
0000000000
0000000000
0000000000
0000000000
0000000000
0000000000
0000000000
0000000000
0000000000
0000000000
0000000000
0000000000
0000000000
ENDCHAR

STARTCHAR Ca2d4
ENCODING 41684
SWIDTH 1000 0
DWIDTH 34 0
BBX 34 34 0 -5
BITMAP
0000000000
0000000000
0000000000
0000000000
0000000000
0000000000
0000000000
0000000000
0000000000
0000000000
0000000000
0000000000
0000000000
0000000000
0000000000
0000000000
0000000000
0000000000
0000000000
0000000000
0000000000
0000000000
0000000000
0000000000
0000000000
0000000000
0000000000
0000000000
0000000000
0000000000
0000000000
0000000000
0000000000
0000000000
ENDCHAR

STARTCHAR Ca2d5
ENCODING 41685
SWIDTH 1000 0
DWIDTH 34 0
BBX 34 34 0 -5
BITMAP
0000000000
0000000000
0000000000
0000000000
0000000000
0000000000
0000000000
0000000000
0000000000
0000000000
0000000000
0000000000
0000000000
0000000000
0000000000
0000000000
0000000000
0000000000
0000000000
0000000000
0000000000
0000000000
0000000000
0000000000
0000000000
0000000000
0000000000
0000000000
0000000000
0000000000
0000000000
0000000000
0000000000
0000000000
ENDCHAR

STARTCHAR Ca2d6
ENCODING 41686
SWIDTH 1000 0
DWIDTH 34 0
BBX 34 34 0 -5
BITMAP
0000000000
0000000000
0000000000
0000000000
0000000000
0000000000
0000000000
0000000000
0000000000
0000000000
0000000000
0000000000
0000000000
0000000000
0000000000
0000000000
0000000000
0000000000
0000000000
0000000000
0000000000
0000000000
0000000000
0000000000
0000000000
0000000000
0000000000
0000000000
0000000000
0000000000
0000000000
0000000000
0000000000
0000000000
ENDCHAR

STARTCHAR Ca2d7
ENCODING 41687
SWIDTH 1000 0
DWIDTH 34 0
BBX 34 34 0 -5
BITMAP
0000000000
0000000000
0000000000
0000000000
0000000000
0000000000
0000000000
0000000000
0000000000
0000000000
0000000000
0000000000
0000000000
0000000000
0000000000
0000000000
0000000000
0000000000
0000000000
0000000000
0000000000
0000000000
0000000000
0000000000
0000000000
0000000000
0000000000
0000000000
0000000000
0000000000
0000000000
0000000000
0000000000
0000000000
ENDCHAR

STARTCHAR Ca2d8
ENCODING 41688
SWIDTH 1000 0
DWIDTH 34 0
BBX 34 34 0 -5
BITMAP
0000000000
0000000000
0000000000
0000000000
0000000000
0000000000
0000000000
0000000000
0000000000
0000000000
0000000000
0000000000
0000000000
0000000000
0000000000
0000000000
0000000000
0000000000
0000000000
0000000000
0000000000
0000000000
0000000000
0000000000
0000000000
0000000000
0000000000
0000000000
0000000000
0000000000
0000000000
0000000000
0000000000
0000000000
ENDCHAR

STARTCHAR Ca2d9
ENCODING 41689
SWIDTH 1000 0
DWIDTH 34 0
BBX 34 34 0 -5
BITMAP
0000000000
0000000000
0000000000
0000000000
0000000000
0000000000
0000000000
0000000000
0000000000
0000000000
0000000000
0000000000
0000000000
0000000000
0000000000
0000000000
0000000000
0000000000
0000000000
0000000000
0000000000
0000000000
0000000000
0000000000
0000000000
0000000000
0000000000
0000000000
0000000000
0000000000
0000000000
0000000000
0000000000
0000000000
ENDCHAR

STARTCHAR Ca2da
ENCODING 41690
SWIDTH 1000 0
DWIDTH 34 0
BBX 34 34 0 -5
BITMAP
0000000000
0000000000
0000000000
0000000000
0000000000
0000000000
0000000000
0000000000
0000000000
0000000000
0000000000
0000000000
0000000000
0000000000
0000000000
0000000000
0000000000
0000000000
0000000000
0000000000
0000000000
0000000000
0000000000
0000000000
0000000000
0000000000
0000000000
0000000000
0000000000
0000000000
0000000000
0000000000
0000000000
0000000000
ENDCHAR

STARTCHAR Ca2db
ENCODING 41691
SWIDTH 1000 0
DWIDTH 34 0
BBX 34 34 0 -5
BITMAP
0000000000
0000000000
0000000000
0000000000
0000000000
0000000000
0000000000
0000000000
0000000000
0000000000
0000000000
0000000000
0000000000
0000000000
0000000000
0000000000
0000000000
0000000000
0000000000
0000000000
0000000000
0000000000
0000000000
0000000000
0000000000
0000000000
0000000000
0000000000
0000000000
0000000000
0000000000
0000000000
0000000000
0000000000
ENDCHAR

STARTCHAR Ca2dc
ENCODING 41692
SWIDTH 1000 0
DWIDTH 34 0
BBX 34 34 0 -5
BITMAP
0000000000
0000000000
0000000000
0000000400
0000000E00
0000001C00
0000003800
0000007000
000000E000
000001E000
000003C000
0000078000
00000F0000
00001E0000
00003C0000
0000780000
0000F00000
0001E00000
0003C00000
0007800000
000F000000
001E000000
003C000000
0078000000
00F0000000
01E0000000
03C0000000
07FFFFFE00
0FFFFFFE00
1FFFFFFE00
0000000000
0000000000
0000000000
0000000000
ENDCHAR

STARTCHAR Ca2dd
ENCODING 41693
SWIDTH 1000 0
DWIDTH 34 0
BBX 34 34 0 -5
BITMAP
0000000000
0000000000
0000000000
0000E00000
0000E00000
0000E00000
0000E00000
0000E00000
0000E00000
0000E00000
0000E00000
0000E00000
0000E00000
0000E00000
0000E00000
0000E00000
0000E00000
0000E00000
0000E00000
0000E00000
0000E00000
0000E00000
0000E00000
0000E00000
0000E00000
0000E00000
0000E00000
1FFFFFFF00
1FFFFFFF00
1FFFFFFF00
0000000000
0000000000
0000000000
0000000000
ENDCHAR

STARTCHAR Ca2de
ENCODING 41694
SWIDTH 1000 0
DWIDTH 34 0
BBX 34 34 0 -5
BITMAP
0000000000
0000000000
0000000000
003FFF8000
01FFFFF000
07F803FC00
1F00001F00
3C00000700
3000000100
2000000000
0000000000
0000000000
0000000000
0000000000
0000000000
0000000000
0000000000
0000000000
0000000000
0000000000
0000000000
0000000000
0000000000
0000000000
0000000000
0000000000
0000000000
0000000000
0000000000
0000000000
0000000000
0000000000
0000000000
0000000000
ENDCHAR

STARTCHAR Ca2df
ENCODING 41695
SWIDTH 1000 0
DWIDTH 34 0
BBX 34 34 0 -5
BITMAP
0000000000
0000000000
0000000000
0000000000
0003F00000
000FF80000
001FFC0000
000E1E0000
00040E0000
00000F0000
0000070000
0000070000
0000070000
0000078000
0003E78000
000FF78000
001FFF8000
003C1F0000
00780F0000
00780F0000
00F00F0000
00F00F0000
00F00E0000
00F00E0000
00F01E0000
00F01C0000
00703C0000
0078780000
003FF00000
001FE00000
000FC00000
0000000000
0000000000
0000000000
ENDCHAR

STARTCHAR Ca2e0
ENCODING 41696
SWIDTH 1000 0
DWIDTH 34 0
BBX 34 34 0 -5
BITMAP
0000000000
0000000000
0000000000
0000000000
0000000000
0FFFFFFE00
07FFFFFC00
07FFFFFC00
0380003800
0380003800
01C0007000
01C0007000
00E000E000
00E000E000
007001C000
007003C000
0038038000
0038078000
001C070000
000E0E0000
000E0E0000
00071C0000
00071C0000
0003B80000
0003B80000
0001F00000
0001F00000
0000E00000
0000E00000
0000400000
0000400000
0000000000
0000000000
0000000000
ENDCHAR

STARTCHAR Ca2e1
ENCODING 41697
SWIDTH 1000 0
DWIDTH 34 0
BBX 34 34 0 -5
BITMAP
0000000000
0000000000
0000000000
0000000000
0000000000
0000000000
0000000000
0000000000
03FFFFF800
03FFFFF800
03FFFFF800
0000000000
0000000000
0000000000
0000000000
0000000000
03FFFFF800
03FFFFF800
03FFFFF800
0000000000
0000000000
0000000000
0000000000
0000000000
03FFFFF800
03FFFFF800
03FFFFF800
0000000000
0000000000
0000000000
0000000000
0000000000
0000000000
0000000000
ENDCHAR

STARTCHAR Ca2e2
ENCODING 41698
SWIDTH 1000 0
DWIDTH 34 0
BBX 34 34 0 -5
BITMAP
0000000000
0000000000
0000000000
0000000000
0000000000
0000000000
001C000000
003E000000
003E000000
001C000000
0000000000
0000000000
03FFFFF800
03FFFFF800
03FFFFF800
0000000000
0000000000
0000000000
0000000000
0000000000
03FFFFF800
03FFFFF800
03FFFFF800
0000000000
0000000000
0000070000
00000F8000
00000F8000
0000070000
0000000000
0000000000
0000000000
0000000000
0000000000
ENDCHAR

STARTCHAR Ca2e3
ENCODING 41699
SWIDTH 1000 0
DWIDTH 34 0
BBX 34 34 0 -5
BITMAP
0000000000
0000000000
0000000200
00003C1C00
0000783800
0000F07000
0001E0E000
0003C1C000
0007838000
000F070000
001E0E0000
003C1C0000
0078380000
00F0700000
01E0E00000
03C1C00000
0783800000
0F07000000
0783800000
03C1C00000
01E0E00000
00F0700000
0078380000
003C1C0000
001E0E0000
000F070000
0007838000
0003C1C000
0001E0E000
0000F07000
0000783800
00003C1E00
0000000000
0000000000
ENDCHAR

STARTCHAR Ca2e4
ENCODING 41700
SWIDTH 1000 0
DWIDTH 34 0
BBX 34 34 0 -5
BITMAP
0000000000
0000000000
0800000000
0707800000
0383C00000
01C1E00000
00E0F00000
0070780000
00383C0000
001C1E0000
000E0F0000
0007078000
000383C000
0001C1E000
0000E0F000
0000707800
0000383C00
00001C1E00
0000383C00
0000707800
0000E0F000
0001C1E000
000383C000
0007078000
000E0F0000
001C1E0000
00383C0000
0070780000
00E0F00000
01C1E00000
0383C00000
0F0F800000
0000000000
0000000000
ENDCHAR

STARTCHAR Ca2e5
ENCODING 41701
SWIDTH 1000 0
DWIDTH 34 0
BBX 34 34 0 -5
BITMAP
0000000000
00001FFF40
00001FFF40
0000180000
0000380000
0000380000
0000300000
0000700000
0000700000
0000600000
0000E00000
0000E00000
0000C00000
0001C00000
0001C00000
0003800000
0203800000
0303000000
0707000000
0787000000
07C6000000
0FCE000000
0FEE000000
0DEC000000
1DFC000000
18FC000000
18F8000000
0878000000
0078000000
0030000000
0030000000
0010000000
0000000000
0000000000
ENDCHAR

STARTCHAR Ca2e6
ENCODING 41702
SWIDTH 1000 0
DWIDTH 34 0
BBX 34 34 0 -5
BITMAP
0000000000
0000000000
0000000000
0000000000
0000000000
0000000000
0000000000
0000000000
0000000000
0000000000
0000000000
01F803F000
03FE0FF800
079C1F3C00
0E043C0E00
0C00380600
0C00700700
1C00E00700
0C01C00700
0C03C00600
0E07820E00
079F0F3E00
03FE07FC00
01F803F000
0000000000
0000000000
0000000000
0000000000
0000000000
0000000000
0000000000
0000000000
0000000000
0000000000
ENDCHAR

STARTCHAR Ca2e7
ENCODING 41703
SWIDTH 1000 0
DWIDTH 34 0
BBX 34 34 0 -5
BITMAP
0000000000
0000000000
0000000000
0000000000
0000000000
0000000000
0000000000
0000000000
0000000000
0000000000
0000000000
01F803E000
03FE0FF800
079F1F3C00
0E07BC0E00
0E03F00C00
0C01F00000
0C00E00000
0C01F00000
0E01F80C00
0E07BC0E00
079F1F3C00
03FE0FF800
01F803F000
0000000000
0000000000
0000000000
0000000000
0000000000
0000000000
0000000000
0000000000
0000000000
0000000000
ENDCHAR

STARTCHAR Ca2e8
ENCODING 41704
SWIDTH 1000 0
DWIDTH 34 0
BBX 34 34 0 -5
BITMAP
0000000000
0000000000
0000000000
0000000000
0000000000
0000000000
0000000000
0040004000
01E000F000
01F001F000
01F001F000
00E000E000
0000000000
0000000000
0000000000
0000000000
0000000000
0000000000
0000000000
0000000000
0000000000
0000000000
0000000000
0000000000
0000E00000
0001F00000
0001F00000
0001F00000
0000400000
0000000000
0000000000
0000000000
0000000000
0000000000
ENDCHAR

STARTCHAR Ca2e9
ENCODING 41705
SWIDTH 1000 0
DWIDTH 34 0
BBX 34 34 0 -5
BITMAP
0000000000
0000000000
0000000000
00001F0000
00003F8000
00003B8000
000071C000
000071C000
0000700000
0000700000
0000700000
0000700000
0000600000
0000E00000
0000E00000
0000E00000
0000E00000
0000E00000
0000E00000
0000E00000
0000E00000
0000E00000
0000E00000
0001C00000
0001C00000
0001C00000
0001C00000
0071C00000
0071C00000
007B800000
003F800000
001F000000
0000000000
0000000000
ENDCHAR

STARTCHAR Ca2ea
ENCODING 41706
SWIDTH 1000 0
DWIDTH 34 0
BBX 34 34 0 -5
BITMAP
0000000000
0000000000
0000000000
0007E07C00
0007E0FE00
000E71CE00
000E71CE00
000E71CE00
000C01C000
001C018000
001C038000
001C038000
001C038000
001C038000
001C038000
001C038000
001C038000
0018038000
0038038000
0038030000
0038070000
0038070000
0038070000
0038070000
0038070000
0038070000
1038070000
0E71C60000
0E71CE0000
0EF1CE0000
0FE0FC0000
07C0FC0000
0000000000
0000000000
ENDCHAR

STARTCHAR Ca2eb
ENCODING 41707
SWIDTH 1000 0
DWIDTH 34 0
BBX 34 34 0 -5
BITMAP
0000000000
0000000000
0000000000
0000000000
0000000000
0000000000
0000000000
0000000000
0000000000
0000000000
0000000000
0000000000
0000000000
0000000000
0000000000
0000000000
0000000000
0000000000
0000000000
0000000000
0000000000
0000000000
0000000000
0000000000
0000000000
0000000000
0000000000
0000000000
0000000000
0000000000
0000000000
0000000000
0000000000
0000000000
ENDCHAR

STARTCHAR Ca2ec
ENCODING 41708
SWIDTH 1000 0
DWIDTH 34 0
BBX 34 34 0 -5
BITMAP
0000000000
0000000000
0000000000
0000000000
0000000000
0000000000
0000000000
0000000000
0000000000
0000000000
0000000000
0000000000
0000000000
0000000000
0000000000
0000000000
0000000000
0000000000
0000000000
0000000000
0000000000
0000000000
0000000000
0000000000
0000000000
0000000000
0000000000
0000000000
0000000000
0000000000
0000000000
0000000000
0000000000
0000000000
ENDCHAR

STARTCHAR Ca2ed
ENCODING 41709
SWIDTH 1000 0
DWIDTH 34 0
BBX 34 34 0 -5
BITMAP
0000000000
0000000000
0000000000
0000000000
0000000000
0000000000
0000000000
0000000000
0000000000
0000000000
0000000000
0000000000
0000000000
0000000000
0000000000
0000000000
0000000000
0000000000
0000000000
0000000000
0000000000
0000000000
0000000000
0000000000
0000000000
0000000000
0000000000
0000000000
0000000000
0000000000
0000000000
0000000000
0000000000
0000000000
ENDCHAR

STARTCHAR Ca2ee
ENCODING 41710
SWIDTH 1000 0
DWIDTH 34 0
BBX 34 34 0 -5
BITMAP
0000000000
0000000000
0000000000
0000000000
0000000000
0000000000
0000000000
0000000000
0000000000
0000000000
0000000000
0000000000
0000000000
0000000000
0000000000
0000000000
0000000000
0000000000
0000000000
0000000000
0000000000
0000000000
0000000000
0000000000
0000000000
0000000000
0000000000
0000000000
0000000000
0000000000
0000000000
0000000000
0000000000
0000000000
ENDCHAR

STARTCHAR Ca2ef
ENCODING 41711
SWIDTH 1000 0
DWIDTH 34 0
BBX 34 34 0 -5
BITMAP
0000000000
0000000000
0000000000
0000000000
0000000000
0000000000
0000000000
0000000000
0000000000
0000000000
0000000000
0000000000
0000000000
0000000000
0000000000
0000000000
0000000000
0000000000
0000000000
0000000000
0000000000
0000000000
0000000000
0000000000
0000000000
0000000000
0000000000
0000000000
0000000000
0000000000
0000000000
0000000000
0000000000
0000000000
ENDCHAR

STARTCHAR Ca2f0
ENCODING 41712
SWIDTH 1000 0
DWIDTH 34 0
BBX 34 34 0 -5
BITMAP
0000000000
0000000000
0000000000
0000000000
0000000000
0000000000
0000000000
0000000000
0000000000
0000000000
0000000000
0000000000
0000000000
0000000000
0000000000
0000000000
0000000000
0000000000
0000000000
0000000000
0000000000
0000000000
0000000000
0000000000
0000000000
0000000000
0000000000
0000000000
0000000000
0000000000
0000000000
0000000000
0000000000
0000000000
ENDCHAR

STARTCHAR Ca2f1
ENCODING 41713
SWIDTH 1000 0
DWIDTH 34 0
BBX 34 34 0 -5
BITMAP
0000000000
0000000000
0000000000
0000000000
0000000000
0000000000
0000000000
0000000000
0000000000
0000000000
0000000000
0000000000
0000000000
0000000000
0000000000
0000000000
0000000000
0000000000
0000000000
0000000000
0000000000
0000000000
0000000000
0000000000
0000000000
0000000000
0000000000
0000000000
0000000000
0000000000
0000000000
0000000000
0000000000
0000000000
ENDCHAR

STARTCHAR Ca2f2
ENCODING 41714
SWIDTH 1000 0
DWIDTH 34 0
BBX 34 34 0 -5
BITMAP
0000000000
0000000000
0000E00000
0001F00000
0003180000
0003180000
0003180000
0001F00000
0000E00000
0000000000
0001F00000
0001F80000
0003F80000
0007BC0000
0007BC0000
000F1E0000
000F1E0000
001E0F0000
001E0F0000
003C078000
003FFF8000
007FFFC000
007FFFC000
00F803E000
00F001E000
01F001F000
01E000F000
03E000F800
07C0007C00
0000000000
0000000000
0000000000
0000000000
0000000000
ENDCHAR

STARTCHAR Ca2f3
ENCODING 41715
SWIDTH 1000 0
DWIDTH 34 0
BBX 34 34 0 -5
BITMAP
0000000000
0000000000
0000010000
00000E0000
00000C0000
07C01C0000
0FE0380000
1CE0300000
1CE0700000
1C60600000
1C60E00000
1C61C00000
1C61800000
1CE3800000
1CE7000000
0FE6000000
0FCE000000
031C000000
0019F07C00
003BF87E00
003738E700
007718E700
00E718C700
00C71DC700
01C71DC700
03871CC700
030718C700
070738E700
0E03F8FE00
0C03F07E00
1C00E03800
3800000000
0000000000
0000000000
ENDCHAR

STARTCHAR Ca2f4
ENCODING 41716
SWIDTH 1000 0
DWIDTH 34 0
BBX 34 34 0 -5
BITMAP
0000000000
0000000000
0000000000
0000070000
001C070000
001C070000
001C070000
001C070000
001C070000
001C077800
001FFFF800
03FFFFF800
03FFFFF000
03FF070000
001C070000
001C070000
001C070000
001C070000
001C070000
001C070000
001C070000
001C1FF800
03FFFFF800
03FFFFF800
03FFFF0000
03DC070000
001C070000
001C070000
001C070000
001C070000
001C070000
001C000000
0000000000
0000000000
ENDCHAR

STARTCHAR Ca2f5
ENCODING 41717
SWIDTH 1000 0
DWIDTH 34 0
BBX 34 34 0 -5
BITMAP
0000000000
0000000000
0000000000
000E000000
000E000000
000E000000
000E000000
000E000000
000E000000
000E000000
000E000000
000E000000
000E000000
000E000000
000E1E0000
000E7F8000
000FFF8000
000FC7C000
000F03C000
000E03C000
000E03C000
000E03C000
000E03C000
000E078000
000E0F8000
000E1F0000
000E3E0000
000E7C0000
000FF80000
000FE00000
000F800000
000C000000
0000000000
0000000000
ENDCHAR

STARTCHAR Ca2f6
ENCODING 41718
SWIDTH 1000 0
DWIDTH 34 0
BBX 34 34 0 -5
BITMAP
0000000000
0000000000
0000000000
0000800000
0000C00000
0000E00000
0000F80000
0000FC0000
0000FF0000
0000FF8000
0000CFE000
0000C7F000
0000C3F800
0000C0F800
0000C07800
0000C03C00
0000C03C00
0000C03C00
0000C03800
0000C03800
0000C07000
0000C07000
0000C0E000
0000C1C000
001EC08000
007FC00000
00FFC00000
00FFC00000
01FFC00000
00FF800000
00FF000000
003C000000
0000000000
0000000000
ENDCHAR

STARTCHAR Ca2f7
ENCODING 41719
SWIDTH 1000 0
DWIDTH 34 0
BBX 34 34 0 -5
BITMAP
0000000000
0000000000
0000000000
0000E00000
0001F00000
0001F00000
0001F00000
0001F00000
0000E00000
0038E38000
007EFFC000
007FFFC000
007FFFC000
003ECF8000
0000E00000
0000E00000
0001F00000
0001F00000
0001F00000
0000E00000
0000E00000
0000E00000
0000E00000
0000E00000
0000E00000
0000E00000
0000C00000
0000C00000
0000C00000
0000C00000
0000400000
0000400000
0000000000
0000000000
ENDCHAR

STARTCHAR Ca2f8
ENCODING 41720
SWIDTH 1000 0
DWIDTH 34 0
BBX 34 34 0 -5
BITMAP
0000000000
0000000000
0000E00000
0001F00000
0001F00000
0000E00000
000CE60000
001F5F0000
003FFF8000
001F5F0000
0008E20000
0001F00000
0000F00000
0000E00000
0000E00000
0000E00000
0000600000
0000600000
0000600000
0000600000
0000E00000
0000E00000
0000E00000
0001F00000
0000E00000
001F5F0000
003FFF8000
001FFF0000
001CE70000
0000E00000
0001F00000
0001F00000
0000E00000
0000000000
ENDCHAR

STARTCHAR Ca2f9
ENCODING 41721
SWIDTH 1000 0
DWIDTH 34 0
BBX 34 34 0 -5
BITMAP
0000000000
0000000000
0000000000
000FFC0000
001FFC0000
003F8C0000
007F8C0000
007F8C0000
007F8C0000
007F8C0000
007F8C0000
003F8C0000
003F8C0000
001F8C0000
00078C0000
00018C0000
00018C0000
00018C0000
00018C0000
00018C0000
00018C0000
00018C0000
00018C0000
00018C0000
00018C0000
00018C0000
00018C0000
00018C0000
00018C0000
00018C0000
00018C0000
00018C0000
0000000000
0000000000
ENDCHAR

STARTCHAR Ca2fa
ENCODING 41722
SWIDTH 1000 0
DWIDTH 34 0
BBX 34 34 0 -5
BITMAP
0000000000
0000000000
0000000000
0000000000
0000000000
0000000000
0000000000
0000000000
0000000000
0000000000
0000000000
0000000000
0000000000
0000000000
0000000000
0000000000
0000000000
0000000000
0000000000
0000000000
0000000000
0000000000
0000000000
0000000000
0000000000
0000000000
0000000000
0000000000
0000000000
0000000000
0000000000
0000000000
0000000000
0000000000
ENDCHAR

STARTCHAR Ca2fb
ENCODING 41723
SWIDTH 1000 0
DWIDTH 34 0
BBX 34 34 0 -5
BITMAP
0000000000
0000000000
0000000000
0000000000
0000000000
0000000000
0000000000
0000000000
0000000000
0000000000
0000000000
0000000000
0000000000
0000000000
0000000000
0000000000
0000000000
0000000000
0000000000
0000000000
0000000000
0000000000
0000000000
0000000000
0000000000
0000000000
0000000000
0000000000
0000000000
0000000000
0000000000
0000000000
0000000000
0000000000
ENDCHAR

STARTCHAR Ca2fc
ENCODING 41724
SWIDTH 1000 0
DWIDTH 34 0
BBX 34 34 0 -5
BITMAP
0000000000
0000000000
0000000000
0000000000
0000000000
0000000000
0000000000
0000000000
0000000000
0000000000
0000000000
0000000000
0000000000
0000000000
0000000000
0000000000
0000000000
0000000000
0000000000
0000000000
0000000000
0000000000
0000000000
0000000000
0000000000
0000000000
0000000000
0000000000
0000000000
0000000000
0000000000
0000000000
0000000000
0000000000
ENDCHAR

STARTCHAR Ca2fd
ENCODING 41725
SWIDTH 1000 0
DWIDTH 34 0
BBX 34 34 0 -5
BITMAP
0000000000
0000000000
0000000000
0000000000
0000000000
0000000000
0000000000
0000000000
0000000000
0000000000
0000000000
0000000000
0000000000
0000000000
0000000000
0000000000
0000000000
0000000000
0000000000
0000000000
0000000000
0000000000
0000000000
0000000000
0000000000
0000000000
0000000000
0000000000
0000000000
0000000000
0000000000
0000000000
0000000000
0000000000
ENDCHAR

STARTCHAR Ca2fe
ENCODING 41726
SWIDTH 1000 0
DWIDTH 34 0
BBX 34 34 0 -5
BITMAP
0000000000
0000000000
0007FC0000
003FFF8000
007803C000
01E000F000
0380007800
0700001C00
0600000C00
0C00000E00
1C00000700
1800000300
1800000300
3000000100
3000000100
3000000100
3000000100
3000000100
3000000100
3000000100
3000000100
3000000100
1800000300
1800000300
1C00000700
0C00000600
0600000C00
0700001C00
0380003800
01E000F000
007803C000
003FFF8000
0007FC0000
0000000000
ENDCHAR

STARTCHAR Ca3a2
ENCODING 41890
SWIDTH 1000 0
DWIDTH 34 0
BBX 34 34 0 -5
BITMAP
0000000000
0000000000
0000000000
0000000000
0000000000
0000000000
0000000000
0000000000
0000000000
0000000000
0000000000
0000000000
0000000000
0000000000
0000000000
0000000000
0000000000
0000000000
0000000000
0000000000
0000000000
0000000000
0000000000
0000000000
0000000000
0000000000
0000000000
0000000000
0000000000
0000000000
0000000000
0000000000
0000000000
0000000000
ENDCHAR

STARTCHAR Ca3a3
ENCODING 41891
SWIDTH 1000 0
DWIDTH 34 0
BBX 34 34 0 -5
BITMAP
0000000000
0000000000
0000000000
0000000000
0000000000
0000000000
0000000000
0000000000
0000000000
0000000000
0000000000
0000000000
0000000000
0000000000
0000000000
0000000000
0000000000
0000000000
0000000000
0000000000
0000000000
0000000000
0000000000
0000000000
0000000000
0000000000
0000000000
0000000000
0000000000
0000000000
0000000000
0000000000
0000000000
0000000000
ENDCHAR

STARTCHAR Ca3a4
ENCODING 41892
SWIDTH 1000 0
DWIDTH 34 0
BBX 34 34 0 -5
BITMAP
0000000000
0000000000
0000000000
0000000000
0000000000
0000000000
0000000000
0000000000
0000000000
0000000000
0000000000
0000000000
0000000000
0000000000
0000000000
0000000000
0000000000
0000000000
0000000000
0000000000
0000000000
0000000000
0000000000
0000000000
0000000000
0000000000
0000000000
0000000000
0000000000
0000000000
0000000000
0000000000
0000000000
0000000000
ENDCHAR

STARTCHAR Ca3a5
ENCODING 41893
SWIDTH 1000 0
DWIDTH 34 0
BBX 34 34 0 -5
BITMAP
0000000000
0000000000
0000000000
0000000000
0000000000
0000000000
0000000000
0000000000
0000000000
0000000000
0000000000
0000000000
0000000000
0000000000
0000000000
0000000000
0000000000
0000000000
0000000000
0000000000
0000000000
0000000000
0000000000
0000000000
0000000000
0000000000
0000000000
0000000000
0000000000
0000000000
0000000000
0000000000
0000000000
0000000000
ENDCHAR

STARTCHAR Ca3a6
ENCODING 41894
SWIDTH 1000 0
DWIDTH 34 0
BBX 34 34 0 -5
BITMAP
0000000000
0000000000
0000000000
0000000000
0000000000
0000000000
0000000000
0000000000
0000000000
0000000000
0000000000
0000000000
0000000000
0000000000
0000000000
0000000000
0000000000
0000000000
0000000000
0000000000
0000000000
0000000000
0000000000
0000000000
0000000000
0000000000
0000000000
0000000000
0000000000
0000000000
0000000000
0000000000
0000000000
0000000000
ENDCHAR

STARTCHAR Ca3a7
ENCODING 41895
SWIDTH 1000 0
DWIDTH 34 0
BBX 34 34 0 -5
BITMAP
0000000000
0000000000
0000000000
0000000000
0000000000
0000000000
0000000000
0000000000
0000000000
0000000000
0000000000
0000000000
0000000000
0000000000
0000000000
0000000000
0000000000
0000000000
0000000000
0000000000
0000000000
0000000000
0000000000
0000000000
0000000000
0000000000
0000000000
0000000000
0000000000
0000000000
0000000000
0000000000
0000000000
0000000000
ENDCHAR

STARTCHAR Ca3a8
ENCODING 41896
SWIDTH 1000 0
DWIDTH 34 0
BBX 34 34 0 -5
BITMAP
0000000000
0000000000
0000000000
0000000000
0000000000
0000000000
0000000000
0000000000
0000000000
0000000000
0000000000
0000000000
0000000000
0000000000
0000000000
0000000000
0000000000
0000000000
0000000000
0000000000
0000000000
0000000000
0000000000
0000000000
0000000000
0000000000
0000000000
0000000000
0000000000
0000000000
0000000000
0000000000
0000000000
0000000000
ENDCHAR

STARTCHAR Ca3a9
ENCODING 41897
SWIDTH 1000 0
DWIDTH 34 0
BBX 34 34 0 -5
BITMAP
0000000000
0000000000
0000000000
0000000000
0000000000
0000000000
0000000000
0000000000
0000000000
0000000000
0000000000
0000000000
0000000000
0000000000
0000000000
0000000000
0000000000
0000000000
0000000000
0000000000
0000000000
0000000000
0000000000
0000000000
0000000000
0000000000
0000000000
0000000000
0000000000
0000000000
0000000000
0000000000
0000000000
0000000000
ENDCHAR

STARTCHAR Ca3aa
ENCODING 41898
SWIDTH 1000 0
DWIDTH 34 0
BBX 34 34 0 -5
BITMAP
0000000000
0000000000
0000000000
0000000000
0000000000
0000000000
0000000000
0000000000
0000000000
0000000000
0000000000
0000000000
0000000000
0000000000
0000000000
0000000000
0000000000
0000000000
0000000000
0000000000
0000000000
0000000000
0000000000
0000000000
0000000000
0000000000
0000000000
0000000000
0000000000
0000000000
0000000000
0000000000
0000000000
0000000000
ENDCHAR

STARTCHAR Ca3ab
ENCODING 41899
SWIDTH 1000 0
DWIDTH 34 0
BBX 34 34 0 -5
BITMAP
0000000000
0000000000
0000000000
0000000000
0000000000
0000000000
0000000000
0000000000
0000000000
0000000000
0000000000
0000000000
0000000000
0000000000
0000000000
0000000000
0000000000
0000000000
0000000000
0000000000
0000000000
0000000000
0000000000
0000000000
0000000000
0000000000
0000000000
0000000000
0000000000
0000000000
0000000000
0000000000
0000000000
0000000000
ENDCHAR

STARTCHAR Ca3ac
ENCODING 41900
SWIDTH 1000 0
DWIDTH 34 0
BBX 34 34 0 -5
BITMAP
0000000000
0000000000
0000000000
0000000000
0000000000
0000000000
0000000000
0000000000
0000000000
0000000000
0000000000
0000000000
0000000000
0000000000
0000000000
0000000000
0000000000
0000000000
0000000000
0000000000
0000000000
0000000000
0000000000
0000000000
0000000000
0000000000
0000000000
0000000000
0000000000
0000000000
0000000000
0000000000
0000000000
0000000000
ENDCHAR

STARTCHAR Ca3ad
ENCODING 41901
SWIDTH 1000 0
DWIDTH 34 0
BBX 34 34 0 -5
BITMAP
0000000000
0000000000
0000000000
0000000000
0000000000
0000000000
0000000000
0000000000
0000000000
0000000000
0000000000
0000000000
0000000000
0000000000
0000000000
0000000000
0000000000
0000000000
0000000000
0000000000
0000000000
0000000000
0000000000
0000000000
0000000000
0000000000
0000000000
0000000000
0000000000
0000000000
0000000000
0000000000
0000000000
0000000000
ENDCHAR

STARTCHAR Ca3ae
ENCODING 41902
SWIDTH 1000 0
DWIDTH 34 0
BBX 34 34 0 -5
BITMAP
0000000000
0000000000
0000000000
0000000000
0000000000
0000000000
0000000000
0000000000
0000000000
0000000000
0000000000
0000000000
0000000000
0000000000
0000000000
0000000000
0000000000
0000000000
0000000000
0000000000
0000000000
0000000000
0000000000
0000000000
0000000000
0000000000
0000000000
0000000000
0000000000
0000000000
0000000000
0000000000
0000000000
0000000000
ENDCHAR

STARTCHAR Ca3af
ENCODING 41903
SWIDTH 1000 0
DWIDTH 34 0
BBX 34 34 0 -5
BITMAP
0000000000
0000000000
0000000000
0000000000
0000000000
0000000000
0000000000
0000000000
0000000000
0000000000
0000000000
0000000000
0000000000
0000000000
0000000000
0000000000
0000000000
0000000000
0000000000
0000000000
0000000000
0000000000
0000000000
0000000000
0000000000
0000000000
0000000000
0000000000
0000000000
0000000000
0000000000
0000000000
0000000000
0000000000
ENDCHAR

STARTCHAR Ca3b0
ENCODING 41904
SWIDTH 1000 0
DWIDTH 34 0
BBX 34 34 0 -5
BITMAP
0000000000
0000000000
0000000000
0000000000
0000E00000
0007FC0000
000FFE0000
001FFF0000
003E0F8000
003C07C000
007803C000
007803C000
00F001E000
00F001E000
00F001E000
00F001E000
00F001E000
00F001E000
00F001E000
00F001E000
00F001E000
00F803C000
007803C000
007C07C000
003E0F8000
003FBF8000
001FFF0000
000FFE0000
0003F80000
0000000000
0000000000
0000000000
0000000000
0000000000
ENDCHAR

STARTCHAR Ca3b1
ENCODING 41905
SWIDTH 1000 0
DWIDTH 34 0
BBX 34 34 0 -5
BITMAP
0000000000
0000000000
0000000000
0000000000
0000000000
0000F80000
000FF80000
000FF80000
000FF80000
000E780000
0000780000
0000780000
0000780000
0000780000
0000780000
0000780000
0000780000
0000780000
0000780000
0000780000
0000780000
0000780000
0000780000
0000780000
0000780000
0000780000
0000780000
0000780000
0000780000
0000000000
0000000000
0000000000
0000000000
0000000000
ENDCHAR

STARTCHAR Ca3b2
ENCODING 41906
SWIDTH 1000 0
DWIDTH 34 0
BBX 34 34 0 -5
BITMAP
0000000000
0000000000
0000000000
0000000000
0000E00000
0007FC0000
000FFE0000
001FFF0000
003E0F8000
007C078000
007803C000
007803C000
007803C000
007807C000
00000F8000
00001F8000
00007F0000
0000FE0000
0003FC0000
0007F00000
000FC00000
001F000000
001E000000
003C000000
003C000000
007FFFE000
007FFFE000
007FFFE000
007FFFE000
0000000000
0000000000
0000000000
0000000000
0000000000
ENDCHAR

STARTCHAR Ca3b3
ENCODING 41907
SWIDTH 1000 0
DWIDTH 34 0
BBX 34 34 0 -5
BITMAP
0000000000
0000000000
0000000000
0000000000
0000E00000
0007FC0000
001FFF0000
003FFF8000
007C078000
007803C000
007803C000
000003C000
000003C000
0000078000
00003F0000
0007FE0000
0007FE0000
0007FF8000
000007C000
000003C000
000001E000
00F001E000
00F801E000
007803E000
007C07C000
003F9FC000
003FFF8000
000FFF0000
0003FC0000
0000000000
0000000000
0000000000
0000000000
0000000000
ENDCHAR

STARTCHAR Ca3b4
ENCODING 41908
SWIDTH 1000 0
DWIDTH 34 0
BBX 34 34 0 -5
BITMAP
0000000000
0000000000
0000000000
0000000000
0000000000
00007C0000
0000FC0000
0001FC0000
0001FC0000
0003FC0000
0007BC0000
000FBC0000
000F3C0000
001E3C0000
003C3C0000
007C3C0000
00783C0000
00F03C0000
01E03C0000
01E03C0000
01FFFFC000
01FFFFC000
01FFFFC000
00003C0000
00003C0000
00003C0000
00003C0000
00003C0000
00003C0000
0000000000
0000000000
0000000000
0000000000
0000000000
ENDCHAR

STARTCHAR Ca3b5
ENCODING 41909
SWIDTH 1000 0
DWIDTH 34 0
BBX 34 34 0 -5
BITMAP
0000000000
0000000000
0000000000
0000000000
0000000000
003FFF0000
003FFF0000
003FFF0000
003C000000
003C000000
003C000000
003C000000
003C000000
003DFC0000
003FFF0000
003FFF8000
003E0F8000
003C07C000
000003C000
000003C000
000003C000
000003C000
007803C000
007C07C000
003E078000
003FFF8000
001FFF0000
000FFE0000
0003F80000
0000000000
0000000000
0000000000
0000000000
0000000000
ENDCHAR

STARTCHAR Ca3b6
ENCODING 41910
SWIDTH 1000 0
DWIDTH 34 0
BBX 34 34 0 -5
BITMAP
0000000000
0000000000
0000000000
0000000000
0000700000
0003FC0000
000FFF0000
001FFF0000
001F0F8000
003C078000
003C03C000
0078000000
0078000000
0078000000
0079FC0000
007FFF0000
007FFF8000
007E078000
007C03C000
007803C000
007803C000
007803C000
007803C000
003C03C000
003E078000
001F1F8000
000FFF0000
0007FE0000
0001F80000
0000000000
0000000000
0000000000
0000000000
0000000000
ENDCHAR

STARTCHAR Ca3b7
ENCODING 41911
SWIDTH 1000 0
DWIDTH 34 0
BBX 34 34 0 -5
BITMAP
0000000000
0000000000
0000000000
0000000000
0000000000
007FFF8000
007FFF8000
007FFF8000
0000078000
00000F0000
00000F0000
00000E0000
00001E0000
00001E0000
00003C0000
00003C0000
00003C0000
0000780000
0000780000
0000780000
0000F00000
0000F00000
0000F00000
0001E00000
0001E00000
0003E00000
0003C00000
0003C00000
0007C00000
0000000000
0000000000
0000000000
0000000000
0000000000
ENDCHAR

STARTCHAR Ca3b8
ENCODING 41912
SWIDTH 1000 0
DWIDTH 34 0
BBX 34 34 0 -5
BITMAP
0000000000
0000000000
0000000000
0000000000
0000E00000
0007FC0000
001FFF0000
003FBF0000
003C078000
0038078000
0038038000
0038038000
003C078000
003E0F8000
001FFF0000
000FFE0000
0007FC0000
001FFF0000
003E0F8000
007C07C000
007803C000
007803C000
007803C000
007803C000
007C07C000
003F1F8000
003FFF8000
000FFE0000
0003F80000
0000000000
0000000000
0000000000
0000000000
0000000000
ENDCHAR

STARTCHAR Ca3b9
ENCODING 41913
SWIDTH 1000 0
DWIDTH 34 0
BBX 34 34 0 -5
BITMAP
0000000000
0000000000
0000000000
0000000000
0000E00000
0007FC0000
001FFE0000
003FFF0000
003E0F0000
007C078000
0078078000
007803C000
007803C000
007803C000
007807C000
007C0FC000
003F1FC000
001FFFC000
000FFBC000
0003E3C000
000003C000
000003C000
0078078000
007C078000
003C0F8000
003F3F0000
001FFE0000
000FFC0000
0007F00000
0000000000
0000000000
0000000000
0000000000
0000000000
ENDCHAR

STARTCHAR Ca3ba
ENCODING 41914
SWIDTH 1000 0
DWIDTH 34 0
BBX 34 34 0 -5
BITMAP
0000000000
0000000000
0000000000
0000000000
0000000000
0000000000
0000000000
0000000000
0000000000
0000000000
0000000000
0000000000
0000000000
0000000000
0000000000
0000000000
0000000000
0000000000
0000000000
0000000000
0000000000
0000000000
0000000000
0000000000
0000000000
0000000000
0000000000
0000000000
0000000000
0000000000
0000000000
0000000000
0000000000
0000000000
ENDCHAR

STARTCHAR Ca3bb
ENCODING 41915
SWIDTH 1000 0
DWIDTH 34 0
BBX 34 34 0 -5
BITMAP
0000000000
0000000000
0000000000
0000000000
0000000000
0000000000
0000000000
0000000000
0000000000
0000000000
0000000000
0000000000
0000000000
0000000000
0000000000
0000000000
0000000000
0000000000
0000000000
0000000000
0000000000
0000000000
0000000000
0000000000
0000000000
0000000000
0000000000
0000000000
0000000000
0000000000
0000000000
0000000000
0000000000
0000000000
ENDCHAR

STARTCHAR Ca3bc
ENCODING 41916
SWIDTH 1000 0
DWIDTH 34 0
BBX 34 34 0 -5
BITMAP
0000000000
0000000000
0000000000
0000000000
0000000000
0000000000
0000000000
0000000000
0000000000
0000000000
0000000000
0000000000
0000000000
0000000000
0000000000
0000000000
0000000000
0000000000
0000000000
0000000000
0000000000
0000000000
0000000000
0000000000
0000000000
0000000000
0000000000
0000000000
0000000000
0000000000
0000000000
0000000000
0000000000
0000000000
ENDCHAR

STARTCHAR Ca3bd
ENCODING 41917
SWIDTH 1000 0
DWIDTH 34 0
BBX 34 34 0 -5
BITMAP
0000000000
0000000000
0000000000
0000000000
0000000000
0000000000
0000000000
0000000000
0000000000
0000000000
0000000000
0000000000
0000000000
0000000000
0000000000
0000000000
0000000000
0000000000
0000000000
0000000000
0000000000
0000000000
0000000000
0000000000
0000000000
0000000000
0000000000
0000000000
0000000000
0000000000
0000000000
0000000000
0000000000
0000000000
ENDCHAR

STARTCHAR Ca3be
ENCODING 41918
SWIDTH 1000 0
DWIDTH 34 0
BBX 34 34 0 -5
BITMAP
0000000000
0000000000
0000000000
0000000000
0000000000
0000000000
0000000000
0000000000
0000000000
0000000000
0000000000
0000000000
0000000000
0000000000
0000000000
0000000000
0000000000
0000000000
0000000000
0000000000
0000000000
0000000000
0000000000
0000000000
0000000000
0000000000
0000000000
0000000000
0000000000
0000000000
0000000000
0000000000
0000000000
0000000000
ENDCHAR

STARTCHAR Ca3bf
ENCODING 41919
SWIDTH 1000 0
DWIDTH 34 0
BBX 34 34 0 -5
BITMAP
0000000000
0000000000
0000000000
0000000000
0000000000
0000000000
0000000000
0000000000
0000000000
0000000000
0000000000
0000000000
0000000000
0000000000
0000000000
0000000000
0000000000
0000000000
0000000000
0000000000
0000000000
0000000000
0000000000
0000000000
0000000000
0000000000
0000000000
0000000000
0000000000
0000000000
0000000000
0000000000
0000000000
0000000000
ENDCHAR

STARTCHAR Ca3c0
ENCODING 41920
SWIDTH 1000 0
DWIDTH 34 0
BBX 34 34 0 -5
BITMAP
0000000000
0000000000
0000000000
0000000000
0000000000
0000000000
0000000000
0000000000
0000000000
0000000000
0000000000
0000000000
0000000000
0000000000
0000000000
0000000000
0000000000
0000000000
0000000000
0000000000
0000000000
0000000000
0000000000
0000000000
0000000000
0000000000
0000000000
0000000000
0000000000
0000000000
0000000000
0000000000
0000000000
0000000000
ENDCHAR

STARTCHAR Ca3c1
ENCODING 41921
SWIDTH 1000 0
DWIDTH 34 0
BBX 34 34 0 -5
BITMAP
0000000000
0000000000
0000000000
0000000000
0000000000
0001F00000
0003F80000
0003F80000
0007FC0000
0007BC0000
0007BC0000
000F1E0000
000F1E0000
000F1E0000
001E0F0000
001E0F0000
003E0F8000
003C078000
003FFF8000
007FFFC000
007FFFC000
00F803E000
00F001E000
00F001E000
01F001F000
01E000F000
01E000F000
03C000F800
03C0007800
0000000000
0000000000
0000000000
0000000000
0000000000
ENDCHAR

STARTCHAR Ca3c2
ENCODING 41922
SWIDTH 1000 0
DWIDTH 34 0
BBX 34 34 0 -5
BITMAP
0000000000
0000000000
0000000000
0000000000
0000000000
007FFE0000
007FFF8000
007FFFC000
007807E000
007803E000
007801E000
007801E000
007801E000
007803C000
00780FC000
007FFF8000
007FFF0000
007FFFC000
007807E000
007801F000
007800F000
007800F000
007800F000
007801F000
007803F000
007FFFE000
007FFFE000
007FFF8000
007FFC0000
0000000000
0000000000
0000000000
0000000000
0000000000
ENDCHAR

STARTCHAR Ca3c3
ENCODING 41923
SWIDTH 1000 0
DWIDTH 34 0
BBX 34 34 0 -5
BITMAP
0000000000
0000000000
0000000000
0000000000
0000F00000
0007FE0000
001FFF8000
003FFFC000
007E0FC000
00FC03E000
00F803E000
01F001F000
01F0000000
01E0000000
01E0000000
03E0000000
03E0000000
03E0000000
03E0000000
01E0000000
01F000F000
01F001F000
01F801F000
00F803E000
007E07E000
007FFFC000
003FFF8000
000FFF0000
0003FC0000
0000000000
0000000000
0000000000
0000000000
0000000000
ENDCHAR

STARTCHAR Ca3c4
ENCODING 41924
SWIDTH 1000 0
DWIDTH 34 0
BBX 34 34 0 -5
BITMAP
0000000000
0000000000
0000000000
0000000000
0000000000
00FFF80000
00FFFE0000
00FFFF8000
00F01FC000
00F007E000
00F003E000
00F001F000
00F001F000
00F000F000
00F000F000
00F000F800
00F000F800
00F000F800
00F000F800
00F000F000
00F000F000
00F001F000
00F001F000
00F003E000
00F00FC000
00FFFFC000
00FFFF8000
00FFFE0000
00FFF00000
0000000000
0000000000
0000000000
0000000000
0000000000
ENDCHAR

STARTCHAR Ca3c5
ENCODING 41925
SWIDTH 1000 0
DWIDTH 34 0
BBX 34 34 0 -5
BITMAP
0000000000
0000000000
0000000000
0000000000
0000000000
007FFFE000
007FFFE000
007FFFE000
0078000000
0078000000
0078000000
0078000000
0078000000
0078000000
0078000000
007FFF8000
007FFF8000
007FFF8000
0078000000
0078000000
0078000000
0078000000
0078000000
0078000000
0078000000
007FFFE000
007FFFE000
007FFFE000
007FFFE000
0000000000
0000000000
0000000000
0000000000
0000000000
ENDCHAR

STARTCHAR Ca3c6
ENCODING 41926
SWIDTH 1000 0
DWIDTH 34 0
BBX 34 34 0 -5
BITMAP
0000000000
0000000000
0000000000
0000000000
0000000000
007FFFE000
007FFFE000
007FFFE000
0078000000
0078000000
0078000000
0078000000
0078000000
0078000000
0078000000
007FFF8000
007FFF8000
007FFF8000
0078000000
0078000000
0078000000
0078000000
0078000000
0078000000
0078000000
0078000000
0078000000
0078000000
0078000000
0000000000
0000000000
0000000000
0000000000
0000000000
ENDCHAR

STARTCHAR Ca3c7
ENCODING 41927
SWIDTH 1000 0
DWIDTH 34 0
BBX 34 34 0 -5
BITMAP
0000000000
0000000000
0000000000
0000000000
0000F00000
0007FE0000
001FFF8000
003FFFC000
007E07E000
00F803E000
00F001E000
01F001F000
01E0000000
01E0000000
01E0000000
03E0000000
03E0000000
03E01FF000
03E01FF000
01E01FF000
01E000F000
01E000F000
01F001F000
00F803F000
00FC07F000
007F1FF000
003FFF7000
001FFE7000
0007F87000
0000000000
0000000000
0000000000
0000000000
0000000000
ENDCHAR

STARTCHAR Ca3c8
ENCODING 41928
SWIDTH 1000 0
DWIDTH 34 0
BBX 34 34 0 -5
BITMAP
0000000000
0000000000
0000000000
0000000000
0000000000
00F000F000
00F000F000
00F000F000
00F000F000
00F000F000
00F000F000
00F000F000
00F000F000
00F000F000
00F000F000
00FFFFF000
00FFFFF000
00FFFFF000
00F000F000
00F000F000
00F000F000
00F000F000
00F000F000
00F000F000
00F000F000
00F000F000
00F000F000
00F000F000
00F000F000
0000000000
0000000000
0000000000
0000000000
0000000000
ENDCHAR

STARTCHAR Ca3c9
ENCODING 41929
SWIDTH 1000 0
DWIDTH 34 0
BBX 34 34 0 -5
BITMAP
0000000000
0000000000
0000000000
0000000000
0000000000
0001F00000
0001F00000
0001F00000
0001F00000
0001F00000
0001F00000
0001F00000
0001F00000
0001F00000
0001F00000
0001F00000
0001F00000
0001F00000
0001F00000
0001F00000
0001F00000
0001F00000
0001F00000
0001F00000
0001F00000
0001F00000
0001F00000
0001F00000
0001F00000
0000000000
0000000000
0000000000
0000000000
0000000000
ENDCHAR

STARTCHAR Ca3ca
ENCODING 41930
SWIDTH 1000 0
DWIDTH 34 0
BBX 34 34 0 -5
BITMAP
0000000000
0000000000
0000000000
0000000000
0000000000
00001E0000
00001E0000
00001E0000
00001E0000
00001E0000
00001E0000
00001E0000
00001E0000
00001E0000
00001E0000
00001E0000
00001E0000
00001E0000
00001E0000
00001E0000
00001E0000
00801E0000
00781E0000
00781E0000
007C3E0000
007E7C0000
003FFC0000
001FF80000
000FF00000
0000000000
0000000000
0000000000
0000000000
0000000000
ENDCHAR

STARTCHAR Ca3cb
ENCODING 41931
SWIDTH 1000 0
DWIDTH 34 0
BBX 34 34 0 -5
BITMAP
0000000000
0000000000
0000000000
0000000000
0000000000
00F003E000
00F007C000
00F00F8000
00F01F0000
00F03E0000
00F07C0000
00F0F80000
00F1F00000
00F3E00000
00F7C00000
00FFE00000
00FFF00000
00FDF00000
00F8F80000
00F07C0000
00F03E0000
00F01F0000
00F01F8000
00F00FC000
00F007C000
00F003E000
00F001F000
00F001F800
00F000FC00
0000000000
0000000000
0000000000
0000000000
0000000000
ENDCHAR

STARTCHAR Ca3cc
ENCODING 41932
SWIDTH 1000 0
DWIDTH 34 0
BBX 34 34 0 -5
BITMAP
0000000000
0000000000
0000000000
0000000000
0000000000
0078000000
0078000000
0078000000
0078000000
0078000000
0078000000
0078000000
0078000000
0078000000
0078000000
0078000000
0078000000
0078000000
0078000000
0078000000
0078000000
0078000000
0078000000
0078000000
0078000000
007FFFE000
007FFFE000
007FFFE000
007FFFE000
0000000000
0000000000
0000000000
0000000000
0000000000
ENDCHAR

STARTCHAR Ca3cd
ENCODING 41933
SWIDTH 1000 0
DWIDTH 34 0
BBX 34 34 0 -5
BITMAP
0000000000
0000000000
0000000000
0000000000
0000000000
07E000FC00
07F000FC00
07F001FC00
07F001FC00
07F803FC00
07F803FC00
07B803BC00
07BC07BC00
07BC07BC00
079C073C00
079E0F3C00
079E0E3C00
078E0E3C00
078F1E3C00
07871C3C00
0787BC3C00
0787BC3C00
0783B83C00
0783F83C00
0783F83C00
0781F03C00
0781F03C00
0781F03C00
0780E03C00
0000000000
0000000000
0000000000
0000000000
0000000000
ENDCHAR

STARTCHAR Ca3ce
ENCODING 41934
SWIDTH 1000 0
DWIDTH 34 0
BBX 34 34 0 -5
BITMAP
0000000000
0000000000
0000000000
0000000000
0000000000
00F000E000
00F800E000
00F800E000
00FC00E000
00FE00E000
00FE00E000
00FF00E000
00EF80E000
00E7C0E000
00E7C0E000
00E3E0E000
00E1F0E000
00E0F8E000
00E0F8E000
00E07CE000
00E03EE000
00E03EE000
00E01FE000
00E00FE000
00E007E000
00E007E000
00E003E000
00E001E000
00E001E000
0000000000
0000000000
0000000000
0000000000
0000000000
ENDCHAR

STARTCHAR Ca3cf
ENCODING 41935
SWIDTH 1000 0
DWIDTH 34 0
BBX 34 34 0 -5
BITMAP
0000000000
0000000000
0000000000
0000000000
0000E00000
000FFC0000
001FFF0000
003FFF8000
007C07C000
00F803E000
00F001E000
01F001F000
01E000F000
01E000F000
01E000F000
03E000F000
03E000F000
03E000F000
01E000F000
01E000F000
01E000F000
01F001F000
00F001E000
00F803E000
007C07C000
007FBFC000
003FFF8000
000FFE0000
0003F80000
0000000000
0000000000
0000000000
0000000000
0000000000
ENDCHAR

STARTCHAR Ca3d0
ENCODING 41936
SWIDTH 1000 0
DWIDTH 34 0
BBX 34 34 0 -5
BITMAP
0000000000
0000000000
0000000000
0000000000
0000000000
007FFE0000
007FFF8000
007FFFC000
007807E000
007801E000
007801E000
007801F000
007801F000
007801E000
007803E000
00780FE000
007FFFC000
007FFF8000
007FFC0000
0078000000
0078000000
0078000000
0078000000
0078000000
0078000000
0078000000
0078000000
0078000000
0078000000
0000000000
0000000000
0000000000
0000000000
0000000000
ENDCHAR

STARTCHAR Ca3d1
ENCODING 41937
SWIDTH 1000 0
DWIDTH 34 0
BBX 34 34 0 -5
BITMAP
0000000000
0000000000
0000000000
0000000000
0000E00000
000FFC0000
001FFF0000
003FFF8000
007C07C000
00F803E000
00F001E000
01E001F000
01E000F000
01E000F000
03E000F000
03E000F000
03E000F000
03E000F000
03E000F000
01E000F000
01E018F000
01F07CF000
00F03FF000
00F81FE000
007C0FE000
007F1FC000
003FFFC000
000FFFE000
0003F9F000
000000E000
0000004000
0000000000
0000000000
0000000000
ENDCHAR

STARTCHAR Ca3d2
ENCODING 41938
SWIDTH 1000 0
DWIDTH 34 0
BBX 34 34 0 -5
BITMAP
0000000000
0000000000
0000000000
0000000000
0000000000
007FFE0000
007FFF8000
007FFFC000
007807C000
007801E000
007801E000
007801E000
007801E000
007803E000
007807C000
007FFFC000
007FFF8000
007FFC0000
00787C0000
00783C0000
00781E0000
00781F0000
00780F0000
00780F8000
007807C000
007807C000
007803E000
007801F000
007801F000
0000000000
0000000000
0000000000
0000000000
0000000000
ENDCHAR

STARTCHAR Ca3d3
ENCODING 41939
SWIDTH 1000 0
DWIDTH 34 0
BBX 34 34 0 -5
BITMAP
0000000000
0000000000
0000000000
0000000000
0000600000
0007FE0000
001FFF8000
003FFFC000
007C07C000
007803C000
007803E000
0078000000
0078000000
007F000000
003FE00000
001FFC0000
0007FF0000
0000FFC000
00001FC000
000003E000
000001E000
00F001E000
00F001E000
00F801E000
007803E000
007F0FE000
003FFFC000
001FFF0000
0007FC0000
0000000000
0000000000
0000000000
0000000000
0000000000
ENDCHAR

STARTCHAR Ca3d4
ENCODING 41940
SWIDTH 1000 0
DWIDTH 34 0
BBX 34 34 0 -5
BITMAP
0000000000
0000000000
0000000000
0000000000
0000000000
01FFFFF800
01FFFFF800
01FFFFF800
0000F00000
0000F00000
0000F00000
0000F00000
0000F00000
0000F00000
0000F00000
0000F00000
0000F00000
0000F00000
0000F00000
0000F00000
0000F00000
0000F00000
0000F00000
0000F00000
0000F00000
0000F00000
0000F00000
0000F00000
0000F00000
0000000000
0000000000
0000000000
0000000000
0000000000
ENDCHAR

STARTCHAR Ca3d5
ENCODING 41941
SWIDTH 1000 0
DWIDTH 34 0
BBX 34 34 0 -5
BITMAP
0000000000
0000000000
0000000000
0000000000
0000000000
00E000E000
00E000E000
00E000E000
00E000E000
00E000E000
00E000E000
00E000E000
00E000E000
00E000E000
00E000E000
00E000E000
00E000E000
00E000E000
00E000E000
00E000E000
00F000E000
00F001E000
00F001E000
00F803E000
00FC07E000
007FFFC000
003FFF8000
001FFF0000
0003FC0000
0000000000
0000000000
0000000000
0000000000
0000000000
ENDCHAR

STARTCHAR Ca3d6
ENCODING 41942
SWIDTH 1000 0
DWIDTH 34 0
BBX 34 34 0 -5
BITMAP
0000000000
0000000000
0000000000
0000000000
0200000800
01E000F000
01E000F000
01E000F000
00F001E000
00F001E000
00F001E000
007803C000
007803C000
003C078000
003C078000
003C078000
001E0F0000
001E0F0000
001E0F0000
000F1E0000
000F1E0000
00071C0000
0007BC0000
0007BC0000
0003F80000
0003F80000
0003F80000
0001F00000
0001F00000
0000000000
0000000000
0000000000
0000000000
0000000000
ENDCHAR

STARTCHAR Ca3d7
ENCODING 41943
SWIDTH 1000 0
DWIDTH 34 0
BBX 34 34 0 -5
BITMAP
0000000000
0000000000
0000000000
0000000000
0000000000
3E01F00F00
1E01F00F00
1E01F00F00
1E01F00F00
0F03F81E00
0F03F81E00
0F03B81E00
0F03B81E00
0707BC3C00
07871C3C00
07871C3C00
078F1C3800
038F1E7800
03CE0E7800
03CE0E7800
01DE0E7000
01DE0FF000
01FC07F000
01FC07F000
00FC07E000
00F803E000
00F803E000
00F803C000
007803C000
0000000000
0000000000
0000000000
0000000000
0000000000
ENDCHAR

STARTCHAR Ca3d8
ENCODING 41944
SWIDTH 1000 0
DWIDTH 34 0
BBX 34 34 0 -5
BITMAP
0000000000
0000000000
0000000000
0000000000
0000001000
03E003E000
01F003C000
00F807C000
00780F8000
007C0F0000
003E1E0000
001F3E0000
000F3C0000
0007F80000
0007F80000
0003F00000
0003F00000
0003F00000
0007F80000
000FBC0000
001F3E0000
003E1F0000
003C0F8000
007C078000
00F807C000
01F003E000
01F001F000
03E000F800
07C000FC00
0000000000
0000000000
0000000000
0000000000
0000000000
ENDCHAR

STARTCHAR Ca3d9
ENCODING 41945
SWIDTH 1000 0
DWIDTH 34 0
BBX 34 34 0 -5
BITMAP
0000000000
0000000000
0000000000
0000000000
0000000000
03E000F800
01E001F000
00F001E000
00F803C000
007C07C000
003C078000
001E0F0000
001F1F0000
000F1E0000
0007BC0000
0007FC0000
0003F80000
0001F00000
0001F00000
0001F00000
0001F00000
0001F00000
0001F00000
0001F00000
0001F00000
0001F00000
0001F00000
0001F00000
0001F00000
0000000000
0000000000
0000000000
0000000000
0000000000
ENDCHAR

STARTCHAR Ca3da
ENCODING 41946
SWIDTH 1000 0
DWIDTH 34 0
BBX 34 34 0 -5
BITMAP
0000000000
0000000000
0000000000
0000000000
0000000000
00FFFFC000
00FFFFC000
00FFFFC000
00000F8000
00000F8000
00001F0000
00003E0000
00007C0000
0000780000
0000F80000
0001F00000
0003E00000
0003C00000
0007C00000
000F800000
001F000000
001E000000
003E000000
007C000000
00F8000000
00FFFFE000
00FFFFE000
00FFFFE000
00FFFFE000
0000000000
0000000000
0000000000
0000000000
0000000000
ENDCHAR

STARTCHAR Ca3db
ENCODING 41947
SWIDTH 1000 0
DWIDTH 34 0
BBX 34 34 0 -5
BITMAP
0000000000
0000000000
0000000000
0000000000
0000000000
0000000000
0000000000
0000000000
0000000000
0000000000
0000000000
0000000000
0000000000
0000000000
0000000000
0000000000
0000000000
0000000000
0000000000
0000000000
0000000000
0000000000
0000000000
0000000000
0000000000
0000000000
0000000000
0000000000
0000000000
0000000000
0000000000
0000000000
0000000000
0000000000
ENDCHAR

STARTCHAR Ca3dc
ENCODING 41948
SWIDTH 1000 0
DWIDTH 34 0
BBX 34 34 0 -5
BITMAP
0000000000
0000000000
0000000000
0000000000
0000000000
0000000000
0000000000
0000000000
0000000000
0000000000
0000000000
0000000000
0000000000
0000000000
0000000000
0000000000
0000000000
0000000000
0000000000
0000000000
0000000000
0000000000
0000000000
0000000000
0000000000
0000000000
0000000000
0000000000
0000000000
0000000000
0000000000
0000000000
0000000000
0000000000
ENDCHAR

STARTCHAR Ca3dd
ENCODING 41949
SWIDTH 1000 0
DWIDTH 34 0
BBX 34 34 0 -5
BITMAP
0000000000
0000000000
0000000000
0000000000
0000000000
0000000000
0000000000
0000000000
0000000000
0000000000
0000000000
0000000000
0000000000
0000000000
0000000000
0000000000
0000000000
0000000000
0000000000
0000000000
0000000000
0000000000
0000000000
0000000000
0000000000
0000000000
0000000000
0000000000
0000000000
0000000000
0000000000
0000000000
0000000000
0000000000
ENDCHAR

STARTCHAR Ca3de
ENCODING 41950
SWIDTH 1000 0
DWIDTH 34 0
BBX 34 34 0 -5
BITMAP
0000000000
0000000000
0000000000
0000000000
0000000000
0000000000
0000000000
0000000000
0000000000
0000000000
0000000000
0000000000
0000000000
0000000000
0000000000
0000000000
0000000000
0000000000
0000000000
0000000000
0000000000
0000000000
0000000000
0000000000
0000000000
0000000000
0000000000
0000000000
0000000000
0000000000
0000000000
0000000000
0000000000
0000000000
ENDCHAR

STARTCHAR Ca3df
ENCODING 41951
SWIDTH 1000 0
DWIDTH 34 0
BBX 34 34 0 -5
BITMAP
0000000000
0000000000
0000000000
0000000000
0000000000
0000000000
0000000000
0000000000
0000000000
0000000000
0000000000
0000000000
0000000000
0000000000
0000000000
0000000000
0000000000
0000000000
0000000000
0000000000
0000000000
0000000000
0000000000
0000000000
0000000000
0000000000
0000000000
0000000000
0000000000
0000000000
0000000000
0000000000
0000000000
0000000000
ENDCHAR

STARTCHAR Ca3e0
ENCODING 41952
SWIDTH 1000 0
DWIDTH 34 0
BBX 34 34 0 -5
BITMAP
0000000000
0000000000
0000000000
0000000000
0000000000
0000000000
0000000000
0000000000
0000000000
0000000000
0000000000
0000000000
0000000000
0000000000
0000000000
0000000000
0000000000
0000000000
0000000000
0000000000
0000000000
0000000000
0000000000
0000000000
0000000000
0000000000
0000000000
0000000000
0000000000
0000000000
0000000000
0000000000
0000000000
0000000000
ENDCHAR

STARTCHAR Ca3e1
ENCODING 41953
SWIDTH 1000 0
DWIDTH 34 0
BBX 34 34 0 -5
BITMAP
0000000000
0000000000
0000000000
0000000000
0000000000
0000000000
0000000000
0000000000
0000000000
0000000000
0000000000
0000000000
0007FC0000
000FFE0000
001FFF0000
001E0F0000
003C070000
0000078000
0000078000
0003FF8000
000FFF8000
001F878000
003E078000
003C078000
00380F8000
003C3FA000
003FFFE000
001FFBE000
0007E3E000
0000000000
0000000000
0000000000
0000000000
0000000000
ENDCHAR

STARTCHAR Ca3e2
ENCODING 41954
SWIDTH 1000 0
DWIDTH 34 0
BBX 34 34 0 -5
BITMAP
0000000000
0000000000
0000000000
0000000000
0000000000
003C000000
003C000000
003C000000
003C000000
003C000000
003C000000
003C000000
003CFE0000
003DFF0000
003FFF8000
003F07C000
003E03C000
003C01E000
003C01E000
003801E000
003801E000
003801E000
003C01E000
003C01E000
003E03C000
003F0FC000
003FFF8000
003BFF0000
0038FC0000
0000000000
0000000000
0000000000
0000000000
0000000000
ENDCHAR

STARTCHAR Ca3e3
ENCODING 41955
SWIDTH 1000 0
DWIDTH 34 0
BBX 34 34 0 -5
BITMAP
0000000000
0000000000
0000000000
0000000000
0000000000
0000000000
0000000000
0000000000
0000000000
0000000000
0000000000
0000000000
0003FC0000
0007FF0000
000FFF8000
001F0F8000
003E07C000
003C03C000
003C000000
003C000000
003C000000
003C000000
003C000000
003C03C000
003E07C000
001F8F8000
000FFF0000
0007FE0000
0001FC0000
0000000000
0000000000
0000000000
0000000000
0000000000
ENDCHAR

STARTCHAR Ca3e4
ENCODING 41956
SWIDTH 1000 0
DWIDTH 34 0
BBX 34 34 0 -5
BITMAP
0000000000
0000000000
0000000000
0000000000
0000000000
0000078000
0000078000
0000078000
0000078000
0000078000
0000078000
0000078000
0007E78000
001FFF8000
003FFF8000
007C1F8000
00780F8000
0078078000
00F0078000
00F0038000
00F0038000
00F0038000
00F0078000
0078078000
00780F8000
007E1F8000
003FFF8000
001FFB8000
0007E38000
0000000000
0000000000
0000000000
0000000000
0000000000
ENDCHAR

STARTCHAR Ca3e5
ENCODING 41957
SWIDTH 1000 0
DWIDTH 34 0
BBX 34 34 0 -5
BITMAP
0000000000
0000000000
0000000000
0000000000
0000000000
0000000000
0000000000
0000000000
0000000000
0000000000
0000000000
0000000000
0003F80000
000FFE0000
001FFF0000
003E0F8000
003C078000
003803C000
007803C000
007FFFC000
007FFFC000
0078000000
0078000000
003803C000
003C07C000
001F0F8000
001FFF0000
0007FE0000
0003F80000
0000000000
0000000000
0000000000
0000000000
0000000000
ENDCHAR

STARTCHAR Ca3e6
ENCODING 41958
SWIDTH 1000 0
DWIDTH 34 0
BBX 34 34 0 -5
BITMAP
0000000000
0000000000
0000000000
0000000000
0000000000
00007F0000
0000FF0000
0000FF0000
0001E00000
0001E00000
0001E00000
0001E00000
001FFF0000
001FFF0000
001FFF0000
0001E00000
0001E00000
0001E00000
0001E00000
0001E00000
0001E00000
0001E00000
0001E00000
0001E00000
0001E00000
0001E00000
0001E00000
0001E00000
0001E00000
0000000000
0000000000
0000000000
0000000000
0000000000
ENDCHAR

STARTCHAR Ca3e7
ENCODING 41959
SWIDTH 1000 0
DWIDTH 34 0
BBX 34 34 0 -5
BITMAP
0000000000
0000000000
0000000000
0000000000
0000000000
0000000000
0000000000
0000000000
0000000000
0000000000
0000000000
0000000000
0003F38000
000FFB8000
001FFF8000
001E0F8000
003C078000
003C078000
0038078000
0038078000
003C078000
003C078000
003E0F8000
001FFF8000
000FFF8000
0007F78000
0000078000
0000078000
003E078000
001E0F0000
001FFF0000
000FFE0000
0003F80000
0000000000
ENDCHAR

STARTCHAR Ca3e8
ENCODING 41960
SWIDTH 1000 0
DWIDTH 34 0
BBX 34 34 0 -5
BITMAP
0000000000
0000000000
0000000000
0000000000
0000000000
003C000000
003C000000
003C000000
003C000000
003C000000
003C000000
003C000000
003CFC0000
003DFF0000
003FFF0000
003F8F8000
003E078000
003C078000
003C078000
003C078000
003C078000
003C078000
003C078000
003C078000
003C078000
003C078000
003C078000
003C078000
003C078000
0000000000
0000000000
0000000000
0000000000
0000000000
ENDCHAR

STARTCHAR Ca3e9
ENCODING 41961
SWIDTH 1000 0
DWIDTH 34 0
BBX 34 34 0 -5
BITMAP
0000000000
0000000000
0000000000
0000000000
0000000000
0001F00000
0001F00000
0001F00000
0001F00000
0000000000
0000000000
0000000000
0001E00000
0001E00000
0001E00000
0001E00000
0001E00000
0001E00000
0001E00000
0001E00000
0001E00000
0001E00000
0001E00000
0001E00000
0001E00000
0001E00000
0001E00000
0001E00000
0001E00000
0000000000
0000000000
0000000000
0000000000
0000000000
ENDCHAR

STARTCHAR Ca3ea
ENCODING 41962
SWIDTH 1000 0
DWIDTH 34 0
BBX 34 34 0 -5
BITMAP
0000000000
0000000000
0000000000
0000000000
0000000000
0000F80000
0000F80000
0000F80000
0000F80000
0000000000
0000000000
0000000000
0000780000
0000780000
0000780000
0000780000
0000780000
0000780000
0000780000
0000780000
0000780000
0000780000
0000780000
0000780000
0000780000
0000780000
0000780000
0000780000
0000780000
0000F00000
000FF00000
000FF00000
000FE00000
0000000000
ENDCHAR

STARTCHAR Ca3eb
ENCODING 41963
SWIDTH 1000 0
DWIDTH 34 0
BBX 34 34 0 -5
BITMAP
0000000000
0000000000
0000000000
0000000000
0000000000
003C000000
003C000000
003C000000
003C000000
003C000000
003C000000
003C000000
003C0F8000
003C1F0000
003C3E0000
003C7C0000
003CF00000
003DE00000
003FC00000
003FE00000
003FF00000
003EF80000
003C7C0000
003C3C0000
003C1E0000
003C1F0000
003C0F8000
003C07C000
003C03E000
0000000000
0000000000
0000000000
0000000000
0000000000
ENDCHAR

STARTCHAR Ca3ec
ENCODING 41964
SWIDTH 1000 0
DWIDTH 34 0
BBX 34 34 0 -5
BITMAP
0000000000
0000000000
0000000000
0000000000
0000000000
0000F00000
0000F00000
0000F00000
0000F00000
0000F00000
0000F00000
0000F00000
0000F00000
0000F00000
0000F00000
0000F00000
0000F00000
0000F00000
0000F00000
0000F00000
0000F00000
0000F00000
0000F00000
0000F00000
0000F00000
0000F00000
0000F00000
0000F00000
0000F00000
0000000000
0000000000
0000000000
0000000000
0000000000
ENDCHAR

STARTCHAR Ca3ed
ENCODING 41965
SWIDTH 1000 0
DWIDTH 34 0
BBX 34 34 0 -5
BITMAP
0000000000
0000000000
0000000000
0000000000
0000000000
0000000000
0000000000
0000000000
0000000000
0000000000
0000000000
0000000000
01CF87C000
01DFDFE000
01FFFFF000
01F1F8F000
01E0F07000
01E0E07000
01C0E07000
01C0E07000
01C0E07000
01C0E07000
01C0E07000
01C0E07000
01C0E07000
01C0E07000
01C0E07000
01C0E07000
01C0E07000
0000000000
0000000000
0000000000
0000000000
0000000000
ENDCHAR

STARTCHAR Ca3ee
ENCODING 41966
SWIDTH 1000 0
DWIDTH 34 0
BBX 34 34 0 -5
BITMAP
0000000000
0000000000
0000000000
0000000000
0000000000
0000000000
0000000000
0000000000
0000000000
0000000000
0000000000
0000000000
0038FC0000
003BFE0000
003FFF0000
003F0F8000
003E078000
003C078000
003C078000
003C078000
003C078000
003C078000
003C078000
003C078000
003C078000
003C078000
003C078000
003C078000
003C078000
0000000000
0000000000
0000000000
0000000000
0000000000
ENDCHAR

STARTCHAR Ca3ef
ENCODING 41967
SWIDTH 1000 0
DWIDTH 34 0
BBX 34 34 0 -5
BITMAP
0000000000
0000000000
0000000000
0000000000
0000000000
0000000000
0000000000
0000000000
0000000000
0000000000
0000000000
0000000000
0003F80000
000FFE0000
001FFF0000
003E0F8000
003C078000
007803C000
007803C000
007803C000
007803C000
007803C000
007803C000
007C03C000
003C078000
003F1F8000
001FFF0000
000FFE0000
0003F80000
0000000000
0000000000
0000000000
0000000000
0000000000
ENDCHAR

STARTCHAR Ca3f0
ENCODING 41968
SWIDTH 1000 0
DWIDTH 34 0
BBX 34 34 0 -5
BITMAP
0000000000
0000000000
0000000000
0000000000
0000000000
0000000000
0000000000
0000000000
0000000000
0000000000
0000000000
0000000000
0038FC0000
003BFF0000
003FFF8000
003F0F8000
003E07C000
003C03C000
003C01E000
003C01E000
003C01E000
003C01E000
003C01E000
003C03C000
003E07C000
003F8F8000
003FFF8000
003DFF0000
003CFC0000
003C000000
003C000000
003C000000
003C000000
0000000000
ENDCHAR

STARTCHAR Ca3f1
ENCODING 41969
SWIDTH 1000 0
DWIDTH 34 0
BBX 34 34 0 -5
BITMAP
0000000000
0000000000
0000000000
0000000000
0000000000
0000000000
0000000000
0000000000
0000000000
0000000000
0000000000
0000000000
0007E38000
001FFB8000
003FFF8000
003E1F8000
00780F8000
0078078000
00F0078000
00F0078000
00F0078000
00F0078000
00F0078000
0078078000
007C0F8000
003E3F8000
003FFF8000
001FF78000
0007E78000
0000078000
0000078000
0000078000
0000078000
0000000000
ENDCHAR

STARTCHAR Ca3f2
ENCODING 41970
SWIDTH 1000 0
DWIDTH 34 0
BBX 34 34 0 -5
BITMAP
0000000000
0000000000
0000000000
0000000000
0000000000
0000000000
0000000000
0000000000
0000000000
0000000000
0000000000
0000000000
0003C1C000
0003CFC000
0003DFC000
0003FFC000
0003FC0000
0003F00000
0003E00000
0003C00000
0003C00000
0003C00000
0003C00000
0003C00000
0003C00000
0003C00000
0003C00000
0003C00000
0003C00000
0000000000
0000000000
0000000000
0000000000
0000000000
ENDCHAR

STARTCHAR Ca3f3
ENCODING 41971
SWIDTH 1000 0
DWIDTH 34 0
BBX 34 34 0 -5
BITMAP
0000000000
0000000000
0000000000
0000000000
0000000000
0000000000
0000000000
0000000000
0000000000
0000000000
0000000000
0000000000
0003FC0000
000FFE0000
001FFF0000
001E0F0000
001E0F0000
001F000000
000FC00000
0007F80000
0003FE0000
00007F0000
00000F8000
003C078000
001E078000
001E078000
000FFF8000
000FFF0000
0003FC0000
0000000000
0000000000
0000000000
0000000000
0000000000
ENDCHAR

STARTCHAR Ca3f4
ENCODING 41972
SWIDTH 1000 0
DWIDTH 34 0
BBX 34 34 0 -5
BITMAP
0000000000
0000000000
0000000000
0000000000
0000000000
0000000000
0000000000
0000000000
0003C00000
0003C00000
0003C00000
0003C00000
001FFC0000
001FFC0000
001FFC0000
0003C00000
0003C00000
0003C00000
0003C00000
0003C00000
0003C00000
0003C00000
0003C00000
0003C00000
0003C00000
0003E40000
0003FC0000
0001FC0000
0000FC0000
0000000000
0000000000
0000000000
0000000000
0000000000
ENDCHAR

STARTCHAR Ca3f5
ENCODING 41973
SWIDTH 1000 0
DWIDTH 34 0
BBX 34 34 0 -5
BITMAP
0000000000
0000000000
0000000000
0000000000
0000000000
0000000000
0000000000
0000000000
0000000000
0000000000
0000000000
0000000000
003C078000
003C078000
003C078000
003C078000
003C078000
003C078000
003C078000
003C078000
003C078000
003C078000
003C078000
003C078000
003C0F8000
003F3F8000
001FFF8000
000FFB8000
0007E38000
0000000000
0000000000
0000000000
0000000000
0000000000
ENDCHAR

STARTCHAR Ca3f6
ENCODING 41974
SWIDTH 1000 0
DWIDTH 34 0
BBX 34 34 0 -5
BITMAP
0000000000
0000000000
0000000000
0000000000
0000000000
0000000000
0000000000
0000000000
0000000000
0000000000
0000000000
0000000000
00F801E000
007803C000
007803C000
003C078000
003C078000
001E078000
001E0F0000
001F0F0000
000F1E0000
000F1E0000
0007BC0000
0007BC0000
0003F80000
0003F80000
0001F80000
0001F00000
0001F00000
0000000000
0000000000
0000000000
0000000000
0000000000
ENDCHAR

STARTCHAR Ca3f7
ENCODING 41975
SWIDTH 1000 0
DWIDTH 34 0
BBX 34 34 0 -5
BITMAP
0000000000
0000000000
0000000000
0000000000
0000000000
0000000000
0000000000
0000000000
0000000000
0000000000
0000000000
0000000000
0781F03C00
0381F03C00
03C1F03800
03C1F07800
01C3F87800
01E3F87000
01E3B8F000
00E3BCF000
00E7BCE000
00F71CE000
00771DE000
00771FC000
007F0FC000
003E0FC000
003E0F8000
003E078000
001C078000
0000000000
0000000000
0000000000
0000000000
0000000000
ENDCHAR

STARTCHAR Ca3f8
ENCODING 41976
SWIDTH 1000 0
DWIDTH 34 0
BBX 34 34 0 -5
BITMAP
0000000000
0000000000
0000000000
0000000000
0000000000
0000000000
0000000000
0000000000
0000000000
0000000000
0000000000
0000002000
00F803C000
007C078000
003E0F0000
001F1F0000
000F3E0000
0007FC0000
0003F80000
0003F00000
0001F00000
0003F80000
0007FC0000
000FBE0000
001F1F0000
003E0F8000
007C07C000
007803E000
00F001F000
0000000000
0000000000
0000000000
0000000000
0000000000
ENDCHAR

STARTCHAR Ca3f9
ENCODING 41977
SWIDTH 1000 0
DWIDTH 34 0
BBX 34 34 0 -5
BITMAP
0000000000
0000000000
0000000000
0000000000
0000000000
0000000000
0000000000
0000000000
0000000000
0000000000
0000000000
0000002000
007803C000
003C03C000
003C038000
001E078000
001E078000
000E0F0000
000F0F0000
00070E0000
00079E0000
00039C0000
0003FC0000
0003F80000
0001F80000
0001F80000
0000F00000
0000F00000
0001E00000
0001E00000
003FC00000
003F800000
003F000000
0000000000
ENDCHAR

STARTCHAR Ca3fa
ENCODING 41978
SWIDTH 1000 0
DWIDTH 34 0
BBX 34 34 0 -5
BITMAP
0000000000
0000000000
0000000000
0000000000
0000000000
0000000000
0000000000
0000000000
0000000000
0000000000
0000000000
0000000000
003FFF0000
003FFF0000
003FFF0000
00000F0000
00001E0000
00003C0000
0000780000
0000F00000
0001E00000
0003C00000
0007800000
000F000000
001E000000
003C000000
003FFF8000
003FFF8000
003FFF8000
0000000000
0000000000
0000000000
0000000000
0000000000
ENDCHAR

STARTCHAR Ca4a1
ENCODING 42145
SWIDTH 1000 0
DWIDTH 34 0
BBX 34 34 0 -5
BITMAP
0000000000
0000000000
0000000000
0000000000
0000000000
0000000000
0000000000
0000000000
0000000000
0003800000
0007000000
0007010000
0007FF0000
00FFFF0000
00FFFC0000
00E7080000
00070E0000
0007FF0000
0007FFC000
000FDFE000
003F38F000
007F387000
00F7707000
00E7F03800
01E3E07000
01C3C07000
01C780F000
01DF81F000
01FF9FE000
00FB1FC000
00600F0000
0000000000
0000000000
0000000000
ENDCHAR

STARTCHAR Ca4a2
ENCODING 42146
SWIDTH 1000 0
DWIDTH 34 0
BBX 34 34 0 -5
BITMAP
0000000000
0000000000
0000000000
0000000000
0007000000
0007000000
0007000000
0007018000
0007FF8000
03FFFF8000
03FFFF8000
03FFC00000
00070E0000
00070F0000
0007FF8000
0007FFE000
001FFFF800
003F1CF800
00FF3C3C00
00FF381C00
01E7781E00
03C7F01E00
0387F01E00
0787E01E00
0707C03E00
070F803C00
079F80FC00
07FF83F800
07FB9FF000
03F00FE000
0000070000
0000000000
0000000000
0000000000
ENDCHAR

STARTCHAR Ca4a3
ENCODING 42147
SWIDTH 1000 0
DWIDTH 34 0
BBX 34 34 0 -5
BITMAP
0000000000
0000000000
0000000000
0000000000
0000000000
0000000000
0000000000
0000000000
0000000000
0000000000
0000000000
01C0000000
01C0070000
01C00F0000
01C0078000
01C003C000
01C003C000
01C001E000
01E001F000
01E000F000
01E000F000
00E1007800
00E1807800
00F1C04000
00F3C00000
007F800000
007F800000
003F000000
001E000000
0000000000
0000000000
0000000000
0000000000
0000000000
ENDCHAR

STARTCHAR Ca4a4
ENCODING 42148
SWIDTH 1000 0
DWIDTH 34 0
BBX 34 34 0 -5
BITMAP
0000000000
0000000000
0000000000
0000000000
0000000000
0000000000
0000000000
0780000000
0780010000
0780038000
078007C000
078003E000
078003E000
078001F000
078000F800
078000F800
0780007C00
0780007C00
0780003E00
0780003E00
03C1001F00
03C1801E00
03C3C01000
03E3C00000
01E7C00000
01FF800000
00FF000000
007F000000
003E000000
0000000000
0000000000
0000000000
0000000000
0000000000
ENDCHAR

STARTCHAR Ca4a5
ENCODING 42149
SWIDTH 1000 0
DWIDTH 34 0
BBX 34 34 0 -5
BITMAP
0000000000
0000000000
0000000000
0000000000
0000000000
0000000000
0000000000
0000000000
0000000000
0003C00000
0003F80000
0007FC0000
0000780000
0000180000
0000000000
0000780000
0007FE0000
007FFF0000
003FCF8000
003C078000
0010038000
0000038000
0000038000
0000038000
0000038000
0000078000
00000F0000
00003F0000
0000FE0000
0007F80000
0003F00000
0001C00000
0000000000
0000000000
ENDCHAR

STARTCHAR Ca4a6
ENCODING 42150
SWIDTH 1000 0
DWIDTH 34 0
BBX 34 34 0 -5
BITMAP
0000000000
0000000000
0000000000
0003000000
0007E00000
0007F80000
000FFE0000
0000FC0000
00003C0000
0000080000
0000000000
00003C0000
0007FF0000
003FFF8000
00FFFFC000
00FF03C000
007001E000
004001E000
000001E000
000001E000
000001E000
000001E000
000003E000
000003C000
000007C000
00000F8000
00003F0000
0000FE0000
000FFC0000
0007F80000
0003E00000
0001800000
0000000000
0000000000
ENDCHAR

STARTCHAR Ca4a7
ENCODING 42151
SWIDTH 1000 0
DWIDTH 34 0
BBX 34 34 0 -5
BITMAP
0000000000
0000000000
0000000000
0000000000
0000000000
0000000000
0000000000
0000000000
0003800000
0007F00000
0007F80000
0000F80000
0000300000
0000000000
0000100000
003FF80000
003FFE0000
003FFC0000
0000780000
0000F00000
0001E00000
0003C00000
0007F00000
000FF80000
001F380000
003E380000
00783C0000
00F03FF000
01E01FF000
00E01FF000
0040000000
0000000000
0000000000
0000000000
ENDCHAR

STARTCHAR Ca4a8
ENCODING 42152
SWIDTH 1000 0
DWIDTH 34 0
BBX 34 34 0 -5
BITMAP
0000000000
0000000000
0000000000
0006000000
0007C00000
000FF80000
000FFC0000
0000F80000
0000380000
0000000000
0000000000
00007C0000
00FFFC0000
00FFFF0000
007FFE0000
00703C0000
0000780000
0000F00000
0001E00000
0003C00000
0007F80000
000FFC0000
001FFC0000
003F3C0000
00FC1C0000
01F81E0000
03F01E0200
07E01FFE00
07C01FFE00
03800FFE00
0100000000
0000000000
0000000000
0000000000
ENDCHAR

STARTCHAR Ca4a9
ENCODING 42153
SWIDTH 1000 0
DWIDTH 34 0
BBX 34 34 0 -5
BITMAP
0000000000
0000000000
0000000000
0000000000
0000000000
0000000000
0000000000
0000000000
0000000000
0007000000
0007000000
0007018000
00070BC000
007FF3F000
007FF8F800
007FE07000
0007002000
0007000000
00077F0000
0007FFC000
001FFFE000
003F00F000
007F007000
00F7007000
00E7007000
01C7007000
00E700F000
00E747E000
007F3FC000
003E3F8000
000C1C0000
0000000000
0000000000
0000000000
ENDCHAR

STARTCHAR Ca4aa
ENCODING 42154
SWIDTH 1000 0
DWIDTH 34 0
BBX 34 34 0 -5
BITMAP
0000000000
0000000000
0000000000
0000000000
0000000000
000F000000
000F000000
000F00C000
000F03F000
000FF9F800
01FFF8FC00
01FFF83E00
01FFC01C00
000F000800
000F000000
000F0C0000
000FFFE000
000FFFF000
003FFFF800
007F007C00
00FF003C00
01EF001C00
03CF001C00
038F001C00
078F003C00
078F007C00
038F01F800
03FF7FF800
01FE3FE000
00FE1FC000
00381E0000
0000000000
0000000000
0000000000
ENDCHAR

STARTCHAR Ca4ab
ENCODING 42155
SWIDTH 1000 0
DWIDTH 34 0
BBX 34 34 0 -5
BITMAP
0000000000
0000000000
0000000000
0000000000
0000000000
001E000000
001E000000
001E000000
001E008000
001C01C000
003C03C000
03FFE3E000
0FFFF1F000
0FFFF8F000
07F878F800
0078787C00
0078383C00
00F0383E00
00F0381E00
00F0781800
01E0781000
01E0780000
03C0780000
03C0780000
03C0F00000
0788F00000
078FF00000
1F0FE00000
0F1FE00000
0607C00000
0100000000
0000000000
0000000000
0000000000
ENDCHAR

STARTCHAR Ca4ac
ENCODING 42156
SWIDTH 1000 0
DWIDTH 34 0
BBX 34 34 0 -5
BITMAP
0000000000
0000000000
0000000600
0000000F00
0000002700
001E007300
001E007900
001E003C00
001E009800
001C01C000
003C03C000
03FFE3E000
0FFFF1F000
0FFFF8F000
07F878F800
0078787C00
0078383C00
00F0383E00
00F0381E00
00F0781800
01E0781000
01E0780000
03C0780000
03C0780000
03C0F00000
0788F00000
078FF00000
1F0FE00000
0F1FE00000
0607C00000
0100000000
0000000000
0000000000
0000000000
ENDCHAR

STARTCHAR Ca4ad
ENCODING 42157
SWIDTH 1000 0
DWIDTH 34 0
BBX 34 34 0 -5
BITMAP
0000000000
0000000000
0000000000
0000000000
0007000000
0007800000
0007830000
0003DF0000
0007FF8000
01FFFE0000
01FFF00000
01FEE06000
0000F3E000
00007FF000
03FFFFC000
01FFFE0000
01FFFC0000
01F81E0000
00000F0000
00070F0000
007FFF8000
00FFFFC000
01F8FFE000
01E007C000
03C0018000
01E0000000
01E0000000
01FC000000
00FFFE0000
003FFE0000
000FFE0000
0000000000
0000000000
0000000000
ENDCHAR

STARTCHAR Ca4ae
ENCODING 42158
SWIDTH 1000 0
DWIDTH 34 0
BBX 34 34 0 -5
BITMAP
0000000000
0000000000
0000000400
0000000E00
0007000F00
0007803700
0007837A00
0003DF3C00
0007FF9800
01FFFE0800
01FFF00000
01FEE06000
0000F3E000
00007FF000
03FFFFC000
01FFFE0000
01FFFC0000
01F81E0000
00000F0000
00070F0000
007FFF8000
00FFFFC000
01F8FFE000
01E007C000
03C0018000
01E0000000
01E0000000
01FC000000
00FFFE0000
003FFE0000
000FFE0000
0000000000
0000000000
0000000000
ENDCHAR

STARTCHAR Ca4af
ENCODING 42159
SWIDTH 1000 0
DWIDTH 34 0
BBX 34 34 0 -5
BITMAP
0000000000
0000000000
0000000000
0000000000
0000380000
00003E0000
00007C0000
0000F80000
0001F00000
0001F00000
0003E00000
0007C00000
000F800000
001F000000
003E000000
007C000000
00F8000000
00F8000000
007E000000
003F000000
001F800000
000FC00000
0007E00000
0003F00000
0001F80000
0000FC0000
00007E0000
00003F0000
00001F8000
00001F0000
00000E0000
0000040000
0000000000
0000000000
ENDCHAR

STARTCHAR Ca4b0
ENCODING 42160
SWIDTH 1000 0
DWIDTH 34 0
BBX 34 34 0 -5
BITMAP
0000000000
0000000000
0000000000
0000000000
0000380000
00003E0800
00007C1C00
0000F81E00
0001F0CF00
0001F1E600
0003E0FA00
0007C07000
000F802000
001F000000
003E000000
007C000000
00F8000000
00F8000000
007E000000
003F000000
001F800000
000FC00000
0007E00000
0003F00000
0001F80000
0000FC0000
00007E0000
00003F0000
00001F8000
00001F0000
00000E0000
0000040000
0000000000
0000000000
ENDCHAR

STARTCHAR Ca4b1
ENCODING 42161
SWIDTH 1000 0
DWIDTH 34 0
BBX 34 34 0 -5
BITMAP
0000000000
0000000000
0000000000
0000000000
0000000000
01C003C000
01E003C000
01E003C000
01C003C000
03C003C000
03C003C200
03C003FE00
03C3FFFE00
0383FFFE00
0383FFF000
078003C000
078003C000
078003C000
078003C000
079003C000
079003C000
07B803C000
03F803C000
03F0078000
03E0078000
03E00F8000
03C01F0000
03C03E0000
01C0FE0000
00007C0000
0000300000
0000100000
0000000000
0000000000
ENDCHAR

STARTCHAR Ca4b2
ENCODING 42162
SWIDTH 1000 0
DWIDTH 34 0
BBX 34 34 0 -5
BITMAP
0000000000
0000000000
0000000300
0000003B00
0000001D00
01C003DD40
01E003CE00
01E003CC00
01C003C000
03C003C000
03C003C200
03C003FE00
03C3FFFE00
0383FFFE00
0383FFF000
078003C000
078003C000
078003C000
078003C000
079003C000
079003C000
07B803C000
03F803C000
03F0078000
03E0078000
03E00F8000
03C01F0000
03C03E0000
01C0FE0000
00007C0000
0000300000
0000100000
0000000000
0000000000
ENDCHAR

STARTCHAR Ca4b3
ENCODING 42163
SWIDTH 1000 0
DWIDTH 34 0
BBX 34 34 0 -5
BITMAP
0000000000
0000000000
0000000000
0000000000
0000000000
0000000000
0040030000
007FFF8000
007FFF8000
007FFF8000
00007C0000
0000F00000
0001E00000
0000C00000
0000000000
0000000000
0000000000
0040000000
00E0000000
00F0000000
01E0000000
01E0000000
01C0000000
01E0000000
01E0000000
01FC03E000
00FFFFE000
007FFFE000
001FFFF000
0001F80000
0000000000
0000000000
0000000000
0000000000
ENDCHAR

STARTCHAR Ca4b4
ENCODING 42164
SWIDTH 1000 0
DWIDTH 34 0
BBX 34 34 0 -5
BITMAP
0000000000
0000000000
0000000000
0000000000
0000000000
0000000000
0040030300
007FFF8700
007FFF9340
007FFFB900
00007C3C00
0000F01E00
0001E00C00
0000C00400
0000000000
0000000000
0000000000
0040000000
00E0000000
00F0000000
01E0000000
01E0000000
01C0000000
01E0000000
01E0000000
01FC03E000
00FFFFE000
007FFFE000
001FFFF000
0001F80000
0000000000
0000000000
0000000000
0000000000
ENDCHAR

STARTCHAR Ca4b5
ENCODING 42165
SWIDTH 1000 0
DWIDTH 34 0
BBX 34 34 0 -5
BITMAP
0000000000
0000000000
0000000000
0000000000
0001800000
0007800000
0003C00000
0003C04000
0001E1E000
0001EFE000
0001FFF000
07FFFF8000
03FFFC0000
03FFFC0000
03F03C0000
00001E0000
00001F0000
00000F0000
003FE78000
00FFFFC000
01FFFFE000
03F07FE000
03C0078000
03C0010000
03C0000000
03C0000000
03E0000000
01FFFE0000
00FFFE0000
003FFE0000
0007FE0000
0000000000
0000000000
0000000000
ENDCHAR

STARTCHAR Ca4b6
ENCODING 42166
SWIDTH 1000 0
DWIDTH 34 0
BBX 34 34 0 -5
BITMAP
0000000000
0000000000
0000000300
0000000700
0001801300
0007803940
0003C01D00
0003C05E00
0001E1EC00
0001EFE000
0001FFF000
07FFFF8000
03FFFC0000
03FFFC0000
03F03C0000
00001E0000
00001F0000
00000F0000
003FE78000
00FFFFC000
01FFFFE000
03F07FE000
03C0078000
03C0010000
03C0000000
03C0000000
03E0000000
01FFFE0000
00FFFE0000
003FFE0000
0007FE0000
0000000000
0000000000
0000000000
ENDCHAR

STARTCHAR Ca4b7
ENCODING 42167
SWIDTH 1000 0
DWIDTH 34 0
BBX 34 34 0 -5
BITMAP
0000000000
0000000000
0000000000
0000000000
003C000000
003C000000
003C000000
003C000000
003C000000
003C000000
003C000000
003C000000
003C000000
003C000000
003C000000
003C000000
003C000000
003C000000
003C000000
003C000000
003C000000
003C001000
003C003800
003C007C00
003C00F800
003C01F800
003E03F000
001F9FE000
001FFFC000
000FFF0000
0007FE0000
0000F00000
0000000000
0000000000
ENDCHAR

STARTCHAR Ca4b8
ENCODING 42168
SWIDTH 1000 0
DWIDTH 34 0
BBX 34 34 0 -5
BITMAP
0000000000
0000000000
0000000000
0000001000
003C003000
003C007800
003C013C00
003C079C00
003C03D800
003C01E000
003C01C000
003C008000
003C000000
003C000000
003C000000
003C000000
003C000000
003C000000
003C000000
003C000000
003C000000
003C001000
003C003800
003C007C00
003C00F800
003C01F800
003E03F000
001F9FE000
001FFFC000
000FFF0000
0007FE0000
0000F00000
0000000000
0000000000
ENDCHAR

STARTCHAR Ca4b9
ENCODING 42169
SWIDTH 1000 0
DWIDTH 34 0
BBX 34 34 0 -5
BITMAP
0000000000
0000000000
0000000000
0000000000
0000780000
0000780000
0000780000
0000780000
0000780000
0FFFFFFE00
0FFFFFFE00
0FFFFFFE00
0000780000
0000780000
0003F80000
0007F80000
000F780000
000E3C0000
000E3C0000
001E3E0000
000E3E0000
000E3E0000
000FFE0000
0007FC0000
0003FC0000
00003C0000
0000780000
0000F80000
0003F00000
001FE00000
000FC00000
0007000000
0002000000
0000000000
ENDCHAR

STARTCHAR Ca4ba
ENCODING 42170
SWIDTH 1000 0
DWIDTH 34 0
BBX 34 34 0 -5
BITMAP
0000000000
0000000000
0000000C00
0000005E00
000079EF00
000078E700
0000787200
0000786000
0000780000
0FFFFFFE00
0FFFFFFE00
0FFFFFFE00
0000780000
0000780000
0003F80000
0007F80000
000F780000
000E3C0000
000E3C0000
001E3E0000
000E3E0000
000E3E0000
000FFE0000
0007FC0000
0003FC0000
00003C0000
0000780000
0000F80000
0003F00000
001FE00000
000FC00000
0007000000
0002000000
0000000000
ENDCHAR

STARTCHAR Ca4bb
ENCODING 42171
SWIDTH 1000 0
DWIDTH 34 0
BBX 34 34 0 -5
BITMAP
0000000000
0000000000
0000000000
0000000000
0000000000
0000078000
003C078000
003C078000
003C078000
003C078000
003C078000
003C078600
003FFFFE00
0FFFFFFE00
0FFFFFFE00
0FFFE78000
003C078000
003C078000
003C478000
003C7F8000
003C7F8000
003C7F0000
003C3F0000
003C000000
003C000000
003C000000
003F9FF800
003FFFF800
001FFFF800
000FFFF800
0000000000
0000000000
0000000000
0000000000
ENDCHAR

STARTCHAR Ca4bc
ENCODING 42172
SWIDTH 1000 0
DWIDTH 34 0
BBX 34 34 0 -5
BITMAP
0000000000
0000000000
0000000000
0000000300
0000000700
0000078B00
003C07B940
003C079D00
003C079E00
003C078C00
003C078000
003C078600
003FFFFE00
0FFFFFFE00
0FFFFFFE00
0FFFE78000
003C078000
003C078000
003C478000
003C7F8000
003C7F8000
003C7F0000
003C3F0000
003C000000
003C000000
003C000000
003F9FF800
003FFFF800
001FFFF800
000FFFF800
0000000000
0000000000
0000000000
0000000000
ENDCHAR

STARTCHAR Ca4bd
ENCODING 42173
SWIDTH 1000 0
DWIDTH 34 0
BBX 34 34 0 -5
BITMAP
0000000000
0000000000
0000000000
0000000000
0000000000
0003FF0000
007FFF8000
007FFF8000
007F9F0000
00003E0000
00007C0000
0001F00000
0003E00000
0007C00400
001F0FFC00
003FFFFC00
0FFFFFFC00
07FFFF0000
07F8F80000
0001E00000
0003C00000
0003800000
0007800000
0007800000
0007800000
0007800000
0003C00000
0003F80000
0001FFC000
0000FFC000
00001FC000
0000000000
0000000000
0000000000
ENDCHAR

STARTCHAR Ca4be
ENCODING 42174
SWIDTH 1000 0
DWIDTH 34 0
BBX 34 34 0 -5
BITMAP
0000000000
0000000000
0000000000
0000000000
0000000000
0003FF0100
007FFF8700
007FFF8700
007F9F3340
00003E7900
00007C3F00
0001F01C00
0003E00800
0007C00400
001F0FFC00
003FFFFC00
0FFFFFFC00
07FFFF0000
07F8F80000
0001E00000
0003C00000
0003800000
0007800000
0007800000
0007800000
0007800000
0003C00000
0003F80000
0001FFC000
0000FFC000
00001FC000
0000000000
0000000000
0000000000
ENDCHAR

STARTCHAR Ca4bf
ENCODING 42175
SWIDTH 1000 0
DWIDTH 34 0
BBX 34 34 0 -5
BITMAP
0000000000
0000000000
0000000000
0000000000
000F000000
000F000000
000F000000
000E000000
001E000000
041FF00000
07FFF00000
07FFF00000
07FF800000
003C00F800
00387FF800
00783FF800
00783FF800
0078300000
00F0000000
00F0000000
01E0000000
01E0000000
01E0400000
03C1C00000
03C1E00000
07C1F00000
0780FE1E00
0F80FFFE00
0F007FFE00
07001FFE00
0100000000
0000000000
0000000000
0000000000
ENDCHAR

STARTCHAR Ca4c0
ENCODING 42176
SWIDTH 1000 0
DWIDTH 34 0
BBX 34 34 0 -5
BITMAP
0000000000
0000000000
0000000000
0000000000
000F000800
000F003C00
000F005E00
000E01CF00
001E01E400
041FF0F000
07FFF06000
07FFF02000
07FF800000
003C00F800
00387FF800
00783FF800
00783FF800
0078300000
00F0000000
00F0000000
01E0000000
01E0000000
01E0400000
03C1C00000
03C1E00000
07C1F00000
0780FE1E00
0F80FFFE00
0F007FFE00
07001FFE00
0100000000
0000000000
0000000000
0000000000
ENDCHAR

STARTCHAR Ca4c1
ENCODING 42177
SWIDTH 1000 0
DWIDTH 34 0
BBX 34 34 0 -5
BITMAP
0000000000
0000000000
0000000000
0000000000
000F000000
000F000000
000F000000
000F000000
000E030000
0FFFFF8000
0FFFFF8000
0FFFFF8000
0FFF000000
001C000000
003C000000
003C0F0000
0038FFC000
007BFFF000
007FFFF800
007FC07800
00FF003800
01FC003C00
00F8003C00
0070007800
000000F800
000001F000
00000FF000
0007FFE000
0007FF8000
0007FE0000
0003C00000
0000000000
0000000000
0000000000
ENDCHAR

STARTCHAR Ca4c2
ENCODING 42178
SWIDTH 1000 0
DWIDTH 34 0
BBX 34 34 0 -5
BITMAP
0000000000
0000000000
0000000000
0000000F00
000F000700
000F001340
000F007900
000F003D00
000E031E00
0FFFFF8800
0FFFFF8000
0FFFFF8000
0FFF000000
001C000000
003C000000
003C0F0000
0038FFC000
007BFFF000
007FFFF800
007FC07800
00FF003800
01FC003C00
00F8003C00
0070007800
000000F800
000001F000
00000FF000
0007FFE000
0007FF8000
0007FE0000
0003C00000
0000000000
0000000000
0000000000
ENDCHAR

STARTCHAR Ca4c3
ENCODING 42179
SWIDTH 1000 0
DWIDTH 34 0
BBX 34 34 0 -5
BITMAP
0000000000
0000000000
0000000000
0000000000
0000000000
0000000000
0000000000
0000000000
0000000000
0000000000
0000000000
0000000000
0000FE0000
001FFF8000
03FFFFE000
01FFC3F000
01F800F000
0180007000
0000007800
0000007800
0000007800
0000007800
000000F000
000001F000
000007E000
0000FFC000
000FFF0000
0007FC0000
0007E00000
0000000000
0000000000
0000000000
0000000000
0000000000
ENDCHAR

STARTCHAR Ca4c4
ENCODING 42180
SWIDTH 1000 0
DWIDTH 34 0
BBX 34 34 0 -5
BITMAP
0000000000
0000000000
0000000000
0000000000
0000000000
0000000000
0000000000
0000000000
0003FF8000
00FFFFE000
0FFFFFF000
0FFFC3F800
07F0007C00
0700003C00
0000001E00
0000001E00
0000001E00
0000001E00
0000001E00
0000003C00
0000007C00
000000F800
000003F800
00003FF000
001FFFC000
001FFF0000
000FFC0000
000F800000
0000000000
0000000000
0000000000
0000000000
0000000000
0000000000
ENDCHAR

STARTCHAR Ca4c5
ENCODING 42181
SWIDTH 1000 0
DWIDTH 34 0
BBX 34 34 0 -5
BITMAP
0000000000
0000000000
0000004600
000000CF00
000001E700
000000F300
0000007100
0000002000
0003FF8000
00FFFFE000
0FFFFFF000
0FFFC3F800
07F0007C00
0700003C00
0000001E00
0000001E00
0000001E00
0000001E00
0000001E00
0000003C00
0000007C00
000000F800
000003F800
00003FF000
001FFFC000
001FFF0000
000FFC0000
000F800000
0000000000
0000000000
0000000000
0000000000
0000000000
0000000000
ENDCHAR

STARTCHAR Ca4c6
ENCODING 42182
SWIDTH 1000 0
DWIDTH 34 0
BBX 34 34 0 -5
BITMAP
0000000000
0000000000
0000000000
0000000000
0000000000
0000000000
000007FC00
001FFFFC00
07FFFFFC00
07FFFFE000
07FFBE0000
0780780000
0000F00000
0001E00000
0003C00000
0003C00000
0007800000
0007800000
0007800000
0007800000
0007800000
0007800000
0007800000
0007800000
0003C00000
0003F00000
0001FE0000
0000FFE000
00007FE000
00001FE000
000000E000
0000000000
0000000000
0000000000
ENDCHAR

STARTCHAR Ca4c7
ENCODING 42183
SWIDTH 1000 0
DWIDTH 34 0
BBX 34 34 0 -5
BITMAP
0000000000
0000000000
0000000000
0000000000
0000000000
0000000000
000007FC00
001FFFFC00
07FFFFFC00
07FFFFE000
07FFBE0000
0780780800
0000F03C00
0001E05E00
0003C0CE00
0003C1E400
000780F000
0007807000
0007804000
0007800000
0007800000
0007800000
0007800000
0007800000
0003C00000
0003F00000
0001FE0000
0000FFE000
00007FE000
00001FE000
000000E000
0000000000
0000000000
0000000000
ENDCHAR

STARTCHAR Ca4c8
ENCODING 42184
SWIDTH 1000 0
DWIDTH 34 0
BBX 34 34 0 -5
BITMAP
0000000000
0000000000
0000000000
0000000000
001E000000
000E000000
000F000000
000F000000
000F000000
000F000000
0007000000
000781C000
000787E000
0003BFF000
0003FFE000
0003FE0000
000FF00000
003FC00000
007F000000
00FC000000
00F0000000
01E0000000
01E0000000
01E0000000
01E0000000
01E0000000
01F801F000
00FFFFF000
007FFFF000
001FFFF000
0000F00000
0000000000
0000000000
0000000000
ENDCHAR

STARTCHAR Ca4c9
ENCODING 42185
SWIDTH 1000 0
DWIDTH 34 0
BBX 34 34 0 -5
BITMAP
0000000000
0000000000
0000000400
0000001E00
001E000F00
000E006700
000F00F600
000F007800
000F003800
000F002000
0007000000
000781C000
000787E000
0003BFF000
0003FFE000
0003FE0000
000FF00000
003FC00000
007F000000
00FC000000
00F0000000
01E0000000
01E0000000
01E0000000
01E0000000
01E0000000
01F801F000
00FFFFF000
007FFFF000
001FFFF000
0000F00000
0000000000
0000000000
0000000000
ENDCHAR

STARTCHAR Ca4ca
ENCODING 42186
SWIDTH 1000 0
DWIDTH 34 0
BBX 34 34 0 -5
BITMAP
0000000000
0000000000
0000000000
0000000000
000F000000
000E000000
001E000000
001E004000
001E60E000
07FFE3F000
07FFE1F800
07FFE0FC00
07FC007E00
00780F3C00
00780F1C00
00F00F0800
00F00F0000
01F00F0000
01E0070000
03E0070000
03C0070000
07C0FF0000
0783FF8000
1F8FFFF000
0F0F9FFC00
061E07FE00
000E073F00
000F0F1E00
000FFF0400
0007FE0000
0000F80000
0000000000
0000000000
0000000000
ENDCHAR

STARTCHAR Ca4cb
ENCODING 42187
SWIDTH 1000 0
DWIDTH 34 0
BBX 34 34 0 -5
BITMAP
0000000000
0000000000
0000000000
0000000000
0000000000
01E0000000
01E0000000
01E001F800
01C1FFF800
03C1FFF800
03C1FFF800
03C0F80000
03C0000000
03C0000000
0380000000
0380000000
0780000000
0780000000
0780000000
0780000000
0790C00000
07B1C00000
03B9C00000
03F9E00000
03F1E00200
03E1FFFC00
03E0FFFC00
03C07FFC00
03C01FFC00
01C0000000
0000000000
0000000000
0000000000
0000000000
ENDCHAR

STARTCHAR Ca4cc
ENCODING 42188
SWIDTH 1000 0
DWIDTH 34 0
BBX 34 34 0 -5
BITMAP
0000000000
0000000000
0000000000
0000000000
0000780000
0000780000
0100780000
0780780000
0780700000
0381FF0000
03CFFFC000
03FFFFF000
01FFF1F800
01F8E07800
01F1E03C00
03F1E01C00
07F1C01E00
07FBC01E00
0F7BC01E00
0E3F801E00
0E1F801E00
1E1F001E00
1E0F1FDE00
1E1FBFFC00
1E3F7FFE00
1E7E703F00
0FF870FF00
0FF07FF700
07E03FE200
01000F8000
0000000000
0000000000
0000000000
0000000000
ENDCHAR

STARTCHAR Ca4cd
ENCODING 42189
SWIDTH 1000 0
DWIDTH 34 0
BBX 34 34 0 -5
BITMAP
0000000000
0000000000
0000000000
0000000000
003C000000
003C000000
003C000000
003C000000
003C000000
003C078000
0FFE3FE000
0FFE7FF000
0FFDFFF800
0E3BF07C00
003FC03C00
003F001C00
003E001C00
007C001C00
00F8001E00
00F8001C00
01F8001C00
03F8001C00
03F81FFC00
07B87FFC00
0FB8FFFF00
1F38F07F00
0F38F0FF00
0638FFF300
02387FE100
003C1F8000
003C000000
0000000000
0000000000
0000000000
ENDCHAR

STARTCHAR Ca4ce
ENCODING 42190
SWIDTH 1000 0
DWIDTH 34 0
BBX 34 34 0 -5
BITMAP
0000000000
0000000000
0000000000
0000000000
0000000000
0000000000
0001FC0000
000FFF8000
003FFFE000
007FFFF000
00FCF1F800
01F0F07C00
03E0F03E00
07C0E01E00
0781E01E00
0781E01F00
0F01E00F00
0F01E00F00
0F03C00F00
0F03C00F00
0F07C01E00
0F07801E00
0F0F803E00
0F0F003C00
079F00FC00
07FE03F800
03FC1FF000
01F87FE000
00703F8000
00001E0000
0000080000
0000000000
0000000000
0000000000
ENDCHAR

STARTCHAR Ca4cf
ENCODING 42191
SWIDTH 1000 0
DWIDTH 34 0
BBX 34 34 0 -5
BITMAP
0000000000
0000000000
0000000000
0000000000
0000000000
0100078000
03C0078000
03C0078000
03C0078000
0380078000
078007BC00
0783FFFC00
0783FFFC00
0783FFFC00
0780078000
0700078000
0700078000
0700078000
0700078000
0700078000
0700078000
0720FF8000
0773FFE000
07F7FFF800
07E783FE00
07E703FF00
03C7879F00
03C3FF8600
03C1FF0200
03C0FE0000
0000000000
0000000000
0000000000
0000000000
ENDCHAR

STARTCHAR Ca4d0
ENCODING 42192
SWIDTH 1000 0
DWIDTH 34 0
BBX 34 34 0 -5
BITMAP
0000000000
0000000000
0000000300
0000000700
0000001B00
010007BD40
03C0079D00
03C0078E00
03C0078800
0380078000
078007BC00
0783FFFC00
0783FFFC00
0783FFFC00
0780078000
0700078000
0700078000
0700078000
0700078000
0700078000
0700078000
0720FF8000
0773FFE000
07F7FFF800
07E783FE00
07E703FF00
03C7879F00
03C3FF8600
03C1FF0200
03C0FE0000
0000000000
0000000000
0000000000
0000000000
ENDCHAR

STARTCHAR Ca4d1
ENCODING 42193
SWIDTH 1000 0
DWIDTH 34 0
BBX 34 34 0 -5
BITMAP
0000000000
0000000E00
0000001F00
0000003900
0000003040
010007B040
03C007B140
03C0079F00
03C0078F00
0380078000
078007BC00
0783FFFC00
0783FFFC00
0783FFFC00
0780078000
0700078000
0700078000
0700078000
0700078000
0700078000
0700078000
0720FF8000
0773FFE000
07F7FFF800
07E783FE00
07E703FF00
03C7879F00
03C3FF8600
03C3FF0200
03C0FE0000
0000000000
0000000000
0000000000
0000000000
ENDCHAR

STARTCHAR Ca4d2
ENCODING 42194
SWIDTH 1000 0
DWIDTH 34 0
BBX 34 34 0 -5
BITMAP
0000000000
0000000000
0000000000
0000000000
0000000000
0003058000
000F83C000
007FC3C000
17FF83C000
0FFF03E000
0FDE03F000
073C01F000
043801F800
007801FC00
00F001FE00
00F001DF00
00E001CF00
01E001CF00
01E003C600
01C003C000
01C003C000
01C0038000
01C0078000
01E0078000
01E00F0000
00F01F0000
00FE7E0000
007FFC0000
003FF80000
000FE00000
0000000000
0000000000
0000000000
0000000000
ENDCHAR

STARTCHAR Ca4d3
ENCODING 42195
SWIDTH 1000 0
DWIDTH 34 0
BBX 34 34 0 -5
BITMAP
0000000000
0000000100
0000001700
0000007300
0000003B00
000305BD40
000F83DD00
007FC3D000
17FF83C000
0FFF03E000
0FDE03F000
073C01F000
043801F800
007801FC00
00F001FE00
00F001DF00
00E001CF00
01E001CF00
01E003C600
01C003C000
01C003C000
01C0038000
01C0078000
01E0078000
01E00F0000
00F01F0000
00FE7E0000
007FFC0000
003FF80000
000FE00000
0000000000
0000000000
0000000000
0000000000
ENDCHAR

STARTCHAR Ca4d4
ENCODING 42196
SWIDTH 1000 0
DWIDTH 34 0
BBX 34 34 0 -5
BITMAP
0000000000
0000000000
0000001F00
0000003F00
0000003140
0006033040
001F07B140
00FF87BF00
0FFF07DF00
1FFE07C600
1FDC03E000
0E3803E000
087803F000
00F003F800
00E003BC00
01E003BE00
01C0039F00
03C0038E00
03C0038C00
03C0078000
0380078000
0380078000
03C0070000
03C00F0000
03E01F0000
01F03E0000
01FFFC0000
00FFFC0000
003FF00000
001FC00000
0000000000
0000000000
0000000000
0000000000
ENDCHAR

STARTCHAR Ca4d5
ENCODING 42197
SWIDTH 1000 0
DWIDTH 34 0
BBX 34 34 0 -5
BITMAP
0000000000
0000000000
0000000000
0002000000
0007800000
000FE00000
0007F00000
0001FC0000
0000FC0000
0001F80000
0003E00000
0007800000
0007800000
0007800000
0007800000
0003C0E000
0083E1E000
01E1F1F000
01E0F0F800
01E0787C00
03C03C3C00
07C03C3E00
07801C1E00
0F801E1F00
3F081E0F00
1E1C1E0C00
0E3FFC0000
041FFC0000
000FF80000
0003F00000
0000000000
0000000000
0000000000
0000000000
ENDCHAR

STARTCHAR Ca4d6
ENCODING 42198
SWIDTH 1000 0
DWIDTH 34 0
BBX 34 34 0 -5
BITMAP
0000000000
0000000000
0000000000
0002000600
0007800F00
000FE06700
0007F0F700
0001FC7A00
0000FC3800
0001F83000
0003E00000
0007800000
0007800000
0007800000
0007800000
0003C0E000
0083E1E000
01E1F1F000
01E0F0F800
01E0787C00
03C03C3C00
07C03C3E00
07801C1E00
0F801E1F00
3F081E0F00
1E1C1E0C00
0E3FFC0000
041FFC0000
000FF80000
0003F00000
0000000000
0000000000
0000000000
0000000000
ENDCHAR

STARTCHAR Ca4d7
ENCODING 42199
SWIDTH 1000 0
DWIDTH 34 0
BBX 34 34 0 -5
BITMAP
0000000000
0000000000
0000000000
0002003800
0007807E00
000FE0E600
0007F0C700
0001FCC300
0000FCC600
0001F87E00
0003E03C00
0007800000
0007800000
0007800000
0007800000
0003C0E000
0083E1E000
01E1F1F000
01E0F0F800
01E0787C00
03C03C3C00
07C03C3E00
07801E1E00
0F801E1F00
3F081E0F00
1E1C1E0C00
0E3FFC0000
041FFC0000
000FF80000
0003F00000
0000000000
0000000000
0000000000
0000000000
ENDCHAR

STARTCHAR Ca4d8
ENCODING 42200
SWIDTH 1000 0
DWIDTH 34 0
BBX 34 34 0 -5
BITMAP
0000000000
0000000000
0000000000
0000000000
0000000000
0000000000
0000000000
0000000000
0000000000
0007000000
000F800000
001FC00000
003FE00000
007DF00000
00F8F80000
01F07C0000
03F03F0000
07E01F8000
1FC00FC000
0F8007F000
0F0003FC00
060000FF00
0000007E00
0000003E00
0000000C00
0000000200
0000000000
0000000000
0000000000
0000000000
0000000000
0000000000
0000000000
0000000000
ENDCHAR

STARTCHAR Ca4d9
ENCODING 42201
SWIDTH 1000 0
DWIDTH 34 0
BBX 34 34 0 -5
BITMAP
0000000000
0000000000
0000000000
0000000000
0000000000
0000000000
0000000000
0000003000
0000017800
0007073800
000F87BC00
001FC3D800
003FE1C000
007DF10000
00F8F80000
01F07C0000
03F03F0000
07E01F8000
1FC00FC000
0F8007F000
0F0003FC00
060000FF00
0000007E00
0000003E00
0000000C00
0000000200
0000000000
0000000000
0000000000
0000000000
0000000000
0000000000
0000000000
0000000000
ENDCHAR

STARTCHAR Ca4da
ENCODING 42202
SWIDTH 1000 0
DWIDTH 34 0
BBX 34 34 0 -5
BITMAP
0000000000
0000000000
0000000000
0000000000
0000000000
0000000000
000001E000
000003F000
0000063800
0007061800
000F861800
001FC77000
003FE3F000
007DF0C000
00F8F80000
01F07C0000
03F03F0000
07E01F8000
1FC00FC000
0F8007F000
0F0003FC00
060000FF00
0000007E00
0000003E00
0000000C00
0000000200
0000000000
0000000000
0000000000
0000000000
0000000000
0000000000
0000000000
0000000000
ENDCHAR

STARTCHAR Ca4db
ENCODING 42203
SWIDTH 1000 0
DWIDTH 34 0
BBX 34 34 0 -5
BITMAP
0000000000
0000000000
0000000000
0000000000
0300000000
03C0000000
03C7FFF800
0387FFF800
0787FFF800
0787FF8000
0780078000
0780078000
0700078C00
0707FFFC00
0707FFFC00
0707FFFC00
0700038000
0700038000
0700038000
0700038000
0700038000
0720FF8000
0773FFC000
07E7FFF800
07EF03FE00
07CF03FF00
07C7079E00
03C7FF8600
0383FF0200
0381FE0000
0000000000
0000000000
0000000000
0000000000
ENDCHAR

STARTCHAR Ca4dc
ENCODING 42204
SWIDTH 1000 0
DWIDTH 34 0
BBX 34 34 0 -5
BITMAP
0000000000
0000000100
0000000700
0000000B00
0600003940
0780003D00
0787FFFE00
0707FFEC00
0707FFE000
0F07FF0000
0F000F0000
0F000F0000
0F000F1800
0E0FFFF800
0E0FFFF800
0E0FFFF800
0E00070000
0E00070000
0E00070000
0E00070000
0E00070000
0E41FF0000
0EE7FF8000
0FCFFFF000
0FCE07FC00
0F9E07FE00
0F8E0F3C00
078FFF0C00
0707FE0400
0783FC0000
0000000000
0000000000
0000000000
0000000000
ENDCHAR

STARTCHAR Ca4dd
ENCODING 42205
SWIDTH 1000 0
DWIDTH 34 0
BBX 34 34 0 -5
BITMAP
0000000000
0000000000
0000000E00
0000001F00
0200003900
03C0003140
03C7FFF040
0387FFF100
0787FFFF00
0787FF9F00
0780078000
0780078000
0700078400
0707FFFC00
0707FFFC00
0707FFFC00
0701FF8000
0700078000
0700078000
0700078000
0700078000
0720FF8000
0773FFC000
07E7FFF000
07EF07FE00
07CF07FF00
07CF079E00
0787FF8E00
0383FF0200
0381FE0000
0000000000
0000000000
0000000000
0000000000
ENDCHAR

STARTCHAR Ca4de
ENCODING 42206
SWIDTH 1000 0
DWIDTH 34 0
BBX 34 34 0 -5
BITMAP
0000000000
0000000000
0000000000
0000000000
0000780000
0000780000
0000780000
0000787800
01FFFFF800
01FFFFF800
01FFFFF800
01FFF80000
0000780000
0000780000
00FFFFE000
00FFFFE000
00FFFFE000
00FFFF0000
0000780000
0000780000
0000780000
001FF80000
00FFFC0000
01FFFF0000
01F0FFC000
01C07FF000
01C073F800
01F1F0F800
00FFF07000
007FE01000
001F800000
0000000000
0000000000
0000000000
ENDCHAR

STARTCHAR Ca4df
ENCODING 42207
SWIDTH 1000 0
DWIDTH 34 0
BBX 34 34 0 -5
BITMAP
0000000000
0000000000
0000000000
0000000000
0000000000
0000000000
003FF00000
00FFF80000
007FF80000
007EF00000
0000F00000
0001E00000
0001E0F000
0001C0F000
0003C0F000
0003C0F000
007FFCF000
01FFFFF000
03FFFFF000
07CF0FF800
0F0E01FE00
0E1E01FF00
1E3C03DF00
1E3C03CE00
0E78078200
0FF00F8000
07E01F0000
03C03E0000
0000FC0000
0000780000
0000300000
0000000000
0000000000
0000000000
ENDCHAR

STARTCHAR Ca4e0
ENCODING 42208
SWIDTH 1000 0
DWIDTH 34 0
BBX 34 34 0 -5
BITMAP
0000000000
0000000000
0000000000
0000000000
0078000000
0078000000
0078000000
0078004000
087FE0E000
0FFFF1F000
0FFFF1F800
0FFF00FC00
0038007E00
0038003F00
01F8001F00
03F8000E00
07F8000400
073C000000
0E1C03C000
0E3C01E000
0E3801E000
0E3801E000
0FF001E000
07F000E000
03F000E000
007001F000
007803E000
007FFFE000
007FFFE000
003FFF8000
000FF80000
0000000000
0000000000
0000000000
ENDCHAR

STARTCHAR Ca4e1
ENCODING 42209
SWIDTH 1000 0
DWIDTH 34 0
BBX 34 34 0 -5
BITMAP
0000000000
0000000000
0000000000
0000000000
00001C0000
00001E0000
00401E0000
01E01C0000
01E03C0000
01E07E0000
01E7FFC000
00FFFFE000
00FFFFF800
00FC78F800
01F8787C00
03F8703E00
03F8F01E00
07BCF01E00
073DE01E00
0F1FE01E00
0F1FC01E00
0E0FC01E00
0E0F801E00
0E0FC03E00
0E1FC07C00
0F3FC1F800
07FD07F800
07F87FF000
03E03FC000
00003F0000
00001C0000
0000000000
0000000000
0000000000
ENDCHAR

STARTCHAR Ca4e2
ENCODING 42210
SWIDTH 1000 0
DWIDTH 34 0
BBX 34 34 0 -5
BITMAP
0000000000
0000000000
0000000000
0004000000
0007800000
0007800000
0007800000
0007000000
0007000000
03FFFE0000
03FFFE0000
03FFFE0000
007FFC0000
000F000000
000F000000
000F000000
038E0C0000
03FFFC0000
03FFFC0000
03FFFC7000
001E007800
001E007800
001E007800
001E007800
001E007800
001E007800
001E00F000
000F01F000
000FFFE000
0007FFE000
0003FF8000
00007C0000
0000000000
0000000000
ENDCHAR

STARTCHAR Ca4e3
ENCODING 42211
SWIDTH 1000 0
DWIDTH 34 0
BBX 34 34 0 -5
BITMAP
0000000000
0000000000
0000000000
0000000000
0000000000
0000000000
0000000000
0000000000
0000400000
0000E00000
0009F00000
0038FC0000
003C380000
001C100000
001C1FC000
001FFFE000
000FFFF000
007FF07800
03FF003800
03FF003800
01C7807800
000787F000
00039FE000
0003DFC000
0003CC0000
0001C00000
0001E00000
0001E00000
0000E00000
0000F00000
0000F00000
0000400000
0000000000
0000000000
ENDCHAR

STARTCHAR Ca4e4
ENCODING 42212
SWIDTH 1000 0
DWIDTH 34 0
BBX 34 34 0 -5
BITMAP
0000000000
0000000000
0000000000
0000800000
0000E00000
0013F80000
0071FE0000
00F07C0000
0078380000
0078100000
00780FF000
003CFFF800
003FFFFC00
003FFFFE00
01FFE01E00
1FFF000F00
0FFF001F00
0F8F001E00
040F007E00
00079FFC00
00079FF800
0007CFE000
0003CE0000
0003C00000
0003E00000
0001E00000
0001E00000
0001F00000
0000F00000
0000F00000
0000F00000
0000C00000
0000000000
0000000000
ENDCHAR

STARTCHAR Ca4e5
ENCODING 42213
SWIDTH 1000 0
DWIDTH 34 0
BBX 34 34 0 -5
BITMAP
0000000000
0000000000
0000000000
0000000000
0000000000
0000000000
0000000000
0000000000
0000000000
00001C0000
00701C0000
00701C0000
00701C0000
00F07FC000
00E1FFE000
00E7FFF000
00EF9C7800
00EF1C7800
00FE1C3800
00FC1C3800
00F81C3800
00F11C3800
00F39C7800
00E3FCF000
00E1FFF000
00E0FFE000
00E03F8000
00E0780000
0080700000
0001F00000
0000E00000
0000400000
0000000000
0000000000
ENDCHAR

STARTCHAR Ca4e6
ENCODING 42214
SWIDTH 1000 0
DWIDTH 34 0
BBX 34 34 0 -5
BITMAP
0000000000
0000000000
0000000000
0000000000
00001E0000
01C01E0000
01E01E0000
01E01E0000
03C01E0000
03C0FFE000
03C3FFF800
03C7FFFC00
038FDE7C00
039F1E3E00
03BE1E1E00
07FC1E0E00
07F81E0F00
07F01E0F00
07E11E0F00
07E31E1E00
07C79E1E00
07C7FC3E00
0783FFFC00
0381FFF800
03807FF000
03C03FC000
03C0780000
0200F80000
0001F00000
0003F00000
0000E00000
0000400000
0000000000
0000000000
ENDCHAR

STARTCHAR Ca4e7
ENCODING 42215
SWIDTH 1000 0
DWIDTH 34 0
BBX 34 34 0 -5
BITMAP
0000000000
0000000000
0000000000
0000000000
0000000000
0000000000
0000000000
0000000000
0000000000
0000E00000
0000E00000
0000E00000
0000E00000
0000E1C000
0000FFC000
0000FFC000
0000FF8000
0000E00000
0000E00000
0000E00000
0000E00000
0000E00000
001FE00000
007FF80000
00FFFE0000
00E0FF8000
00E0EFE000
00F1E3C000
007FE1C000
003FC04000
000F000000
0000000000
0000000000
0000000000
ENDCHAR

STARTCHAR Ca4e8
ENCODING 42216
SWIDTH 1000 0
DWIDTH 34 0
BBX 34 34 0 -5
BITMAP
0000000000
0000000000
0000000000
0000000000
0001E00000
0001E00000
0001E00000
0001E00000
0001E00000
0001E00000
0001E7E000
0001FFE000
0001FFF000
0001FFC000
0001E00000
0001E00000
0001E00000
0001E00000
0001E00000
0001E00000
0001E00000
007FE00000
01FFFC0000
03FFFF8000
03C0FFE000
0780EFF000
03C1E3F800
03F3E0F000
01FFE06000
00FFC00000
001F000000
0000000000
0000000000
0000000000
ENDCHAR

STARTCHAR Ca4e9
ENCODING 42217
SWIDTH 1000 0
DWIDTH 34 0
BBX 34 34 0 -5
BITMAP
0000000000
0000000000
0000000000
0006000000
0007800000
000FE00000
000FFC0000
0001F80000
0000780000
0000300000
0078000000
0078000000
0070000000
0070000000
0070000000
00F03F0000
00F1FFC000
00E3FFE000
00EFFFF000
00FF80F800
00FE007800
00F8003800
01F0003C00
00F0007800
0000007800
000001F800
000007F000
0007FFE000
0007FFC000
0003FF0000
0003F00000
0000000000
0000000000
0000000000
ENDCHAR

STARTCHAR Ca4ea
ENCODING 42218
SWIDTH 1000 0
DWIDTH 34 0
BBX 34 34 0 -5
BITMAP
0000000000
0000000000
0000000000
0000000000
000003C000
007803C000
007803C000
007003C000
00F003C000
00F003C000
00F003C000
00F003C000
00F003C000
00F003C000
00F103C000
00F343C000
00F383C000
00F783C000
00FF03C000
007F03C000
007E03C000
007C03C000
003807C000
0000078000
00000F8000
00001F0000
00007F0000
0000FE0000
0003FC0000
0001F00000
0000E00000
0000400000
0000000000
0000000000
ENDCHAR

STARTCHAR Ca4eb
ENCODING 42219
SWIDTH 1000 0
DWIDTH 34 0
BBX 34 34 0 -5
BITMAP
0000000000
0000000000
0000000000
0000000000
0000000000
0000010000
00FFFF0000
00FFFF8000
007FFF0000
00783E0000
00007C0000
0000F80000
0001F00000
0003E00000
0007C00000
000FFF0000
001FFFC000
003FFFE000
00FF03F000
01FC00F800
03F0007800
07E0007800
03C7803800
030FE07800
011FF87800
001C7CF800
001C3DF000
001F1FE000
000FFFC000
0007FF0000
0000F80000
0000000000
0000000000
0000000000
ENDCHAR

STARTCHAR Ca4ec
ENCODING 42220
SWIDTH 1000 0
DWIDTH 34 0
BBX 34 34 0 -5
BITMAP
0000000000
0000000000
0000000000
0000000000
003C000000
003C000000
003C000000
003C000000
003C000000
003C078000
0FFF1FC000
0FFE7FC000
0FFCFFE000
0E39F1E000
003FC1E000
003F81E000
007F01C000
007E01C000
00FC03C000
01F803C000
03F803C000
03F803C000
07B803C200
0FB803C700
0F3803C700
1F3803DF00
0E3803FE00
043803FC00
003801F800
003800E000
003C000000
0000000000
0000000000
0000000000
ENDCHAR

STARTCHAR Ca4ed
ENCODING 42221
SWIDTH 1000 0
DWIDTH 34 0
BBX 34 34 0 -5
BITMAP
0000000000
0000000000
0000000000
0000000000
0000000000
0001FE0000
00FFFF0000
00FFFF8000
007FFF0000
00003E0000
00007C0000
0000F80000
0001F00000
0003E00000
0007C00000
000FBFC000
001FFFF000
003FFFF800
007F80F800
00FE003C00
01F8003C00
07F0003C00
03C0003C00
0180003C00
0100007C00
000000F800
000807F800
0007FFF000
0007FFC000
0007FF0000
0003F00000
0000000000
0000000000
0000000000
ENDCHAR

STARTCHAR Ca4ee
ENCODING 42222
SWIDTH 1000 0
DWIDTH 34 0
BBX 34 34 0 -5
BITMAP
0000000000
0000000000
0000000000
0000000000
0000000000
0000000000
0000000000
0000000000
0000000000
000E000000
000E000000
001E000000
001E000000
007E000000
01FF0F0000
01FE7FC000
019FFFE000
001FFBF000
001F80F800
003F007800
003C003800
007C003800
00FC003800
00FC007800
01DC00F000
03DC01F000
039C07E000
011C7FC000
001C3F0000
001C1C0000
001C100000
0000000000
0000000000
0000000000
ENDCHAR

STARTCHAR Ca4ef
ENCODING 42223
SWIDTH 1000 0
DWIDTH 34 0
BBX 34 34 0 -5
BITMAP
0000000000
0000000000
0000000000
0000000000
003C000000
003C000000
003C000000
003C000000
003C000000
003C000000
0FFF000000
0FFE0FC000
07FC7FF000
063DFFF800
003BFFFC00
003FC03E00
007F001E00
007E001E00
00F8000E00
01F8000F00
01F8000E00
03F8001E00
07B8001E00
0FB8003E00
0F3800FC00
1E3801F800
0E380FF000
04383FE000
00383F8000
00381E0000
0038080000
0000000000
0000000000
0000000000
ENDCHAR

STARTCHAR Ca4f0
ENCODING 42224
SWIDTH 1000 0
DWIDTH 34 0
BBX 34 34 0 -5
BITMAP
0000000000
0000000000
0000000000
0000000000
0000000000
00001C0000
007FFE0000
007FFF0000
007FFE0000
00381E0000
00001E0000
00003C0000
00003C0000
0007FF8000
001FFFE000
007FFFF000
00FCF0F800
01F0F07C00
03E1E03C00
07C1E01E00
0783C01E00
0F07C01E00
0F07801E00
0E0F1C1E00
0E1F7F1E00
0E3E7FDC00
0F7CE3FC00
0FF8E0F800
07F07FF800
03E03FF000
00001FC000
0000000000
0000000000
0000000000
ENDCHAR

STARTCHAR Ca4f1
ENCODING 42225
SWIDTH 1000 0
DWIDTH 34 0
BBX 34 34 0 -5
BITMAP
0000000000
0000000000
0000000000
0000000000
0000000000
000FFE0000
003FFF0000
003FFF0000
00383C0000
0000F80000
0001E40000
0007FFC000
000FFFE000
003FC1F000
007E00F000
01F9F07000
00F3F87000
004738F000
0003F7E000
0003FFC000
0003FF0000
0007800000
001F03C000
003C0FF000
00FB1FF800
01FFBEFC00
03FFB83E00
07C3F81E00
1F81F01F00
0F01F00E00
0600E00400
0000000000
0000000000
0000000000
ENDCHAR

STARTCHAR Ca4f2
ENCODING 42226
SWIDTH 1000 0
DWIDTH 34 0
BBX 34 34 0 -5
BITMAP
0000000000
0000000000
0000000000
0000000000
0003C00000
0003800000
0007800000
00079F0000
01FFFF0000
01FFFF0000
01FFFC0000
001E000000
001C000000
003CE00000
003BF01800
007FF87800
00FE7FFC00
00F83FFC00
01F03FE000
03E0FF0000
07C1FE0000
0187FE0000
008F9E0000
000F1E0000
001E1E0000
001E000000
001E000000
001FEFF000
001FFFF000
0007FFF000
0000FFF000
0000000000
0000000000
0000000000
ENDCHAR

STARTCHAR Ca4f3
ENCODING 42227
SWIDTH 1000 0
DWIDTH 34 0
BBX 34 34 0 -5
BITMAP
0000000000
0000000000
0000000000
0000000000
0000400000
0000E00000
0001F00000
0001E00000
0003E00000
0003C00000
0007C00000
0007800000
000F800000
000F000000
001E000000
001E000000
003C600000
003FF80000
007FF80000
007FF80000
00FC3C0000
00F83C0400
01F03C0C00
01E03C0F00
03E03C1E00
03C03C3E00
07C03C7C00
07803FF800
0F801FF000
0F001FE000
03000FC000
0000000000
0000000000
0000000000
ENDCHAR

STARTCHAR Ca5a1
ENCODING 42401
SWIDTH 1000 0
DWIDTH 34 0
BBX 34 34 0 -5
BITMAP
0000000000
0000000000
0000000000
0000000000
0000000000
0000000000
0000000000
0000000000
0000000000
0000000000
0000000000
00001FC000
00FFFFE000
00FFFFF000
00FFFFE000
000001E000
0001C3C000
0001C3C000
0001C78000
0001CF0000
0001FE0000
0001DC0000
0003C40000
0003C00000
0007800000
0007800000
000F000000
001F000000
00FE000000
0078000000
0070000000
0020000000
0000000000
0000000000
ENDCHAR

STARTCHAR Ca5a2
ENCODING 42402
SWIDTH 1000 0
DWIDTH 34 0
BBX 34 34 0 -5
BITMAP
0000000000
0000000000
0000000000
0000000000
0000000000
0000000000
0000000000
000FFFF000
03FFFFF800
03FFFFFC00
03FFFFFC00
0300007800
000000F000
0003C1F000
0003C1E000
0003C3C000
0003C7C000
0003CF8000
0003DF0000
0003CE0000
0003C40000
0007C00000
0007800000
000F800000
001F000000
003F000000
007E000000
00FC000000
03F8000000
01F0000000
00E0000000
0040000000
0000000000
0000000000
ENDCHAR

STARTCHAR Ca5a3
ENCODING 42403
SWIDTH 1000 0
DWIDTH 34 0
BBX 34 34 0 -5
BITMAP
0000000000
0000000000
0000000000
0000000000
0000000000
0000000000
0000000000
0000000000
0000010000
0000034000
0000078000
00000F8000
00001F0000
00003E0000
00007C0000
0000F80000
0001F80000
0003F80000
000FF80000
003FF80000
01FE780000
00FC780000
00F0780000
0040780000
0000780000
0000780000
0000780000
0000780000
0000780000
0000780000
0000780000
0000000000
0000000000
0000000000
ENDCHAR

STARTCHAR Ca5a4
ENCODING 42404
SWIDTH 1000 0
DWIDTH 34 0
BBX 34 34 0 -5
BITMAP
0000000000
0000000000
0000000000
0000000000
0000018000
000003C000
000007E000
000007C000
00000F8000
00001F0000
00003E0000
00007C0000
0001F80000
0003F80000
0007F80000
001FF80000
007FF80000
00FE780000
07FC780000
07F0780000
03E0780000
0180780000
0000780000
0000780000
0000780000
0000780000
0000780000
0000780000
0000780000
0000780000
0000780000
0000000000
0000000000
0000000000
ENDCHAR

STARTCHAR Ca5a5
ENCODING 42405
SWIDTH 1000 0
DWIDTH 34 0
BBX 34 34 0 -5
BITMAP
0000000000
0000000000
0000000000
0000000000
0000000000
0000000000
0000000000
0000000000
0000000000
0000E00000
0000E00000
0000E00000
0000E00000
00FFFFC000
00FFFFE000
00FFFFE000
00E001E000
00E001C000
00E001C000
00E003C000
00E003C000
00E0078000
0000078000
00000F0000
00001F0000
00003E0000
00007C0000
0001F80000
000FF00000
0007E00000
0003800000
0001000000
0000000000
0000000000
ENDCHAR

STARTCHAR Ca5a6
ENCODING 42406
SWIDTH 1000 0
DWIDTH 34 0
BBX 34 34 0 -5
BITMAP
0000000000
0000000000
0000000000
0000000000
0001E00000
0001E00000
0001E00000
0001E00000
0001E00000
03FFFFE000
03FFFFF000
03FFFFF800
03FFFFF800
03C000F000
03C000F000
03C000F000
03C000F000
03C001F000
03C001E000
03C003E000
000003E000
000007C000
00000F8000
00001F8000
00003F0000
00007E0000
0000FC0000
0003F80000
001FF00000
000FC00000
0007800000
0002000000
0000000000
0000000000
ENDCHAR

STARTCHAR Ca5a7
ENCODING 42407
SWIDTH 1000 0
DWIDTH 34 0
BBX 34 34 0 -5
BITMAP
0000000000
0000000000
0000000000
0000000000
0000000000
0000000000
0000000000
0000000000
0000000000
0000000000
0000000000
0000000000
007FFFC000
007FFFC000
007FFFC000
0000E00000
0000E00000
0000E00000
0000E00000
0000E00000
0000E00000
0000E00000
0000E00000
0000E00000
0000E00000
01FFFFF000
01FFFFF000
01FFFFF000
0000000000
0000000000
0000000000
0000000000
0000000000
0000000000
ENDCHAR

STARTCHAR Ca5a8
ENCODING 42408
SWIDTH 1000 0
DWIDTH 34 0
BBX 34 34 0 -5
BITMAP
0000000000
0000000000
0000000000
0000000000
0000000000
0000000000
0000000000
0000000000
01FFFFF000
01FFFFF000
01FFFFF000
01FFFFF000
0000F00000
0000F00000
0000F00000
0000F00000
0000F00000
0000F00000
0000F00000
0000F00000
0000F00000
0000F00000
0000F00000
0000F00000
0FFFFFFE00
0FFFFFFE00
0FFFFFFE00
0FFFFFFE00
0000000000
0000000000
0000000000
0000000000
0000000000
0000000000
ENDCHAR

STARTCHAR Ca5a9
ENCODING 42409
SWIDTH 1000 0
DWIDTH 34 0
BBX 34 34 0 -5
BITMAP
0000000000
0000000000
0000000000
0000000000
0000000000
0000000000
0000000000
0000000000
0000000000
00001C0000
00001C0000
00001C0000
00001C0000
00FFFFF000
00FFFFF000
00FFFFF000
00007C0000
0000FC0000
0000FC0000
0001DC0000
0003DC0000
00079C0000
001F1C0000
003E1C0000
007C1C0000
01F81C0000
01F01C0000
00C3FC0000
0001FC0000
0001FC0000
0000F00000
0000000000
0000000000
0000000000
ENDCHAR

STARTCHAR Ca5aa
ENCODING 42410
SWIDTH 1000 0
DWIDTH 34 0
BBX 34 34 0 -5
BITMAP
0000000000
0000000000
0000000000
0000000000
00001E0000
00001E0000
00001E0000
00001E0000
00001E0000
00001E0000
03FFFFFE00
03FFFFFE00
03FFFFFE00
03FFFFFE00
0000FE0000
0000FE0000
0001FE0000
0003DE0000
0007DE0000
000F9E0000
001F1E0000
007E1E0000
00FC1E0000
03F81E0000
0FF01E0000
07E01E0000
07801E0000
0303FE0000
0003FE0000
0001FE0000
0001F80000
0000000000
0000000000
0000000000
ENDCHAR

STARTCHAR Ca5ab
ENCODING 42411
SWIDTH 1000 0
DWIDTH 34 0
BBX 34 34 0 -5
BITMAP
0000000000
0000000000
0000000000
0000000000
0000000000
0003C00000
0003C00000
0003C00000
0003C00000
0003C00000
0003FFF000
03FFFFF000
03FFFFF000
03FFFFF000
0003C0F000
0003C0F000
0003C0F000
0007C0F000
000780F000
000F80F000
000F80E000
001F01E000
003F01E000
007E01E000
00FC01E000
01F871E000
03F87FE000
07F07FC000
03C07FC000
01800F8000
0080000000
0000000000
0000000000
0000000000
ENDCHAR

STARTCHAR Ca5ac
ENCODING 42412
SWIDTH 1000 0
DWIDTH 34 0
BBX 34 34 0 -5
BITMAP
0000000000
0000000000
0000000600
0000000F00
0000001700
0003C03340
0003C07900
0003C03F00
0003C01C00
0003C00800
0003FFF000
03FFFFF000
03FFFFF000
03FFFFF000
0003C0F000
0003C0F000
0003C0F000
0007C0F000
000780F000
000F80F000
000F80E000
001F01E000
003F01E000
007E01E000
00FC01E000
01F871E000
03F87FE000
07F07FC000
03C07FC000
01800F8000
0080000000
0000000000
0000000000
0000000000
ENDCHAR

STARTCHAR Ca5ad
ENCODING 42413
SWIDTH 1000 0
DWIDTH 34 0
BBX 34 34 0 -5
BITMAP
0000000000
0000000000
0000000000
0000000000
0000000000
0003800000
0007800000
0003800000
0003C00000
0003C3C000
0003FFE000
007FFFE000
03FFFFE000
03FFF00000
03FDE00000
0101E00000
0001E03C00
0000EFFC00
0003FFFC00
01FFFFFE00
07FFFFC000
07FFF00000
07F8F00000
0200700000
0000780000
0000780000
0000780000
0000780000
0000780000
00003C0000
0000380000
0000000000
0000000000
0000000000
ENDCHAR

STARTCHAR Ca5ae
ENCODING 42414
SWIDTH 1000 0
DWIDTH 34 0
BBX 34 34 0 -5
BITMAP
0000000000
0000000200
0000000600
0000000F00
000000B700
0003807B00
0007803A00
0003803C00
0003C01000
0003C3C000
0003FFE000
007FFFE000
03FFFFE000
03FFF00000
03FDE00000
0101E00000
0001E03C00
0000EFFC00
0003FFFC00
01FFFFFE00
07FFFFC000
07FFF00000
07F8F00000
0200700000
0000780000
0000780000
0000780000
0000780000
0000780000
00003C0000
0000380000
0000000000
0000000000
0000000000
ENDCHAR

STARTCHAR Ca5af
ENCODING 42415
SWIDTH 1000 0
DWIDTH 34 0
BBX 34 34 0 -5
BITMAP
0000000000
0000000000
0000000000
0000000000
0001800000
0001E00000
0003C00000
0003C00000
0007C00000
0007FFC000
000FFFC000
001FFFE000
001FFFE000
003E03E000
007C03C000
00F803C000
01F007C000
03F0078000
07E00F8000
01C00F0000
00801F0000
00003E0000
00003E0000
00007C0000
0001F80000
0003F00000
0007E00000
001FC00000
00FF800000
007F000000
003C000000
0010000000
0000000000
0000000000
ENDCHAR

STARTCHAR Ca5b0
ENCODING 42416
SWIDTH 1000 0
DWIDTH 34 0
BBX 34 34 0 -5
BITMAP
0000000000
0000000000
0000000200
0000000700
0001800700
0001E05B40
0003C03D00
0003C03E00
0007C01C00
0007FFC800
000FFFC000
001FFFE000
001FFFE000
003E03E000
007C03C000
00F803C000
01F007C000
03F0078000
07E00F8000
01C00F0000
00801F0000
00003E0000
00003E0000
00007C0000
0001F80000
0003F00000
0007E00000
001FC00000
00FF800000
007F000000
003C000000
0010000000
0000000000
0000000000
ENDCHAR

STARTCHAR Ca5b1
ENCODING 42417
SWIDTH 1000 0
DWIDTH 34 0
BBX 34 34 0 -5
BITMAP
0000000000
0000000000
0000000000
0000000000
0008000000
000F000000
000F000000
001F000000
001E000000
001E000000
003FFFFE00
003FFFFE00
007FFFFE00
007FFFFE00
00F81E0000
01F01E0000
03F01E0000
07E01E0000
0FC01E0000
03801E0000
01003C0000
00003C0000
00007C0000
0000F80000
0001F80000
0003F00000
0007E00000
000FC00000
003F800000
001F000000
000E000000
0000000000
0000000000
0000000000
ENDCHAR

STARTCHAR Ca5b2
ENCODING 42418
SWIDTH 1000 0
DWIDTH 34 0
BBX 34 34 0 -5
BITMAP
0000000000
0000000000
0000000600
0000000E00
0008002700
000F00F700
000F007B00
001F003800
001E003000
001E001000
003FFFFE00
003FFFFE00
007FFFFE00
007FFFFE00
00F81E0000
01F01E0000
03F01E0000
07E01E0000
0FC01E0000
03801E0000
01003C0000
00003C0000
00007C0000
0000F80000
0001F80000
0003F00000
0007E00000
000FC00000
003F800000
001F000000
000E000000
0000000000
0000000000
0000000000
ENDCHAR

STARTCHAR Ca5b3
ENCODING 42419
SWIDTH 1000 0
DWIDTH 34 0
BBX 34 34 0 -5
BITMAP
0000000000
0000000000
0000000000
0000000000
0000000000
0000000000
0000000000
0000000000
01FFFFF000
01FFFFF000
01FFFFF000
01FFFFF000
000000F000
000000F000
000000F000
000000F000
000000F000
000000F000
000000F000
000000F000
000000F000
000000F000
000000F000
000000F000
01FFFFF000
01FFFFF000
01FFFFF000
000000F000
000000F000
0000000000
0000000000
0000000000
0000000000
0000000000
ENDCHAR

STARTCHAR Ca5b4
ENCODING 42420
SWIDTH 1000 0
DWIDTH 34 0
BBX 34 34 0 -5
BITMAP
0000000000
0000000000
0000000300
0000000700
0000001B00
0000003940
0000001D00
0000001E00
01FFFFF800
01FFFFF000
01FFFFF000
01FFFFF000
000000F000
000000F000
000000F000
000000F000
000000F000
000000F000
000000F000
000000F000
000000F000
000000F000
000000F000
000000F000
01FFFFF000
01FFFFF000
01FFFFF000
000000F000
000000F000
0000000000
0000000000
0000000000
0000000000
0000000000
ENDCHAR

STARTCHAR Ca5b5
ENCODING 42421
SWIDTH 1000 0
DWIDTH 34 0
BBX 34 34 0 -5
BITMAP
0000000000
0000000000
0000000000
0000000000
0000000000
003C078000
003C078000
003C078000
003C078000
003C078000
003C078000
1FFFFFFF00
1FFFFFFF00
1FFFFFFF00
1FFFFFFF00
003C078000
003C078000
003C078000
003C078000
003C078000
003C078000
003C0F0000
00000F0000
00001F0000
00003E0000
00003E0000
00007C0000
0001F80000
000BF00000
0007E00000
0003C00000
0001800000
0000000000
0000000000
ENDCHAR

STARTCHAR Ca5b6
ENCODING 42422
SWIDTH 1000 0
DWIDTH 34 0
BBX 34 34 0 -5
BITMAP
0000000000
0000000000
0000000000
0000000700
0000001700
007C07FB00
007C07BB40
007C07BD00
007C079800
007C079000
007C078000
1FFFFFFE00
1FFFFFFE00
1FFFFFFE00
1FFFFFFE00
007C078000
007C0F0000
007C0F0000
007C0F0000
007C0F0000
007C0F0000
007C1F0000
00001E0000
00003E0000
00003E0000
00007C0000
0000F80000
0001F80000
0007F00000
000FE00000
0007800000
0003000000
0000000000
0000000000
ENDCHAR

STARTCHAR Ca5b7
ENCODING 42423
SWIDTH 1000 0
DWIDTH 34 0
BBX 34 34 0 -5
BITMAP
0000000000
0000000000
0000000000
0000000000
0000000000
0020000000
0038000000
00FE000000
007F000000
003F800000
000F000000
0006000000
0202001000
0380001800
07C0003E00
0FF0007C00
03F800F800
01F001F800
006003F000
002007E000
00001FC000
00003F8000
0000FE0000
0003FC0000
000FF80000
003FE00000
01FFC00000
03FF000000
01FC000000
00E0000000
0080000000
0000000000
0000000000
0000000000
ENDCHAR

STARTCHAR Ca5b8
ENCODING 42424
SWIDTH 1000 0
DWIDTH 34 0
BBX 34 34 0 -5
BITMAP
0000000000
0000000000
0000000100
0000000F00
0000001700
002000F700
0038007B40
00FE003900
007F003C00
003F801000
000F000000
0006000000
0202001000
0380001800
07C0003E00
0FF0007C00
03F800F800
01F001F800
006003F000
002007E000
00001FC000
00003F8000
0000FE0000
0003FC0000
000FF80000
003FE00000
01FFC00000
03FF000000
01FC000000
00E0000000
0080000000
0000000000
0000000000
0000000000
ENDCHAR

STARTCHAR Ca5b9
ENCODING 42425
SWIDTH 1000 0
DWIDTH 34 0
BBX 34 34 0 -5
BITMAP
0000000000
0000000000
0000000000
0000000000
0000000000
0000000000
0000000000
01FFFF0000
01FFFF0000
01FFFF8000
01FFFF8000
00000F8000
00000F0000
00001F0000
00003E0000
00003C0000
00007C0000
0000F80000
0000F80000
0001FC0000
0003FF0000
0007FF8000
001F8FC000
003F07E000
00FE03F000
01FC01F800
07F800FC00
0FE0007800
07C0003000
0300001000
0000000000
0000000000
0000000000
0000000000
ENDCHAR

STARTCHAR Ca5ba
ENCODING 42426
SWIDTH 1000 0
DWIDTH 34 0
BBX 34 34 0 -5
BITMAP
0000000000
0000000000
0000000100
0000000F00
0000001700
0000007340
0000007B00
01FFFF3D00
01FFFF3800
01FFFF9000
01FFFF8000
00000F8000
00000F0000
00001F0000
00003E0000
00003C0000
00007C0000
0000F80000
0000F80000
0001FC0000
0003FF0000
0007FF8000
001F8FC000
003F07E000
00FE03F000
01FC01F800
07F800FC00
0FE0007800
07C0003000
0300001000
0000000000
0000000000
0000000000
0000000000
ENDCHAR

STARTCHAR Ca5bb
ENCODING 42427
SWIDTH 1000 0
DWIDTH 34 0
BBX 34 34 0 -5
BITMAP
0000000000
0000000000
0000000000
0000000000
0000000000
000F000000
000F000000
000F000000
000F000000
000F000000
000F003000
000F3FF800
001FFFFC00
07FFFFFC00
07FFFFF800
07FF80F800
078F01F000
000F03E000
000F07C000
000F0F8000
000F1F0000
000F060000
000F020000
000F000000
000F000000
000F000000
000FFFFC00
000FFFFC00
000FFFFC00
0007FFFC00
0000000000
0000000000
0000000000
0000000000
ENDCHAR

STARTCHAR Ca5bc
ENCODING 42428
SWIDTH 1000 0
DWIDTH 34 0
BBX 34 34 0 -5
BITMAP
0000000000
0000000000
0000000200
0000000F00
000000F700
000F007300
000F007B00
000F003800
000F002000
000F000000
000F003000
000F3FF800
001FFFFC00
07FFFFFC00
07FFFFF800
07FF80F800
078F01F000
000F03E000
000F07C000
000F0F8000
000F1F0000
000F060000
000F020000
000F000000
000F000000
000F000000
000FFFFC00
000FFFFC00
000FFFFC00
0007FFFC00
0000000000
0000000000
0000000000
0000000000
ENDCHAR

STARTCHAR Ca5bd
ENCODING 42429
SWIDTH 1000 0
DWIDTH 34 0
BBX 34 34 0 -5
BITMAP
0000000000
0000000000
0000000000
0000000000
0000000000
0000000000
0040002000
01C0007C00
03E0007800
01F0007800
01F000F800
00F800F000
00F801F000
007C01F000
003C01E000
003003E000
000007C000
000007C000
00000F8000
00001F0000
00003F0000
00007E0000
0000FC0000
0001F80000
0003F00000
000FE00000
001FC00000
007F800000
003E000000
001C000000
0008000000
0000000000
0000000000
0000000000
ENDCHAR

STARTCHAR Ca5be
ENCODING 42430
SWIDTH 1000 0
DWIDTH 34 0
BBX 34 34 0 -5
BITMAP
0000000000
0000000100
0000000700
0000001700
0000007300
0000007B40
0080003900
01C0001C00
07C0009000
03E000E000
01F000F000
01F001F000
00F801E000
00FC03E000
007803C000
006007C000
0000078000
00000F8000
00001F0000
00003F0000
00003E0000
00007C0000
0000F80000
0003F80000
0007F00000
000FE00000
003F800000
00FF000000
007E000000
0038000000
0010000000
0000000000
0000000000
0000000000
ENDCHAR

STARTCHAR Ca5bf
ENCODING 42431
SWIDTH 1000 0
DWIDTH 34 0
BBX 34 34 0 -5
BITMAP
0000000000
0000000000
0000000000
0000000000
0001800000
0001E00000
0003E00000
0003C00000
0007C00000
0007FFE000
000FFFE000
000FFFF000
001E01E000
003E01E000
007C03E000
00FE03C000
01FF03C000
03FFC78000
07E7EF8000
07C3FF0000
0181FF0000
0000FE0000
00007C0000
00007C0000
0000F80000
0003F00000
0007E00000
001FC00000
007F800000
01FF000000
00FC000000
0070000000
0000000000
0000000000
ENDCHAR

STARTCHAR Ca5c0
ENCODING 42432
SWIDTH 1000 0
DWIDTH 34 0
BBX 34 34 0 -5
BITMAP
0000000000
0000000000
0000000000
0000000700
0001801300
0001E07B00
0003E03940
0003C01D00
0007C01C00
0007FFE800
000FFFE000
000FFFF000
001E01E000
003E01E000
007C03E000
00FE03C000
01FF03C000
03FFC78000
07E7EF8000
07C3FF0000
0181FF0000
0000FE0000
00007C0000
00007C0000
0000F80000
0003F00000
0007E00000
001FC00000
007F800000
01FF000000
00FC000000
0070000000
0000000000
0000000000
ENDCHAR

STARTCHAR Ca5c1
ENCODING 42433
SWIDTH 1000 0
DWIDTH 34 0
BBX 34 34 0 -5
BITMAP
0000000000
0000000000
0000000000
0000000000
0000000000
0000038000
00007FC000
017FFFE000
00FFFF8000
00FFF80000
007EF00000
0000F00000
0000F00000
0000F00000
0000FFFE00
0FFFFFFE00
0FFFFFFE00
0FFFFFFE00
0000F00000
0000F00000
0000F00000
0000F00000
0001E00000
0001E00000
0003E00000
0007C00000
001F800000
003F000000
01FE000000
00FC000000
0078000000
0020000000
0000000000
0000000000
ENDCHAR

STARTCHAR Ca5c2
ENCODING 42434
SWIDTH 1000 0
DWIDTH 34 0
BBX 34 34 0 -5
BITMAP
0000000000
0000000000
0000000000
0000000000
0000000300
0000033B00
00007F9D40
017FFFDD40
00FFFF9C00
00FFF80800
007EF00000
0000F00000
0000F00000
0000F00000
0000FFFE00
0FFFFFFE00
0FFFFFFE00
0FFFFFFE00
0000F00000
0000F00000
0000F00000
0000F00000
0001E00000
0001E00000
0003E00000
0007C00000
001F800000
003F000000
01FE000000
00FC000000
0078000000
0020000000
0000000000
0000000000
ENDCHAR

STARTCHAR Ca5c3
ENCODING 42435
SWIDTH 1000 0
DWIDTH 34 0
BBX 34 34 0 -5
BITMAP
0000000000
0000000000
0000000000
0000000000
0000000000
0000000000
0000000000
0000000000
0000000000
0000000000
0000400000
0003C0C000
0063C0E000
01E1E1E000
00F1E1E000
00F0E1C000
0078F3C000
007883C000
0060038000
0000078000
00000F0000
00000F0000
00001E0000
00003C0000
0000FC0000
0001F80000
0007F00000
003FC00000
001F800000
000E000000
0004000000
0000000000
0000000000
0000000000
ENDCHAR

STARTCHAR Ca5c4
ENCODING 42436
SWIDTH 1000 0
DWIDTH 34 0
BBX 34 34 0 -5
BITMAP
0000000000
0000000000
0000000000
0000000000
0000000000
0000000000
0000C00000
0003C07000
0183C07800
07C3E07800
03C1E07800
03E1F0F800
01E0F0F000
01F0F0F000
01F0C1F000
00E001E000
008003E000
000003C000
000007C000
00000F8000
00001F8000
00003F0000
00007E0000
0000FC0000
0003F80000
000FF00000
003FE00000
007F800000
003E000000
001C000000
0000000000
0000000000
0000000000
0000000000
ENDCHAR

STARTCHAR Ca5c5
ENCODING 42437
SWIDTH 1000 0
DWIDTH 34 0
BBX 34 34 0 -5
BITMAP
0000000000
0000000000
0000000300
0000000700
0000007300
0000003940
0000C01D00
0003C01C00
0183C04800
07C3E07000
03C1E07800
03E1F0F800
01E0F0F000
01F0F0F000
01F0C1F000
00E001E000
008003E000
000003C000
000007C000
00000F8000
00001F8000
00003F0000
00007E0000
0000FC0000
0003F80000
000FF00000
003FE00000
007F800000
003F000000
001C000000
0000000000
0000000000
0000000000
0000000000
ENDCHAR

STARTCHAR Ca5c6
ENCODING 42438
SWIDTH 1000 0
DWIDTH 34 0
BBX 34 34 0 -5
BITMAP
0000000000
0000000000
0000000000
0000000000
0000000000
007FFFC000
007FFFC000
007FFFC000
007FFFC000
0000000000
0000000000
0000000000
0000000000
0FFFFFFE00
0FFFFFFE00
0FFFFFFE00
0FFFFFFE00
0000F00000
0000F00000
0000F00000
0000F00000
0001F00000
0001E00000
0003E00000
0007C00000
000FC00000
001F800000
007F000000
00FE000000
0078000000
0030000000
0000000000
0000000000
0000000000
ENDCHAR

STARTCHAR Ca5c7
ENCODING 42439
SWIDTH 1000 0
DWIDTH 34 0
BBX 34 34 0 -5
BITMAP
0000000000
0000000000
0000000300
0000001700
0000007B00
007FFFB940
007FFF9D00
007FFF9800
007FFF8000
0000000000
0000000000
0000000000
0000000000
0FFFFFFE00
0FFFFFFE00
0FFFFFFE00
0FFFFFFE00
0000F00000
0000F00000
0000F00000
0000F00000
0001F00000
0001E00000
0003E00000
0007C00000
000FC00000
001F800000
007F000000
00FE000000
0078000000
0030000000
0000000000
0000000000
0000000000
ENDCHAR

STARTCHAR Ca5c8
ENCODING 42440
SWIDTH 1000 0
DWIDTH 34 0
BBX 34 34 0 -5
BITMAP
0000000000
0000000000
0000000000
0000000000
000F000000
000F000000
000F000000
000F000000
000F000000
000F000000
000F000000
000F000000
000F000000
000F800000
000FE00000
000FF80000
000FFE0000
000F7F0000
000F3FC000
000F0FE000
000F03F800
000F01F000
000F00E000
000F002000
000F000000
000F000000
000F000000
000F000000
000F000000
000F000000
000F000000
000F000000
0000000000
0000000000
ENDCHAR

STARTCHAR Ca5c9
ENCODING 42441
SWIDTH 1000 0
DWIDTH 34 0
BBX 34 34 0 -5
BITMAP
0000000000
0000000000
0000000000
0000000000
000F003C00
000F001C00
000F01DE00
000F03CE00
000F01EC00
000F00E000
000F00C000
000F000000
000F000000
000F800000
000FE00000
000FF80000
000FFE0000
000F7F0000
000F3FC000
000F0FE000
000F03F800
000F01F000
000F00E000
000F002000
000F000000
000F000000
000F000000
000F000000
000F000000
000F000000
000F000000
000F000000
0000000000
0000000000
ENDCHAR

STARTCHAR Ca5ca
ENCODING 42442
SWIDTH 1000 0
DWIDTH 34 0
BBX 34 34 0 -5
BITMAP
0000000000
0000000000
0000000000
0000000000
0000F00000
0000F00000
0000F00000
0000F00000
0000F00000
0000F00000
0000F00000
0FFFFFFE00
0FFFFFFE00
0FFFFFFE00
0FFFFFFE00
0000F00000
0000F00000
0000F00000
0000F00000
0000F00000
0000F00000
0001F00000
0001E00000
0003E00000
0007C00000
000FC00000
001F800000
00FF000000
007E000000
003C000000
0010000000
0000000000
0000000000
0000000000
ENDCHAR

STARTCHAR Ca5cb
ENCODING 42443
SWIDTH 1000 0
DWIDTH 34 0
BBX 34 34 0 -5
BITMAP
0000000000
0000000000
0000000000
0000000000
0000000000
0000000000
0000000000
0000000000
0000000000
007FFFE000
007FFFE000
007FFFE000
007FFFE000
0000000000
0000000000
0000000000
0000000000
0000000000
0000000000
0000000000
0000000000
0000000000
07FFFFFC00
07FFFFFC00
07FFFFFC00
07FFFFFC00
0000000000
0000000000
0000000000
0000000000
0000000000
0000000000
0000000000
0000000000
ENDCHAR

STARTCHAR Ca5cc
ENCODING 42444
SWIDTH 1000 0
DWIDTH 34 0
BBX 34 34 0 -5
BITMAP
0000000000
0000000000
0000000000
0000000000
0000000000
0000000000
0000000000
00FFFFC000
00FFFFE000
00FFFFF000
00FFF9E000
000003E000
000003C000
000807C000
000C078000
001F0F8000
003F8F0000
000FFF0000
0007FE0000
0001FC0000
0000FC0000
0001FE0000
0003FF8000
0007EFC000
001FC7C000
003F83E000
00FF03F000
07FC01E000
03F800C000
01E0000000
0080000000
0000000000
0000000000
0000000000
ENDCHAR

STARTCHAR Ca5cd
ENCODING 42445
SWIDTH 1000 0
DWIDTH 34 0
BBX 34 34 0 -5
BITMAP
0000000000
0000000000
0000000000
0000000000
0000F00000
0000F00000
0000F00000
0000F00000
0000F00000
00FFFFC000
00FFFFC000
00FFFFE000
00FFFFE000
000007C000
00000F8000
00001F0000
00007E0000
0000FD0000
0003F18000
0007F7E000
001FF3F000
007FF1F800
03FEF0FC00
07F8F07E00
03F0F01C00
01C0F00800
0000F00000
0000F00000
0000F00000
0000F00000
0000F00000
0000F00000
0000000000
0000000000
ENDCHAR

STARTCHAR Ca5ce
ENCODING 42446
SWIDTH 1000 0
DWIDTH 34 0
BBX 34 34 0 -5
BITMAP
0000000000
0000000000
0000000000
0000000000
0000000000
0000000000
0000018000
000001E000
000001E000
000003E000
000003C000
000007C000
000007C000
00000F8000
00000F8000
00001F0000
00003E0000
00003E0000
00007C0000
0000F80000
0001F80000
0003F00000
0007E00000
001FC00000
003F800000
007F000000
03FE000000
01F8000000
00F0000000
0040000000
0000000000
0000000000
0000000000
0000000000
ENDCHAR

STARTCHAR Ca5cf
ENCODING 42447
SWIDTH 1000 0
DWIDTH 34 0
BBX 34 34 0 -5
BITMAP
0000000000
0000000000
0000000000
0000000000
0000000000
0000000000
0000000000
0000000000
0000000000
0008010000
001F0F8000
001E07C000
003E07C000
003E03E000
003C01F000
007C01F800
007800F800
00F8007C00
01F0007C00
01F0003E00
03E0003E00
07E0001F00
0FC0001F00
1F80001F00
0F00000F00
0700000C00
0200000000
0000000000
0000000000
0000000000
0000000000
0000000000
0000000000
0000000000
ENDCHAR

STARTCHAR Ca5d0
ENCODING 42448
SWIDTH 1000 0
DWIDTH 34 0
BBX 34 34 0 -5
BITMAP
0000000000
0000000000
0000000200
0000000E00
0000002F00
000000F700
0000007300
0000007A00
0000003C00
0008013000
001F0F8000
001E07C000
003E07C000
003E03E000
003C01F000
007C01F800
007800F800
00F8007C00
01F0007C00
01F0003E00
03E0003E00
07E0001F00
0FC0001F00
1F80001F00
0F00000F00
0700000C00
0200000000
0000000000
0000000000
0000000000
0000000000
0000000000
0000000000
0000000000
ENDCHAR

STARTCHAR Ca5d1
ENCODING 42449
SWIDTH 1000 0
DWIDTH 34 0
BBX 34 34 0 -5
BITMAP
0000000000
0000000000
0000000E00
0000003F00
0000003100
0000007100
0000007100
0000003100
0000003F00
0008010E00
001F0F8000
001E07C000
003E07C000
003E03E000
003C01F000
007C01F800
007800F800
00F8007C00
01F0007C00
01F0003E00
03E0003E00
07E0001F00
0FC0001F00
1F80001F00
0F00000F00
0700000C00
0200000000
0000000000
0000000000
0000000000
0000000000
0000000000
0000000000
0000000000
ENDCHAR

STARTCHAR Ca5d2
ENCODING 42450
SWIDTH 1000 0
DWIDTH 34 0
BBX 34 34 0 -5
BITMAP
0000000000
0000000000
0000000000
0000000000
0000000000
00F0000000
00F0000000
00F0000000
00F0000000
00F0010000
00F0078000
00F01FE000
00F07FC000
00F1FF0000
00FFFC0000
00FFF00000
00FF800000
00FC000000
00F0000000
00F0000000
00F0000000
00F0000000
00F0000000
00F0000000
00F8000800
007FFFF800
007FFFF800
003FFFF800
0003FFC000
0000000000
0000000000
0000000000
0000000000
0000000000
ENDCHAR

STARTCHAR Ca5d3
ENCODING 42451
SWIDTH 1000 0
DWIDTH 34 0
BBX 34 34 0 -5
BITMAP
0000000000
0000000000
0000000000
0000000600
0000000F00
00F0006700
00F000F300
00F0007A00
00F0003C00
00F0013000
00F0078000
00F01FE000
00F07FC000
00F1FF0000
00FFFC0000
00FFF00000
00FF800000
00FC000000
00F0000000
00F0000000
00F0000000
00F0000000
00F0000000
00F0000000
00F8000800
007FFFF800
007FFFF800
003FFFF800
0003FFC000
0000000000
0000000000
0000000000
0000000000
0000000000
ENDCHAR

STARTCHAR Ca5d4
ENCODING 42452
SWIDTH 1000 0
DWIDTH 34 0
BBX 34 34 0 -5
BITMAP
0000000000
0000000000
0000003E00
0000007F00
000000E300
00F000C300
00F000E300
00F0007F00
00F0003E00
00F0010800
00F0078000
00F01FE000
00F07FC000
00F1FF0000
00FFFC0000
00FFF00000
00FF800000
00FC000000
00F0000000
00F0000000
00F0000000
00F0000000
00F0000000
00F0000000
00F8000800
007FFFF800
007FFFF800
003FFFF800
0003FFC000
0000000000
0000000000
0000000000
0000000000
0000000000
ENDCHAR

STARTCHAR Ca5d5
ENCODING 42453
SWIDTH 1000 0
DWIDTH 34 0
BBX 34 34 0 -5
BITMAP
0000000000
0000000000
0000000000
0000000000
0000000000
0000000000
0000000000
03FFFFC000
03FFFFE000
03FFFFF000
03FFFFF000
000001F000
000001E000
000001E000
000003E000
000003C000
000007C000
00000F8000
00000F8000
00001F0000
00003E0000
00007E0000
0001FC0000
0003F80000
000FF00000
003FC00000
00FF800000
00FE000000
007C000000
0020000000
0000000000
0000000000
0000000000
0000000000
ENDCHAR

STARTCHAR Ca5d6
ENCODING 42454
SWIDTH 1000 0
DWIDTH 34 0
BBX 34 34 0 -5
BITMAP
0000000000
0000000200
0000002F00
0000006700
000000F340
0000007D00
0000003800
03FFFFD000
03FFFFC000
03FFFFE000
03FFFFE000
000003E000
000003C000
000003C000
000007C000
0000078000
00000F8000
00000F0000
00001F0000
00003E0000
00007C0000
0000FC0000
0003F80000
0007F00000
001FE00000
007F800000
01FF000000
00FC000000
0070000000
0040000000
0000000000
0000000000
0000000000
0000000000
ENDCHAR

STARTCHAR Ca5d7
ENCODING 42455
SWIDTH 1000 0
DWIDTH 34 0
BBX 34 34 0 -5
BITMAP
0000000000
0000000000
0000000000
0000001E00
0000003F00
0000007300
0000006100
03FFFFE100
03FFFFF300
03FFFFFF00
03FFFFFE00
000001F000
000001E000
000001E000
000003E000
000003C000
000007C000
00000F8000
00000F8000
00001F0000
00003E0000
00007E0000
0001FC0000
0003F80000
000FF00000
003FC00000
00FF800000
00FE000000
007C000000
0020000000
0000000000
0000000000
0000000000
0000000000
ENDCHAR

STARTCHAR Ca5d8
ENCODING 42456
SWIDTH 1000 0
DWIDTH 34 0
BBX 34 34 0 -5
BITMAP
0000000000
0000000000
0000000000
0000000000
0000000000
0000000000
0000000000
0000000000
0000000000
0007000000
000F800000
001FC00000
003FE00000
007FF80000
00FCFC0000
01F87E0000
03F03F0000
07E01F8000
0FC00FE000
1F8007F000
0F0001FC00
060000FE00
0400007F00
0000003E00
0000000C00
0000000400
0000000000
0000000000
0000000000
0000000000
0000000000
0000000000
0000000000
0000000000
ENDCHAR

STARTCHAR Ca5d9
ENCODING 42457
SWIDTH 1000 0
DWIDTH 34 0
BBX 34 34 0 -5
BITMAP
0000000000
0000000000
0000000000
0000000000
0000000000
0000000000
0000001000
0000007000
0000013800
0007073C00
000F839C00
001FC3D000
003FE18000
007FF90000
00FCFC0000
01F87E0000
03F03F0000
07E01F8000
0FC00FE000
1F8007F000
0F0001FC00
060000FE00
0400007F00
0000003E00
0000000C00
0000000400
0000000000
0000000000
0000000000
0000000000
0000000000
0000000000
0000000000
0000000000
ENDCHAR

STARTCHAR Ca5da
ENCODING 42458
SWIDTH 1000 0
DWIDTH 34 0
BBX 34 34 0 -5
BITMAP
0000000000
0000000000
0000000000
0000000000
0000000000
0000000000
000001E000
000003F000
0000073800
0007061800
000F861800
001FC73000
003FE3F000
007FF9C000
00FCFC0000
01F87E0000
03F03F0000
07E01F8000
0FC00FE000
1F8007F000
0F0001FC00
060000FE00
0400007F00
0000003E00
0000000C00
0000000400
0000000000
0000000000
0000000000
0000000000
0000000000
0000000000
0000000000
0000000000
ENDCHAR

STARTCHAR Ca5db
ENCODING 42459
SWIDTH 1000 0
DWIDTH 34 0
BBX 34 34 0 -5
BITMAP
0000000000
0000000000
0000000000
0000000000
0000000000
0000F00000
0000F00000
0000F00000
0000F00000
0000F00000
0000F00000
07FFFFFC00
07FFFFFC00
07FFFFFC00
0000F00000
0000F00000
0060F04000
0078F3E000
0078F1F000
00F0F1F000
00F0F0F800
01F0F07800
03E0F07C00
03E0F03C00
07C0F03E00
0F80F03E00
0380F01800
0100F00000
0000F00000
0000F00000
0000000000
0000000000
0000000000
0000000000
ENDCHAR

STARTCHAR Ca5dc
ENCODING 42460
SWIDTH 1000 0
DWIDTH 34 0
BBX 34 34 0 -5
BITMAP
0000000000
0000000000
0000000200
0000000F00
0000002700
0000F0F340
0000F07B00
0000F03900
0000F03000
0000F00000
0000F00000
07FFFFFC00
07FFFFFC00
07FFFFFC00
0000F00000
0000F00000
0060F04000
0078F3E000
0078F1F000
00F0F1F000
00F0F0F800
01F0F07800
03E0F07C00
03E0F03C00
07C0F03E00
0F80F03E00
0380F01800
0100F00000
0000F00000
0000F00000
0000000000
0000000000
0000000000
0000000000
ENDCHAR

STARTCHAR Ca5dd
ENCODING 42461
SWIDTH 1000 0
DWIDTH 34 0
BBX 34 34 0 -5
BITMAP
0000000000
0000003800
000000FC00
000000EE00
000001C600
0000F1C600
0000F0C600
0000F0FE00
0000F07C00
0000F00000
0000F00000
07FFFFFC00
07FFFFFC00
07FFFFFC00
0000F00000
0000F00000
0060F04000
0078F3E000
0078F1F000
00F0F1F000
00F0F0F800
01F0F07800
03E0F07C00
03E0F03C00
07C0F03E00
0F80F03E00
0380F01800
0100F00000
0000F00000
0000F00000
0000000000
0000000000
0000000000
0000000000
ENDCHAR

STARTCHAR Ca5de
ENCODING 42462
SWIDTH 1000 0
DWIDTH 34 0
BBX 34 34 0 -5
BITMAP
0000000000
0000000000
0000000000
0000000000
0000000000
0000000000
0000000000
0000000000
0000000000
0FFFFFF800
0FFFFFF800
0FFFFFFC00
0FF000F800
000001F000
000003F000
000807E000
00180FC000
007C1F0000
007E3E0000
003FFC0000
001FF80000
000FF00000
0007E00000
0003F00000
0001F80000
0000FC0000
00007C0000
0000780000
0000300000
0000100000
0000000000
0000000000
0000000000
0000000000
ENDCHAR

STARTCHAR Ca5df
ENCODING 42463
SWIDTH 1000 0
DWIDTH 34 0
BBX 34 34 0 -5
BITMAP
0000000000
0000000000
0000000000
0000000000
0004000000
000F000000
000FE00000
001FF80000
0007FE0000
0001FF4000
00007F8000
00001F8000
0000070000
0007010000
000FC00000
001FF00000
0007FC0000
0001FF0000
00007E0000
00001E0000
00200C0000
007C000000
007F000000
00FFE00000
001FF80000
0007FC0000
0001FF0000
00007FC000
00001FC000
0000078000
0000018000
0000008000
0000000000
0000000000
ENDCHAR

STARTCHAR Ca5e0
ENCODING 42464
SWIDTH 1000 0
DWIDTH 34 0
BBX 34 34 0 -5
BITMAP
0000000000
0000000000
0000000000
0000000000
0000000000
0000000000
0001900000
0001E00000
0003E00000
0003E00000
0003C00000
0007C00000
0007800000
0007800000
000F800000
000F000000
001F030000
001E0F0000
001E0F8000
003E07C000
003C03E000
007C03F000
007801F000
00781FF800
00FFFFFC00
0FFFFFFC00
0FFFFE3E00
07FF803C00
0780001000
0000000000
0000000000
0000000000
0000000000
0000000000
ENDCHAR

STARTCHAR Ca5e1
ENCODING 42465
SWIDTH 1000 0
DWIDTH 34 0
BBX 34 34 0 -5
BITMAP
0000000000
0000000000
0000000000
0000000000
0000000000
0000008000
000000E000
000001F000
000001E000
000003E000
000003C000
000C07C000
000F078000
003F8F8000
001FEF0000
0007FF0000
0003FE0000
0000FE0000
00007F0000
0000FF8000
0001FFC000
0003E7E000
000FC3F000
001F81F000
003F00E000
00FE004000
07FC000000
03F8000000
01E0000000
00C0000000
0000000000
0000000000
0000000000
0000000000
ENDCHAR

STARTCHAR Ca5e2
ENCODING 42466
SWIDTH 1000 0
DWIDTH 34 0
BBX 34 34 0 -5
BITMAP
0000000000
0000000000
0000000000
0000000000
0000000000
0000000000
00FFFFF000
00FFFFF000
00FFFFF000
00FFFFF000
0003C00000
0003C00000
0003C00000
0003C00000
0003C00000
07FFFFFC00
07FFFFFC00
07FFFFFC00
07FFFFFC00
0003C00000
0003C00000
0003C00000
0003C00000
0003C00000
0003C00000
0003C00000
0003FFF800
0003FFF800
0003FFF800
0000FFF800
0000000000
0000000000
0000000000
0000000000
ENDCHAR

STARTCHAR Ca5e3
ENCODING 42467
SWIDTH 1000 0
DWIDTH 34 0
BBX 34 34 0 -5
BITMAP
0000000000
0000000000
0000000000
0000000000
0000000000
0000000000
0000000000
0000000000
0000000000
0001000000
000E000000
000E000000
000F000000
000F00E000
00073FF000
001FFFF000
03FFFFF000
03FFF1E000
01FF83C000
010387C000
0003878000
00039F0000
0003CE0000
0003C40000
0001C00000
0001C00000
0001C00000
0001E00000
0001E00000
0000E00000
0000E00000
0000000000
0000000000
0000000000
ENDCHAR

STARTCHAR Ca5e4
ENCODING 42468
SWIDTH 1000 0
DWIDTH 34 0
BBX 34 34 0 -5
BITMAP
0000000000
0000000000
0000000000
0000000000
0000000000
001E000000
001E000000
001E000000
001E000000
001E001000
000F07F800
000FFFFE00
00FFFFFC00
0FFFFFF800
0FFFF0F800
0FFF80F000
0F0781E000
000783E000
000787C000
00078F8000
0003CF0000
0003C30000
0003C00000
0003C00000
0003C00000
0001E00000
0001E00000
0001E00000
0001E00000
0001F00000
0000E00000
0000000000
0000000000
0000000000
ENDCHAR

STARTCHAR Ca5e5
ENCODING 42469
SWIDTH 1000 0
DWIDTH 34 0
BBX 34 34 0 -5
BITMAP
0000000000
0000000000
0000000000
0000000000
0000000000
0000000000
0000000000
0000000000
0000000000
0000000000
0000000000
007FFF0000
007FFF0000
007FFF0000
007FFF0000
00000F0000
00000F0000
00000F0000
00000E0000
00000E0000
00000E0000
00001E0000
00001E0000
00001E0000
01FFFFF000
01FFFFF000
01FFFFF000
0000000000
0000000000
0000000000
0000000000
0000000000
0000000000
0000000000
ENDCHAR

STARTCHAR Ca5e6
ENCODING 42470
SWIDTH 1000 0
DWIDTH 34 0
BBX 34 34 0 -5
BITMAP
0000000000
0000000000
0000000000
0000000000
0000000000
0000000000
0000000000
0000000000
00FFFFC000
00FFFFC000
00FFFF8000
00FFFF8000
0000078000
0000078000
0000078000
0000078000
00000F8000
00000F8000
00000F0000
00000F0000
00000F0000
00000F0000
00000F0000
0FFFFFFE00
0FFFFFFE00
0FFFFFFE00
0FFFFFFE00
0000000000
0000000000
0000000000
0000000000
0000000000
0000000000
0000000000
ENDCHAR

STARTCHAR Ca5e7
ENCODING 42471
SWIDTH 1000 0
DWIDTH 34 0
BBX 34 34 0 -5
BITMAP
0000000000
0000000000
0000000000
0000000000
0000000000
0000000000
0000000000
0000000000
0000000000
0000000000
0000000000
007FFFC000
007FFFC000
007FFFC000
000003C000
000003C000
000003C000
000003C000
003FFFC000
003FFFC000
003FFFC000
000003C000
000003C000
000003C000
000003C000
007FFFC000
007FFFC000
007FFFC000
000003C000
000003C000
0000000000
0000000000
0000000000
0000000000
ENDCHAR

ENDFONT
